<?xml version="1.0" standalone="no"?>
<!DOCTYPE svg PUBLIC "-//W3C//DTD SVG 1.1//EN" "http://www.w3.org/Graphics/SVG/1.1/DTD/svg11.dtd" >
<svg xmlns="http://www.w3.org/2000/svg" xmlns:xlink="http://www.w3.org/1999/xlink" version="1.1">
<metadata>
Created by FontForge 20170731 at Mon May 27 16:03:34 1996
 By Aleksey,,,
Copyright 1994 Bay Animation Inc. All Rights Reserved.
</metadata>
<defs>
<font id="BeachBold" horiz-adv-x="500" >
  <font-face 
    font-family="Beach"
    font-weight="700"
    font-stretch="normal"
    units-per-em="1000"
    panose-1="0 0 7 0 0 0 0 0 0 0"
    ascent="800"
    descent="-200"
    x-height="589"
    cap-height="739"
    bbox="-89 -251 1015 1027"
    underline-thickness="10"
    underline-position="-80"
    unicode-range="U+0020-2122"
  />
<missing-glyph 
d="M63 0v1027h375v-1027h-375zM125 63h250v902h-250v-902z" />
    <glyph glyph-name=".notdef" 
d="M63 0v1027h375v-1027h-375zM125 63h250v902h-250v-902z" />
    <glyph glyph-name="glyph1" horiz-adv-x="0" 
 />
    <glyph glyph-name="glyph2" horiz-adv-x="280" 
 />
    <glyph glyph-name="space" unicode=" " horiz-adv-x="280" 
 />
    <glyph glyph-name="exclam" unicode="!" horiz-adv-x="400" 
d="M308 737q-32 -103 -42 -240q-7 -85 -7 -244q0 -48 -12 -65q-14 -20 -45 -20h-57q12 52 12 117q0 61 -16 181t-16 180q0 49 18 70t66 21h99zM291 135l-39 -99q-20 -51 -80 -51h-94l39 99q20 51 80 51h94z" />
    <glyph glyph-name="quotedbl" unicode="&#x22;" horiz-adv-x="339" 
d="M314 663q0 -6 -2 -19l-38 -241h-45l-38 238q-1 6 -1 20q0 68 61 68q29 0 46 -18.5t17 -47.5zM149 666q0 -19 -1 -25l-38 -238h-45l-38 238q-1 6 -1 20q0 68 60 68q27 0 45 -17.5t18 -45.5z" />
    <glyph glyph-name="numbersign" unicode="#" horiz-adv-x="769" 
d="M756 515l-40 -111h-142l-33 -98h149l-40 -112h-150l-75 -212h-121l76 212h-100l-75 -212h-121l76 212h-147l40 112h147l34 98h-156l41 111h155l76 213h120l-75 -213h99l76 213h120l-76 -213h142zM457 404h-104l-35 -99h103z" />
    <glyph glyph-name="dollar" unicode="$" horiz-adv-x="560" 
d="M526 170q0 -82 -60 -133q-54 -46 -139 -56l2 -97h-87l2 96q-106 0 -224 98q22 64 61 87q23 14 102 30q-18 -46 -18 -62q0 -23 30 -42q24 -16 51 -21q0 31 1 118q2 74 1 117q-90 69 -125 107q-65 72 -65 145q0 76 57 125q48 43 128 58l-1 81h89l-3 -79q83 0 185 -78
q-27 -58 -66 -79q-30 -17 -102 -24q24 38 24 51q0 29 -43 40q-3 -185 -2 -223q93 -68 132 -109q70 -75 70 -150zM248 492q0 53 -3 158q-50 -14 -50 -65q0 -44 53 -93zM387 150q0 48 -63 99q1 -10 0 -27q-1 -21 -1 -28q0 -41 2 -125q62 29 62 81z" />
    <glyph glyph-name="percent" unicode="%" horiz-adv-x="635" 
d="M293 551q0 -78 -30 -131q-38 -65 -111 -65q-71 0 -109 65q-31 54 -31 131q0 78 31 132q37 65 109 65t110 -66q31 -54 31 -131zM585 746q-193 -299 -410 -768q-24 3 -60 2q-51 -1 -61 -1q230 378 406 765q26 -3 52 -3q13 0 73 5zM625 170q0 -75 -32 -130q-39 -67 -109 -67
q-71 0 -109 66q-32 55 -32 131q0 78 30 132q38 65 111 65q72 0 110 -65q31 -54 31 -132zM183 552q0 120 -30 120q-31 0 -31 -120q0 -121 31 -121q30 0 30 121zM515 170q0 121 -31 121q-30 0 -30 -121q0 -120 31 -120q30 0 30 120z" />
    <glyph glyph-name="ampersand" unicode="&#x26;" horiz-adv-x="739" 
d="M717 410q0 -67 -52 -86q-7 -2 -19 -9q-6 -5 -15 -23q-17 -47 -57 -141q30 -45 58 -57q23 -10 81 -10q-12 -54 -28 -73q-22 -26 -73 -26h-90l-43 57q-80 -68 -184 -68q-105 0 -174.5 67t-69.5 172q0 77 42 136t115 91q-36 70 -36 125q0 80 57 131t138 51q102 0 176 -80
q-17 -52 -48 -71q-24 -15 -84 -23q8 37 8 44q0 32 -45 32q-29 0 -47 -20t-18 -49q0 -42 48 -112l157 -228q11 48 11 77q0 9 -1.5 27.5t-1.5 27.5q0 38 54 38h141zM429 114l-172 251q-67 -41 -67 -124q0 -67 42 -109t109 -42q49 0 88 24z" />
    <glyph glyph-name="quotesingle" unicode="'" horiz-adv-x="175" 
d="M149 666q0 -19 -1 -25l-38 -238h-45l-38 238q-1 6 -1 20q0 68 60 68q27 0 45 -17.5t18 -45.5z" />
    <glyph glyph-name="parenleft" unicode="(" horiz-adv-x="356" 
d="M318 -150q-74 19 -107 49q-63 57 -104 218q-35 135 -35 245q0 234 130 446q87 -51 87 -104q0 -26 -31 -101q-62 -151 -62 -304q0 -223 122 -449z" />
    <glyph glyph-name="parenright" unicode=")" horiz-adv-x="356" 
d="M284 306q0 -235 -128 -445q-89 48 -89 102q0 32 31 102q62 140 62 303q0 215 -122 451q38 -11 56 -19q31 -12 50 -31q66 -63 106 -217q34 -130 34 -246z" />
    <glyph glyph-name="asterisk" unicode="*" 
d="M476 525l-158 -27l112 -114l-104 -78l-76 143l-75 -143l-104 78l111 114l-157 27l40 124l143 -72l-20 160h124l-20 -160l144 72z" />
    <glyph glyph-name="plus" unicode="+" horiz-adv-x="833" 
d="M724 243h-251v-258h-113v258h-251v111h251v257h113v-257h251v-111z" />
    <glyph glyph-name="comma" unicode="," horiz-adv-x="280" 
d="M231 141q-30 -127 -59 -174q-46 -76 -147 -98q39 67 39 109q0 15 -2 45.5t-2 46.5q0 71 79 71h92z" />
    <glyph glyph-name="hyphen" unicode="-" horiz-adv-x="361" 
d="M328 393q-19 -75 -27 -91q-24 -47 -75 -47q-14 0 -44 1t-45 1q-41 0 -56 -3t-47 -19q15 78 24 94q21 40 80 40q16 0 47 -1t46 -1q46 0 97 26z" />
    <glyph glyph-name="hyphen" unicode="&#x2010;" horiz-adv-x="361" 
d="M328 393q-19 -75 -27 -91q-24 -47 -75 -47q-14 0 -44 1t-45 1q-41 0 -56 -3t-47 -19q15 78 24 94q21 40 80 40q16 0 47 -1t46 -1q46 0 97 26z" />
    <glyph glyph-name="period" unicode="." horiz-adv-x="280" 
d="M245 135l-35 -97q-19 -53 -84 -53h-92l35 98q19 52 84 52h92z" />
    <glyph glyph-name="slash" unicode="/" horiz-adv-x="278" 
d="M328 749q-163 -434 -289 -857h-108q140 402 286 857h111z" />
    <glyph glyph-name="zero" unicode="0" horiz-adv-x="560" 
d="M535 361q0 -150 -52 -254q-67 -134 -203 -134q-134 0 -202 134q-53 106 -53 254q0 147 54 253q68 135 201 135q135 0 203 -134q52 -104 52 -254zM375 361q0 96 -13 165q-24 120 -82 120t-81 -119q-14 -70 -14 -166q0 -95 14 -165q23 -120 81 -120q95 0 95 285z" />
    <glyph glyph-name="one" unicode="1" horiz-adv-x="560" 
d="M520 84q-16 -56 -30 -73q-22 -26 -73 -26h-360q10 29 15 40q11 25 22 35q20 19 60 24q45 5 55 18q7 11 7 60v395q0 65 -39 60q-68 -8 -129 -25q12 82 47 104q18 10 121 28q80 14 155 34q0 -12 -2 -52q-2 -33 -2 -53v-484q0 -55 4 -63q9 -22 53 -22h96z" />
    <glyph glyph-name="two" unicode="2" horiz-adv-x="560" 
d="M524 179q-32 -106 -50 -134q-40 -60 -123 -60q-26 0 -79.5 2t-80.5 2q-1 0 -166 -6v27q0 63 22 110q20 43 98 122q99 101 125 134q62 78 62 141q0 108 -103 108q-49 0 -91 -21q-27 -13 -79 -52q-8 34 -8 51q0 75 72 112q57 30 139 30q97 0 162.5 -60t65.5 -156
q0 -82 -58 -160q-37 -52 -126 -129q-98 -86 -127 -120h152q64 0 103 11.5t90 47.5z" />
    <glyph glyph-name="three" unicode="3" horiz-adv-x="560" 
d="M501 226q0 -111 -89 -184q-84 -69 -197 -69q-103 0 -186 65q35 59 74 59q17 0 49 -7.5t48 -7.5q64 0 102.5 40.5t38.5 104.5q0 67 -46 106q-44 36 -113 36q-10 0 -33.5 -2t-36.5 -1q7 29 23 69q12 15 40 23q24 6 47 12q31 10 55.5 37t24.5 58q0 36 -24.5 56t-61.5 20
q-45 0 -119 -37q-10 45 -10 60q0 46 63 69q44 16 101 16q86 0 139 -45q57 -47 57 -132q0 -92 -87 -143q67 -23 104 -77t37 -126z" />
    <glyph glyph-name="four" unicode="4" horiz-adv-x="560" 
d="M569 321q-27 -81 -40 -100q-30 -47 -91 -47q1 -4 10 -10q0 -51 7 -62q11 -18 57 -18q-13 -54 -29 -73q-22 -26 -72 -26h-141q35 76 35 153q0 17 -1 37h-135q-70 0 -98 13q-45 21 -45 81q0 99 97.5 253.5t186.5 194.5q59 26 140 26h30q-32 -59 -32 -126v-322h33
q27 0 88 26zM305 590q-52 -51 -100 -126q-58 -90 -58 -145q0 -24 57 -24h100z" />
    <glyph glyph-name="five" unicode="5" horiz-adv-x="560" 
d="M508 260q0 -123 -72 -203q-74 -83 -196 -83q-101 0 -195 60q21 37 27 46q20 25 43 25q18 0 53 -12t54 -12q62 0 97 53q29 45 29 111q0 57 -24 94q-28 45 -81 45q-26 0 -69 -19.5t-55 -19.5q-17 0 -27.5 12.5t-10.5 29.5q0 -8 11 254q2 50 17 71q19 27 66 27q28 0 83.5 -4
t82.5 -4q40 0 68 13q20 10 56 40q0 -184 -124 -184q-21 0 -57 2q-42 2 -57 2q-18 0 -24 -7t-10 -59q-1 -28 -3 -57q61 23 99 23q101 0 162 -72q57 -69 57 -172z" />
    <glyph glyph-name="six" unicode="6" horiz-adv-x="560" 
d="M527 277q0 -123 -56 -206q-65 -96 -182 -96q-131 0 -193 117q-48 91 -48 235q0 172 56 280q72 140 227 140q69 0 165 -54q-40 -64 -75 -64q-14 0 -43 7.5t-44 7.5q-99 0 -125 -156q49 46 118 46q98 0 153 -82q47 -72 47 -175zM373 250q0 179 -84 179q-50 0 -72 -58
q-16 -41 -16 -100q0 -70 15 -119q23 -76 76 -76q46 0 67 67q14 45 14 107z" />
    <glyph glyph-name="seven" unicode="7" horiz-adv-x="560" 
d="M556 744l-328 -708q-29 -63 -72 -63q-14 0 -29 4q-11 3 -28 10q-23 9 -28 11q19 26 50 79l240 520h11q-12 6 -158 6q-88 0 -168 -30q23 91 40 116q32 49 105 49q38 0 118.5 -5t119.5 -5q52 0 127 16z" />
    <glyph glyph-name="eight" unicode="8" horiz-adv-x="560" 
d="M532 199q0 -102 -76 -166q-72 -60 -176 -60q-106 0 -177 59q-76 62 -76 166q0 149 159 219q-106 54 -106 160q0 79 62 128q57 44 138 44q82 0 138 -45q61 -49 61 -129q0 -105 -105 -158q158 -67 158 -218zM341 582q0 32 -15 53q-17 25 -47 25t-45 -23.5t-15 -55.5
q0 -63 61 -111q61 52 61 112zM377 193q0 94 -97 164q-97 -66 -97 -162q0 -50 23 -84q27 -40 74 -40q46 0 73 39q24 35 24 83z" />
    <glyph glyph-name="nine" unicode="9" horiz-adv-x="560" 
d="M524 399q0 -175 -54 -281q-71 -141 -228 -141q-88 0 -176 65q20 31 29 40q19 19 43 19q17 0 49 -9t48 -9q106 0 125 151q-49 -44 -116 -44q-96 0 -153 84q-49 72 -49 173q0 117 61 203q68 96 181 96q129 0 191 -115q49 -91 49 -232zM368 448q0 198 -94 198q-44 0 -65 -68
q-14 -46 -14 -107q0 -65 15 -111q22 -67 72 -67q47 0 70 58q16 42 16 97z" />
    <glyph glyph-name="colon" unicode=":" horiz-adv-x="280" 
d="M245 517l-35 -99q-18 -52 -84 -52h-92l35 98q19 53 84 53h92zM245 135l-35 -97q-19 -53 -84 -53h-92l35 98q19 52 84 52h92z" />
    <glyph glyph-name="semicolon" unicode=";" horiz-adv-x="280" 
d="M252 517l-35 -99q-18 -52 -84 -52h-92l35 98q19 53 84 53h92zM231 141q-30 -127 -59 -174q-46 -76 -147 -98q39 67 39 109q0 15 -2 45.5t-2 46.5q0 71 79 71h92z" />
    <glyph glyph-name="less" unicode="&#x3c;" horiz-adv-x="833" 
d="M719 0l-605 249v98l605 250v-123l-430 -176l430 -176v-122z" />
    <glyph glyph-name="equal" unicode="=" horiz-adv-x="833" 
d="M724 343h-615v112h615v-112zM724 142h-615v111h615v-111z" />
    <glyph glyph-name="greater" unicode="&#x3e;" horiz-adv-x="833" 
d="M719 249l-605 -249v122l431 176l-431 176v123l605 -250v-98z" />
    <glyph glyph-name="question" unicode="?" horiz-adv-x="474" 
d="M407 576q0 -60 -45 -125q-20 -28 -84 -96q-45 -49 -45 -69q0 -25 74 -25q-12 -48 -29 -67q-22 -26 -67 -26h-76q-14 34 -14 70q0 60 70 167.5t70 146.5q0 37 -22.5 60t-59.5 23q-30 0 -62 -24q-15 -11 -51 -47q-28 53 -28 67q0 52 72 87q59 28 118 28q76 0 127.5 -47.5
t51.5 -122.5zM294 135l-35 -97q-19 -53 -80 -53h-93l38 99q20 51 81 51h89z" />
    <glyph glyph-name="at" unicode="@" horiz-adv-x="986" 
d="M935 374q0 -100 -46 -185q-49 -92 -136 -129q-37 -16 -72 -16q-92 0 -112 75q-59 -74 -140 -74q-75 0 -118 55q-39 49 -39 126q0 104 78 193t181 89q75 0 105 -58l15 50h114l-89 -320q-7 -25 -7 -43q0 -35 25 -35q33 0 76 35q106 86 106 241q0 137 -95 215
q-88 73 -229 73q-177 0 -290 -123q-109 -119 -109 -298q0 -156 108 -249q103 -89 262 -89q160 0 308 108l37 -47q-164 -121 -345 -121q-201 0 -330 105q-140 114 -140 310q0 198 149 333q144 131 344 131q169 0 276 -90q113 -96 113 -262zM595 378q0 28 -12 49
q-15 24 -41 24q-58 0 -107 -110q-43 -94 -43 -162q0 -27 11 -48q13 -26 38 -26q62 0 112 108q42 93 42 165z" />
    <glyph glyph-name="A" unicode="A" horiz-adv-x="616" 
d="M632 89q-17 -61 -31 -77q-21 -27 -76 -27h-132q22 66 22 107q0 29 -17 108h-224q-15 -47 -15 -83q0 -26 11 -31q5 -2 35 -2q-17 -58 -28 -73q-21 -26 -71 -26h-106q27 54 48 135q16 71 33 141q25 102 76 256q33 100 33 111t-17 15q-13 1 -26 3q25 75 47 88q16 9 108 9
q49 0 67 -12q40 -27 118 -302q43 -151 82 -315q3 -12 13 -18.5t50 -6.5zM373 302q-35 144 -88 302q-4 -17 -86 -302h174z" />
    <glyph glyph-name="B" unicode="B" horiz-adv-x="618" 
d="M579 202q0 -109 -75 -170q-70 -57 -182 -57q-32 0 -97 7.5t-98 7.5q-10 0 -35.5 -1.5t-39.5 -0.5q26 41 34 71t8 79v450q0 35 -14 43q-8 5 -48 5q11 56 34.5 76.5t79.5 27.5q41 5 104 5q272 0 272 -182q0 -105 -97 -132q71 -30 112.5 -91t41.5 -138zM381 566
q0 38 -27 62.5t-65 24.5q-30 0 -40 -14q-8 -10 -8 -40v-84q45 -21 72 -21q30 0 49 20.5t19 51.5zM421 203q0 144 -180 213v-244q0 -50 9 -71q15 -33 58 -33q53 0 85 42q28 39 28 93z" />
    <glyph glyph-name="C" unicode="C" horiz-adv-x="528" 
d="M545 674q-28 -59 -63 -77q-26 -13 -100 -21q16 43 16 48q0 13 -20 20q-15 6 -30 6q-87 0 -127 -105q-28 -74 -28 -178q0 -284 173 -284q72 0 156 70q0 -7 1 -23v-23q0 -72 -61 -106q-49 -28 -127 -28q-155 0 -236 119q-70 103 -70 265t75 269q85 123 239 123
q99 0 202 -75z" />
    <glyph glyph-name="D" unicode="D" horiz-adv-x="664" 
d="M634 357q0 -172 -74 -271q-83 -111 -249 -111q-39 0 -100 5q-93 8 -99 8q-7 0 -24 -1.5t-25 -0.5q30 62 30 116v480q0 36 -13 45q-8 6 -49 10q10 70 53 90q40 18 177 18q77 0 125 -8q130 -22 194 -139q54 -97 54 -241zM472 362q0 106 -32 184q-43 106 -134 106
q-40 0 -54 -21q-11 -16 -11 -56v-407q0 -52 7 -69q13 -31 57 -31q90 0 134 109q33 81 33 185z" />
    <glyph glyph-name="E" unicode="E" horiz-adv-x="566" 
d="M553 118q-21 -81 -33 -98q-25 -35 -94 -35h-363q31 62 31 115v479q0 36 -15 46q-10 7 -51 11q13 61 29 78q20 23 78 23h414q-16 -83 -43 -109t-109 -42q7 13 16 40q-7 11 -55 11q-103 0 -109.5 -5t-6.5 -30v-146h145q32 0 81 18q-20 -80 -40.5 -99.5t-98.5 -21.5
q48 1 -87 1v-203q0 -38 12 -47q43 -12 109 -12h59q77 0 131 26z" />
    <glyph glyph-name="F" unicode="F" horiz-adv-x="532" 
d="M547 737q-13 -77 -35 -103q-26 -30 -101 -45q0 6 1 18t1 17q0 13 -98 13q-60 0 -66.5 -5t-6.5 -30v-146h145q32 0 81 18q-20 -80 -40.5 -99.5t-97.5 -21.5q47 1 -88 1v-205q0 -55 28 -61q12 -3 37 -3q-19 -59 -30 -73q-20 -27 -70 -27h-145q32 71 32 125v469q0 37 -15 47
q-9 6 -51 10q12 58 30 77q22 24 77 24h412z" />
    <glyph glyph-name="G" unicode="G" horiz-adv-x="605" 
d="M589 382q-13 -24 -32 -72q-5 -17 -6 -48q0 -22 1 -57q1 -42 1 -48q0 -54 -7 -85q-22 -98 -203 -98q-154 0 -239 116q-76 104 -76 264q0 167 81 275q90 120 251 120q115 0 222 -97q-37 -61 -92 -78q-35 -11 -125 -11q48 39 48 51q0 17 -23 26q-17 7 -37 7q-89 0 -131 -108
q-29 -77 -29 -184q0 -101 31 -176q43 -101 130 -101q63 0 63 81q0 10 -1 29t-1 28q0 54 -70 54h-21q-14 -1 -21 -1q15 53 25 69q21 32 60 32q14 0 42 -1.5t42 -1.5q57 0 117 15z" />
    <glyph glyph-name="H" unicode="H" horiz-adv-x="703" 
d="M675 85q-17 -57 -29 -72q-21 -28 -71 -28h-145q32 69 32 121v233h-220v-190q0 -43 12 -53.5t53 -10.5q-20 -61 -29 -73q-20 -27 -70 -27h-146q32 67 32 121v471q0 38 -13 50q-11 9 -51 13q13 50 23 66q20 33 57 33q110 0 165 -1q-33 -66 -33 -129v-165h220v129
q0 41 -10.5 51.5t-53.5 15.5q14 51 23 66q19 33 57 33q14 0 47 -1q30 -1 47 -1q84 2 72 2q-34 -66 -34 -130v-460q0 -51 23 -59q13 -5 42 -5z" />
    <glyph glyph-name="I" unicode="I" horiz-adv-x="336" 
d="M307 85q-20 -61 -29 -73q-20 -27 -70 -27h-146q32 67 32 121v471q0 39 -11.5 49t-52.5 14q13 50 23 66q20 33 57 33q110 0 165 -1q-33 -66 -33 -129v-463q0 -41 14 -52q11 -9 51 -9z" />
    <glyph glyph-name="J" unicode="J" horiz-adv-x="410" 
d="M352 737q-31 -69 -31 -122v-440q0 -99 -26 -143q-35 -56 -126 -56q-29 0 -75 5q-71 8 -75 8q-11 1 -55 -11q15 56 24 73q21 39 59 39q12 0 38 -2t39 -2q49 0 49 82v401q0 44 -15 56q-11 8 -60 12q14 60 31 77q21 23 78 23h145z" />
    <glyph glyph-name="K" unicode="K" horiz-adv-x="656" 
d="M687 87q-11 -53 -28 -74q-23 -28 -72 -28h-114l6 33q0 20 -26 59l-182 275l-31 -33v-170q0 -27 3 -37q6 -20 26 -24q12 -3 37 -3q-21 -59 -31 -72q-21 -28 -69 -28h-144q32 67 32 121v471q0 39 -12 49t-53 14q17 59 29 74q20 26 72 25q48 0 143 -1q-33 -66 -33 -129v-143
l171 198q53 62 104 71l84 3q11 2 31 5q-16 -73 -39 -95q-9 -8 -52 -21q-39 -13 -72 -50l-98 -112l223 -329q22 -32 39.5 -40.5t55.5 -8.5z" />
    <glyph glyph-name="L" unicode="L" horiz-adv-x="477" 
d="M520 142q-24 -83 -36 -104q-31 -53 -88 -53q-35 0 -105.5 2.5t-105.5 2.5q-57 0 -123 -8q32 73 32 123v449q0 52 -10 65.5t-59 17.5q17 58 31 74q21 26 72 26h141q-27 -66 -27 -103v-474q0 -51 19 -63q13 -8 70 -8q68 0 101 8q41 10 88 45z" />
    <glyph glyph-name="M" unicode="M" horiz-adv-x="822" 
d="M829 84q-13 -52 -29 -72q-23 -27 -70 -27h-153q33 67 33 130q0 95 -17 230q-2 14 -33 229q-47 -147 -75 -219q-60 -152 -112 -198l-24 16q1 4 1 21q0 49 -50 178q-30 78 -70 199q-17 -104 -34 -209q-19 -131 -19 -215q0 -40 10.5 -49.5t52.5 -9.5q-20 -61 -32 -76
q-22 -27 -75 -27h-108q24 45 41 147q1 6 20 154q1 11 48 318q4 25 -20 32q-10 3 -44 3q14 55 33 75q24 23 77 23h166l-12 -25v-6q0 -17 23 -85q17 -46 32.5 -92t25.5 -91q29 101 39 131q28 86 55 120q38 48 112 48q36 0 110 -8q-25 -21 -28 -24q-12 -14 -12 -34
q0 -14 25 -172q27 -172 40 -326q3 -31 5 -42q6 -23 22.5 -35t45.5 -12z" />
    <glyph glyph-name="N" unicode="N" horiz-adv-x="701" 
d="M678 83q-12 -57 -29 -75q-21 -23 -76 -23h-123l12 26q-1 5 -3 13.5t-3.5 11.5t-5.5 9l-244 434q-1 7 -6 20q-3 -18 -3 -19v-323q0 -47 16 -60q13 -11 59 -11q-16 -59 -29 -76q-22 -25 -75 -25h-101q27 58 27 129v464q0 38 -13.5 48t-50.5 10q15 61 29 77q20 24 75 24h110
v-14q-1 -9 -1 -14q0 -10 16 -39l237 -429q6 -7 15 -24q-4 9 -4 88q-1 56 0 150q1 107 1 101q0 53 -12 64.5t-65 11.5q14 62 28 80q21 25 78 25h115q-27 -34 -34 -58.5t-7 -71.5v-448q0 -48 10 -60q12 -16 57 -16z" />
    <glyph glyph-name="O" unicode="O" horiz-adv-x="665" 
d="M636 361q0 -158 -71 -264q-82 -124 -233 -124q-152 0 -234 123q-69 105 -69 265q0 159 70 265q82 123 233 123t233 -123q71 -106 71 -265zM471 361q0 287 -139 287q-82 0 -117 -110q-22 -71 -22 -177q0 -105 22 -176q35 -111 117 -111t116 111q23 71 23 176z" />
    <glyph glyph-name="P" unicode="P" horiz-adv-x="580" 
d="M556 495q0 -102 -64.5 -169.5t-166.5 -67.5q-41 0 -83 20v-128q0 -44 15 -54q11 -8 59 -8q-17 -60 -29 -75q-20 -28 -71 -28h-150q28 69 28 135v446q0 45 -9.5 55t-51.5 10q13 72 59 93q43 19 169 19q295 0 295 -248zM399 509q0 56 -21 93q-26 45 -78 45q-40 0 -52 -30
q-7 -18 -7 -66v-66q0 -127 66 -127q49 0 74 54q18 41 18 97z" />
    <glyph glyph-name="Q" unicode="Q" horiz-adv-x="665" 
d="M714 5q-13 -80 -46 -116q-39 -41 -117 -41q-72 0 -203.5 68.5t-181.5 68.5q-49 0 -139 -43q21 72 28 86q25 51 64 49l19 -1l-29 5q-80 130 -80 283q0 156 71 262q82 122 231 122q151 0 233 -120q71 -105 71 -264q0 -126 -45 -223q-56 -118 -164 -146q97 -35 149 -35
q54 0 139 45zM471 361q0 103 -23 177q-36 110 -116 110q-79 0 -115 -111q-24 -75 -24 -176t24 -176q36 -111 115 -111q80 0 116 111q23 73 23 176z" />
    <glyph glyph-name="R" unicode="R" horiz-adv-x="612" 
d="M630 80q-16 -52 -29 -68q-21 -27 -66 -27h-117q8 24 8 39q0 16 -13 40l-118 222l-54 -9v-135q0 -42 12.5 -52.5t53.5 -10.5q-19 -56 -31 -70q-21 -24 -70 -24h-144q32 69 32 123v459q0 42 -16 55q-13 10 -57 10q22 73 60.5 92t163.5 19q88 0 142 -13q72 -17 116.5 -75
t44.5 -132q0 -62 -34 -115t-90 -77l116 -201q17 -30 36 -40t54 -10zM391 523q0 51 -21 84q-24 39 -73 39q-38 0 -49 -16q-7 -12 -7 -53v-201q150 16 150 147z" />
    <glyph glyph-name="S" unicode="S" horiz-adv-x="537" 
d="M513 172q0 -94 -77 -149q-68 -49 -167 -49q-145 0 -260 107q25 67 66 92q26 15 110 32q-29 -48 -29 -61q0 -30 39 -49q33 -17 66 -17q40 0 68 18q32 21 32 59q0 44 -79 111q-136 117 -147 128q-79 83 -79 165q0 92 71 143q63 46 158 46q105 0 222 -80q-29 -68 -72 -92
q-38 -21 -117 -21q40 36 40 51q0 21 -31 33q-24 9 -49 9q-31 0 -54 -15q-28 -17 -28 -47q0 -46 82 -115q144 -120 153 -130q82 -85 82 -169z" />
    <glyph glyph-name="T" unicode="T" horiz-adv-x="511" 
d="M561 753q-11 -38 -19 -56q-14 -33 -32 -49q-21 -19 -76 -21h-83q-11 -1 -14 -4q-6 -4 -6 -20v-456q0 -42 13 -53t53 -11q-17 -57 -28 -72q-21 -26 -70 -26h-148q32 71 32 139v478q0 23 -17 27q-4 1 -38 1q-93 0 -169 -20q24 77 46 99q28 28 103 28q41 0 123 -2t123 -2
q135 0 207 20z" />
    <glyph glyph-name="U" unicode="U" horiz-adv-x="672" 
d="M629 737q-31 -59 -29 -124q7 -228 7 -260q0 -379 -269 -379q-148 0 -217 129q-53 101 -53 264q0 38 4.5 112.5t4.5 111.5q0 29 -18 39q-8 4 -45 10q16 58 32 74q21 23 75 23h155q-57 -135 -57 -364q0 -292 148 -292q144 0 144 304q0 101 -2 129q-9 96 -41 114
q-17 10 -51 12q15 57 26 72q19 25 69 25h117z" />
    <glyph glyph-name="V" unicode="V" horiz-adv-x="567" 
d="M586 737q-25 -59 -75 -237q-62 -217 -86 -290q-50 -151 -85.5 -190.5t-79.5 -47.5l-26 26h-21v-12q-43 137 -118 415l-27 115q-9 43 -29 102q-5 8 -13 13l-48 7q17 58 33 75q22 24 76 24h121q-16 -59 -16 -75q0 -31 24 -130q16 -67 33 -133l58 -240q113 372 113 423
q0 37 -26 48q-11 5 -58 8q16 58 32 75q22 24 76 24h142z" />
    <glyph glyph-name="W" unicode="W" horiz-adv-x="834" 
d="M844 737q-34 -52 -75 -228q-99 -428 -158 -493q-34 -38 -139 -51l28 29v-4q0 1 -34 125l-48 175q-35 -132 -45 -161q-36 -105 -78 -133q-28 -19 -99 -32l15 33l-2 -6q0 8 -40 143q-27 89 -76 269q-12 56 -25 111q-17 75 -33 111q-4 9 -26 13q-16 3 -32 5q13 58 34.5 76
t80.5 18h112q-22 -55 -22 -73q0 -44 33 -174l81 -320q15 47 77 287q-12 51 -24 101q-25 83 -52 82q-26 -1 -30 -1q17 57 33 74q22 24 75 24h119q-18 -45 -18 -76q0 -36 11 -89q11 -44 21 -88q22 -101 77 -310q94 301 94 410q0 33 -29 45q-14 6 -58 9q17 60 35 77
q23 22 81 22h136z" />
    <glyph glyph-name="X" unicode="X" horiz-adv-x="578" 
d="M594 83q-14 -53 -29 -71q-21 -27 -69 -27h-119q2 14 9 41q1 16 -10 35l-116 240l-54 -102q-43 -85 -41 -102q4 -10 47 -14q-23 -56 -38 -72q-24 -26 -74 -26h-127q40 49 79 124l156 302l-83 172q-17 36 -34.5 44.5t-59.5 8.5q16 60 28 75q20 26 72 26h104q-1 9 -1 -28
q0 -19 43 -106q27 -55 54 -109l32 64q17 36 24 66l-6 7q-17 5 -41 7q26 59 36 71q22 28 68 28h124q-43 -58 -68 -110l-117 -244l117 -239q18 -38 35.5 -49.5t58.5 -11.5z" />
    <glyph glyph-name="Y" unicode="Y" horiz-adv-x="506" 
d="M547 737q-36 -58 -56 -103l-156 -347v-134q0 -44 11 -56t54 -12q-18 -58 -30 -72q-21 -28 -70 -28h-145q32 73 32 121v182l-145 292q-18 37 -35.5 46.5t-60.5 9.5q16 60 32 77q22 24 77 24h108q-12 -22 -12 -36t20 -55q40 -78 113 -238q24 55 49 109q38 88 38 106
q0 5 -3 8q-24 4 -50 6q20 61 34 76q22 24 77 24h118z" />
    <glyph glyph-name="Z" unicode="Z" horiz-adv-x="533" 
d="M541 115l-46 -90q-13 -26 -37 -34q-17 -6 -53 -6q-34 0 -102 2t-102 2q-123 0 -210 -5q24 73 64 147l268 501q-53 4 -121 4q-99 0 -172 -29q24 70 38 90q29 40 83 40q42 0 126 -2.5t126 -2.5q61 0 121 12q-34 -93 -64 -151l-265 -500q38 -3 151 -3q95 0 195 25z" />
    <glyph glyph-name="bracketleft" unicode="[" horiz-adv-x="361" 
d="M338 739q-46 12 -83 12h-53v-781h53q33 0 81 11q-12 -48 -22 -64q-19 -31 -57 -31h-186q5 50 5 121v727q0 44 -5 101h186q39 0 58 -30q9 -14 23 -66z" />
    <glyph glyph-name="backslash" unicode="\" horiz-adv-x="278" 
d="M347 -108h-108q-122 420 -289 857h111q146 -455 286 -857z" />
    <glyph glyph-name="bracketright" unicode="]" horiz-adv-x="361" 
d="M291 -114h-188q-38 0 -57 31q-10 16 -23 65q52 -12 82 -12h54v781h-54q-21 0 -80 -11q12 51 20 66q18 29 58 29h188q-7 -56 -7 -121v-726q0 -44 7 -102z" />
    <glyph glyph-name="asciicircum" unicode="^" horiz-adv-x="1000" 
d="M830 423h-89l-242 190l-242 -190h-89l272 306h119z" />
    <glyph glyph-name="underscore" unicode="_" 
d="M515 -251h-530v114h530v-114z" />
    <glyph glyph-name="grave" unicode="`" 
d="M349 625h-94l-171 205h108q42 0 62 -35z" />
    <glyph glyph-name="a" unicode="a" horiz-adv-x="550" 
d="M536 79q-17 -53 -27 -66q-19 -27 -62 -29q-17 1 -50 -2l-49 -10q5 60 5 72v-24l-4 -1q-66 -45 -127 -45q-91 0 -145 70q-50 64 -50 157q0 100 55 162.5t153 62.5q35 0 59 -10q13 -5 53 -29l1 3v-32q1 10 1 30q0 117 -132 117q-46 0 -152 -25q27 81 57 100.5t118 19.5
q132 0 190 -68q52 -62 52 -195v-200q0 -40 8.5 -49t45.5 -9zM351 206q0 120 -91 120q-93 0 -93 -122q0 -49 22 -85q26 -43 72 -43q48 0 72 44q18 34 18 86z" />
    <glyph glyph-name="b" unicode="b" horiz-adv-x="584" 
d="M560 291q0 -124 -51 -211q-63 -105 -178 -105q-48 0 -131 45v43q0 -41 -28 -62t-70 -21q-10 0 -30 1t-30 1q26 52 26 113v550q0 44 -7.5 54.5t-48.5 14.5q9 48 26 67q20 23 65 23h130q-28 -72 -28 -125v-129q61 46 135 46q112 0 172 -101q48 -83 48 -204zM414 267
q0 232 -108 232q-56 0 -84 -66q-20 -49 -20 -115v-64q0 -65 21 -112q28 -62 85 -62q58 0 86 69q20 49 20 118z" />
    <glyph glyph-name="c" unicode="c" horiz-adv-x="461" 
d="M479 73q-77 -100 -198 -100q-124 0 -195 95q-64 85 -64 213q0 132 67 221q75 99 202 99q87 0 188 -68q-37 -67 -50 -78q-24 -21 -88 -21q0 5 1 14.5t1 13.5q0 20 -21 32q-17 11 -39 11q-62 0 -93 -79q-23 -59 -23 -132q0 -81 26 -139q35 -76 106 -76q25 0 69 18t55 18
q20 0 56 -42z" />
    <glyph glyph-name="d" unicode="d" horiz-adv-x="586" 
d="M544 804q-29 -78 -29 -131v-603q0 -32 27 -86h-43q-95 0 -113 48q-57 -55 -136 -55q-115 0 -176 103q-51 86 -51 210q0 120 50 205q61 102 172 102q78 0 134 -47v99q0 38 -9.5 50t-48.5 16q9 48 25 66q20 23 66 23h132zM381 249v67q0 66 -20 114q-28 66 -85 66
q-62 0 -90 -85q-18 -57 -18 -135q0 -74 20 -125q28 -73 89 -73q56 0 84 62q20 45 20 109z" />
    <glyph glyph-name="e" unicode="e" horiz-adv-x="513" 
d="M515 38q-107 -64 -211 -64q-132 0 -209 98q-71 91 -71 227q0 123 66 208q72 93 191 93q100 0 166 -76q24 -27 26 -29q14 -15 31 -24q-16 -90 -43 -130q-32 -48 -109 -82l-163 -72q41 -109 143 -109q20 0 57.5 9.5t56.5 9.5q34 0 69 -59zM354 426q0 31 -22 53.5t-53 22.5
q-56 0 -89 -58q-28 -49 -28 -109q0 -31 2 -46l115 49q75 32 75 88z" />
    <glyph glyph-name="f" unicode="f" horiz-adv-x="325" 
d="M386 821q-14 -72 -30 -88t-58 -16h-8q-38 0 -50 -15t-13 -56q1 41 1 -57h40q39 0 91 27q-13 -47 -26 -77q-16 -37 -40 -47q-16 -6 -65 -6v-346q0 -37 9.5 -46.5t49.5 -9.5q-17 -57 -34 -75q-24 -24 -78 -24h-113q30 63 30 132v369h-11q-26 0 -74 -12q20 65 25 74
q21 41 59 41l1 57q1 77 39.5 122.5t113.5 45.5q18 0 49 -4q42 -6 48 -7q-1 0 44 18z" />
    <glyph glyph-name="g" unicode="g" horiz-adv-x="584" 
d="M558 589q-30 -46 -38 -76q-5 -18 -5 -54v-414q0 -79 -8 -113q-19 -80 -88 -122q-62 -38 -149 -38q-105 0 -236 57q29 69 69 69q26 0 75.5 -12.5t74.5 -12.5q126 0 126 142q-55 -35 -125 -35q-115 0 -177 99q-51 84 -51 207q0 125 55 212q65 103 182 103q78 0 142 -49
q15 30 70 36q8 1 83 1zM379 123v226q0 71 -13 101q-20 48 -80 48q-115 0 -115 -199q0 -81 21 -136q30 -79 97 -79q43 0 90 39z" />
    <glyph glyph-name="h" unicode="h" horiz-adv-x="578" 
d="M566 81q-15 -54 -29 -71q-22 -25 -72 -25h-123q31 64 31 104v302q0 109 -76 109q-87 0 -87 -128v-227q0 -36 10.5 -50t47.5 -14q-16 -53 -31 -70q-22 -26 -70 -26h-123q30 59 30 127v533q0 38 -9 49.5t-48 14.5q15 50 29 68q21 27 65 27h128q-29 -67 -29 -126v-119
q46 43 116 43q105 0 149 -73q35 -58 35 -172v-217q0 -39 9.5 -49t46.5 -10z" />
    <glyph glyph-name="i" unicode="i" horiz-adv-x="292" 
d="M258 791l-30 -87q-17 -50 -82 -50h-91l31 87q18 50 81 50h91zM271 81q-15 -52 -30 -69q-22 -27 -68 -27h-125q29 60 29 113v331q0 38 -9 50t-48 15q18 54 28 67q21 28 64 28h134q-32 -52 -32 -124v-323q0 -37 9 -47q10 -14 48 -14z" />
    <glyph glyph-name="j" unicode="j" horiz-adv-x="288" 
d="M258 791l-30 -87q-17 -50 -82 -50h-91l31 87q18 50 81 50h91zM246 589q-32 -51 -32 -126v-488q0 -100 -28 -145q-36 -58 -131 -58q-58 0 -144 28q26 55 43 65t79 10q29 0 39 25q5 14 5 50v484q0 36 -10.5 46.5t-46.5 13.5q19 55 29 68q20 27 65 27h132z" />
    <glyph glyph-name="k" unicode="k" horiz-adv-x="523" 
d="M546 83q-11 -51 -24 -70q-21 -28 -66 -28h-113q18 38 18 56q0 17 -6 33l-91 247l-52 -59v-121q0 -36 10 -48t47 -12q-14 -49 -29 -67q-22 -29 -65 -29h-129q30 59 30 124v539q0 36 -8.5 47t-46.5 14q13 52 29 70q22 25 70 25h121q-29 -55 -29 -126v-276l107 132
q41 51 83 52q55 2 65 3q25 3 62 15q-19 -73 -39 -93q-9 -9 -42 -15.5t-61 -37.5l-28 -30l114 -302q13 -34 32 -41q13 -2 41 -2z" />
    <glyph glyph-name="l" unicode="l" horiz-adv-x="292" 
d="M271 81q-16 -53 -31 -70q-22 -26 -70 -26h-122q29 60 29 113v547q0 40 -8.5 50t-47.5 14q16 54 30 70q21 25 69 25h123q-29 -55 -29 -127v-536q0 -36 10 -48t47 -12z" />
    <glyph glyph-name="m" unicode="m" horiz-adv-x="855" 
d="M842 80q-15 -54 -29 -70q-22 -25 -71 -25h-119q29 64 29 104v298q0 51 -11 75q-16 36 -60 36q-50 0 -69 -40q-13 -28 -13 -86v-227q0 -39 10 -51.5t47 -12.5q-16 -54 -30 -70q-21 -26 -68 -26h-122q29 61 29 114v288q0 111 -70 111q-83 0 -83 -126v-232q0 -35 10.5 -47
t46.5 -12q-15 -51 -31 -69q-23 -27 -69 -27h-120q29 60 29 113v345q0 35 -8 41t-46 9q16 66 39 85q15 11 57 12q50 2 88 17l-4 -52q56 46 121 46q95 0 141 -68q54 68 146 68q175 0 175 -239v-222q0 -38 8 -46.5t47 -13.5z" />
    <glyph glyph-name="n" unicode="n" horiz-adv-x="582" 
d="M571 81q-17 -56 -26 -69q-20 -27 -67 -27h-131q30 62 30 115v287q0 113 -76 113q-86 0 -86 -128v-227q0 -40 9 -52t48 -12q-15 -51 -29 -69q-21 -27 -65 -27h-129q29 66 29 124v334q0 21 -6 39q-6 7 -48 11q16 64 37 83q16 14 56 15q59 2 96 11q-2 -16 -2 -22l1 -21
q87 42 121 42q104 0 148 -75q33 -58 33 -169v-217q0 -39 10 -49t47 -10z" />
    <glyph glyph-name="o" unicode="o" horiz-adv-x="530" 
d="M508 287q0 -133 -54 -215q-63 -99 -189 -99q-125 0 -189 99q-54 83 -54 215t54 215q64 99 189 99q127 0 190 -98q53 -82 53 -216zM362 287q0 212 -97 212q-57 0 -81 -83q-16 -53 -16 -129q0 -211 97 -211t97 211z" />
    <glyph glyph-name="p" unicode="p" horiz-adv-x="584" 
d="M559 295q0 -128 -48 -212q-59 -103 -178 -103q-73 0 -131 46v-92q0 -37 9.5 -48t48.5 -14q-12 -50 -26 -67q-20 -24 -67 -24h-126q27 77 27 124v575q0 60 -26 113q16 1 48 1q54 0 80 -18q10 -7 19 -46q1 -6 5 -15q18 85 138 85q115 0 176 -100q51 -83 51 -205zM414 310
q0 69 -20 119q-27 70 -86 70t-86 -61q-20 -46 -20 -113v-63q0 -66 20 -114q28 -67 84 -67q108 0 108 229z" />
    <glyph glyph-name="q" unicode="q" horiz-adv-x="584" 
d="M572 -128q-11 -49 -26 -67q-20 -24 -65 -24h-128q29 68 29 126v123q-55 -49 -138 -49q-111 0 -170 101q-50 84 -50 203q0 124 52 211q61 105 177 105q108 0 131 -83q12 50 43 65q21 11 80 11q13 0 33 -4q-24 -48 -24 -100v-549q0 -44 7.5 -54t48.5 -15zM382 258v64
q0 64 -22 112q-28 62 -85 62q-60 0 -87 -74q-18 -51 -18 -124q0 -80 18 -136q27 -85 90 -85q56 0 84 67q20 49 20 114z" />
    <glyph glyph-name="r" unicode="r" horiz-adv-x="375" 
d="M398 598q-9 -35 -15 -53q-11 -32 -23 -47q-21 -26 -63 -32q-46 -7 -57 -17q-25 -20 -25 -85v-219q0 -38 9 -49q11 -15 50 -15q-14 -53 -29 -70q-21 -26 -70 -26h-129q32 64 32 123v339q0 19 -6 35q-6 7 -48 11q15 62 34 82q15 15 46 15q3 0 10 -1h11q45 0 84 17l-7 -70
q43 60 88 60q8 0 37 -3q23 -3 35 -1z" />
    <glyph glyph-name="s" unicode="s" horiz-adv-x="426" 
d="M409 142q0 -77 -56 -123t-134 -46q-117 0 -207 95q13 50 41 72q19 14 77 32v-29q0 -34 25 -55t59 -21q26 0 45 15.5t19 40.5q0 31 -61 93q-110 112 -112 114q-61 71 -61 125q0 66 45 106q44 37 111 37q22 0 65 -7t65 -7q26 0 68 19q-13 -64 -24 -84q-22 -40 -72 -40
q-11 0 -98 14q-14 2 -24 -7t-10 -23q0 -25 62 -78q91 -77 115 -105q62 -70 62 -138z" />
    <glyph glyph-name="t" unicode="t" horiz-adv-x="336" 
d="M357 616q-29 -85 -38 -97q-24 -32 -92 -32v-356q0 -56 25 -56q6 0 18.5 3.5t18.5 3.5q15 0 31 -11l29 -40q-74 -57 -136 -57q-122 0 -122 160v353h-11q-25 0 -75 -18q14 60 24 79q21 41 62 41l3 52q3 45 48 74q8 5 85 38v-164h38q40 0 92 27z" />
    <glyph glyph-name="u" unicode="u" horiz-adv-x="582" 
d="M559 82q-17 -62 -36 -83q-15 -15 -43 -15h-11q-7 1 -11 1q-44 0 -83 -21l2 57q-51 -48 -129 -48q-103 0 -146 74q-33 58 -33 170v217q0 40 -8 48.5t-48 11.5q15 53 27 69q20 26 65 26h130q-30 -73 -30 -128v-278q0 -109 77 -109q86 0 86 128v227q0 38 -9 50t-48 15
q19 55 29 68q20 27 65 27h132q-32 -51 -32 -126v-332q0 -34 8.5 -41.5t45.5 -7.5z" />
    <glyph glyph-name="v" unicode="v" horiz-adv-x="515" 
d="M548 589q-20 -37 -49 -113l-146 -388q-24 -64 -47 -87q-31 -29 -92 -29q0 34 -20 84q-49 123 -93 234l-38 102q-33 83 -54 94q-8 4 -48 12q16 50 30 66q21 25 66 25h103q-8 -30 -8 -48q0 -14 18 -62l109 -288q1 -3 6 -19q17 54 90 257q9 25 9 42q0 21 -69 25q20 55 31 69
q20 24 68 24h134z" />
    <glyph glyph-name="w" unicode="w" horiz-adv-x="774" 
d="M808 589q-30 -50 -54 -115l-146 -396q-21 -57 -46.5 -78.5t-84.5 -33.5q0 4 1 12v13q0 -7 -4 25q-34 105 -76 231l-56 -165q-21 -61 -43 -82q-26 -25 -85 -32q2 30 -6 51l-160 411q-15 39 -33 51q-14 9 -59 15q19 55 31 69q21 24 69 24h109q-16 -32 -16 -44q0 -13 5 -26
l112 -291q7 -15 15 -46q16 48 71 197q-9 32 -19 64q-9 26 -24 37q-18 13 -59 18q19 53 32 67q21 24 67 24h107q-17 -32 -17 -46q0 -11 4 -23l95 -294q4 -13 10 -38q14 41 43 123t43 123q8 16 8 36q0 7 -5 14q-13 7 -65 12q19 54 31 68q20 25 67 25h138z" />
    <glyph glyph-name="x" unicode="x" horiz-adv-x="471" 
d="M510 84q-12 -50 -26 -69q-22 -30 -64 -30h-103q2 26 2 40q0 18 -36 86q-49 91 -52 97q-2 -5 -69 -139q-42 -84 -117 -84h-82q10 38 23 65q11 23 40 33t39 27q29 48 110 191l-83 146q-26 45 -95 45q12 50 26 69q21 28 65 28h109q-8 -27 -8 -33q0 -16 18 -49l26 -46
q7 -16 23 -46q18 33 52 100q20 39 37 54q22 20 60 20h87q-14 -56 -32 -76q-6 -7 -35 -23q-23 -13 -40 -44l-71 -126l111 -198q14 -26 35 -33q14 -5 50 -5z" />
    <glyph glyph-name="y" unicode="y" horiz-adv-x="506" 
d="M549 589q-62 -133 -141 -323q-66 -164 -133 -327q-33 -80 -68 -117q-48 -49 -121 -49q-63 0 -139 32q14 35 21 45q16 23 41 23q10 0 29.5 -3t28.5 -3q82 0 131 148l-139 415q-14 41 -31.5 52t-60.5 11q19 56 32 71q21 25 70 25h105q-7 -26 -7 -48q0 -23 6 -41
q34 -103 99 -312l96 243q11 28 11 43q0 19 -65 23q16 53 29 69q20 23 68 23h138z" />
    <glyph glyph-name="z" unicode="z" horiz-adv-x="476" 
d="M489 595q-27 -69 -64 -128l-236 -379h171q61 0 127 29q-21 -74 -36 -95q-28 -37 -91 -37q-39 0 -117 2.5t-117 2.5q-56 0 -141 -9q23 61 57 116l244 392h-137q-57 0 -116 -24q14 68 27 89q23 37 79 37q31 0 95 -3t96 -3q83 0 159 10z" />
    <glyph glyph-name="braceleft" unicode="{" 
d="M430 -134h-20q-103 0 -149 32q-41 29 -51 95q-5 34 -5 155q0 75 -28.5 103.5t-104.5 28.5v61q76 0 104.5 28.5t28.5 103.5q0 9 -1 32v37q0 132 46 172.5t180 40.5v-58q-70 0 -90.5 -21.5t-20.5 -88.5q0 -13 1 -40.5t1 -41.5q0 -154 -92 -195q56 -22 77 -80
q15 -42 15 -117q0 -12 -1 -36v-34q0 -74 19.5 -96.5t90.5 -22.5v-58z" />
    <glyph glyph-name="bar" unicode="|" 
d="M309 -251h-117v1030h117v-1030z" />
    <glyph glyph-name="braceright" unicode="}" 
d="M429 280q-76 0 -104.5 -28.5t-28.5 -103.5q0 -9 1 -34v-40q0 -127 -46.5 -167.5t-180.5 -40.5v58q71 0 90 20.5t19 111.5v43q0 121 30 164q21 30 62 47q-55 23 -76 79q-16 40 -16 111q0 15 1 43v40q0 69 -19.5 91.5t-90.5 22.5v58h20q104 0 150 -32q41 -28 51 -94
q5 -34 5 -156q0 -74 23.5 -98.5t109.5 -33.5v-61z" />
    <glyph glyph-name="asciitilde" unicode="~" horiz-adv-x="833" 
d="M762 285q-60 -41 -106 -57q-52 -19 -118 -19l-25.5 5t-117.5 36q-72 25 -120 25q-75 0 -203 -92v128q112 77 204 77q60 0 151.5 -32.5t135.5 -32.5q81 0 199 90v-128z" />
    <glyph glyph-name="nonbreakingspace" unicode="&#xa0;" horiz-adv-x="560" 
 />
    <glyph glyph-name="exclamdown" unicode="&#xa1;" horiz-adv-x="400" 
d="M318 737l-39 -98q-21 -52 -80 -52h-94l39 99q12 29 29.5 40t50.5 11h94zM271 77q0 -92 -84 -92h-99q49 158 49 445q0 92 13 108t44 16h57q-11 -45 -11 -114q0 -61 15.5 -182.5t15.5 -180.5z" />
    <glyph glyph-name="cent" unicode="&#xa2;" horiz-adv-x="560" 
d="M530 87q-74 -86 -171 -100l3 -143h-87l3 145q-105 17 -162 110q-51 81 -51 194q0 114 51 197q57 93 162 116l-3 125h88l-5 -121q73 0 170 -67q-20 -32 -40 -65q-13 -20 -33 -26q-15 -5 -79 -12q13 26 13 35q0 24 -31 35q-2 -78 -2 -119v-174q0 -41 2 -123q23 0 61 17
t50 17q17 0 61 -41zM280 404q-1 65 -1 98q-74 -42 -74 -192q0 -141 74 -197q0 32 1 96v96.5v98.5z" />
    <glyph glyph-name="sterling" unicode="&#xa3;" horiz-adv-x="560" 
d="M562 159q-18 -86 -34 -117q-32 -58 -98 -58q-35 0 -106.5 7t-107.5 7q-24 0 -107 -17q-24 53 -24 82q0 23 43 76.5t43 92.5q0 26 -28 112q-64 -2 -114 -13q15 50 25 67q19 32 56 41q-18 68 -18 109q0 91 71 147q66 52 159 52q141 0 191 -122q-15 -9 -55 -19q-6 -2 -51 25
q-48 29 -74 29q-40 0 -66 -25.5t-26 -66.5q0 -42 30 -126h11q7 -1 10 -1h92q28 0 76 21q-24 -103 -157 -121q7 -63 7 -56q0 -82 -70 -163q25 4 57 4q25 0 74 -5t73 -5q34 0 62 12q16 7 56 31z" />
    <glyph glyph-name="currency" unicode="&#xa4;" horiz-adv-x="606" 
d="M593 212l-68 -67l-101 101q-55 -35 -120 -35t-121 35l-101 -102l-65 67l99 102q-33 64 -33 119q0 71 33 119l-101 103l68 66l100 -101q54 35 120 35q71 0 121 -35l101 101l68 -67l-102 -102q34 -50 34 -118q0 -66 -34 -120zM431 432q0 51 -38 89t-89 38
q-52 0 -89.5 -37.5t-37.5 -89.5q0 -50 38.5 -88t88.5 -38q52 0 89.5 37.5t37.5 88.5z" />
    <glyph glyph-name="yen" unicode="&#xa5;" horiz-adv-x="556" 
d="M561 737q-32 -53 -68 -133q-31 -69 -61 -137h105v-77h-139l-27 -59h166v-77h-186v-103q0 -44 11.5 -56t54.5 -12q-18 -57 -29 -71q-21 -27 -69 -27h-136q30 69 30 123v146h-189v77h168l-31 59h-137v77h100l-57 116q-18 37 -34.5 46t-60.5 9q15 58 31 75q22 24 76 24h88
q-1 -11 -1 -33q0 -20 57 -139q38 -79 77 -158q90 210 90 216t-4 10q-20 3 -49 6q20 61 33 76q21 22 76 22h115z" />
    <glyph glyph-name="brokenbar" unicode="&#xa6;" 
d="M309 314h-117v400h117v-400zM309 -186h-117v400h117v-400z" />
    <glyph glyph-name="section" unicode="&#xa7;" 
d="M466 262q0 -93 -94 -121q36 -48 36 -108q0 -70 -46.5 -109t-118.5 -39q-96 0 -176 73q18 52 50 73q27 18 85 28q0 -8 -1 -22.5t-1 -21.5q0 -32 41 -32q18 0 33.5 14t15.5 31q0 38 -64 105q-59 61 -119 122q-64 74 -64 130q0 99 95 128q-36 48 -36 101q0 66 50 102
q45 32 113 32q86 0 174 -70q-20 -53 -52 -73q-28 -17 -89 -23q15 38 15 39q0 34 -48 34q-44 0 -44 -38q0 -32 64 -96q106 -107 117 -121q64 -76 64 -138zM350 252q0 34 -70.5 108t-94.5 74q-30 0 -30 -31q0 -30 68.5 -103.5t98.5 -73.5q28 0 28 26z" />
    <glyph glyph-name="dieresis" unicode="&#xa8;" 
d="M427 788l-31 -86q-16 -45 -72 -45h-82l31 86q16 45 72 45h82zM257 788l-31 -86q-16 -45 -73 -45h-81l31 86q16 45 72 45h82z" />
    <glyph glyph-name="copyright" unicode="&#xa9;" horiz-adv-x="822" 
d="M778 331q0 -152 -107.5 -259t-259.5 -107q-150 0 -258.5 108t-108.5 258q0 152 108 260t260 108q151 0 258.5 -108.5t107.5 -259.5zM700 331q0 120 -84 205.5t-204 85.5q-119 0 -204.5 -86t-85.5 -205q0 -120 84.5 -205t204.5 -85q119 0 204 85.5t85 204.5zM598 227
q-69 -125 -191 -125q-94 0 -156.5 65.5t-62.5 159.5q0 97 61 162t157 65q44 0 113 -32l9 2l11 28h45l1 -186h-50q-31 133 -122 133q-100 0 -100 -165q0 -170 109 -170q77 0 130 92z" />
    <glyph glyph-name="ordfeminine" unicode="&#xaa;" horiz-adv-x="413" 
d="M407 383q-20 -65 -50 -74l-98 -10q1 10 1.5 28.5t0.5 27.5v-29l1 4q-49 -31 -95 -31q-67 0 -108.5 48t-41.5 116q0 72 43.5 117t115.5 45q27 0 46 -8.5t39 -17.5l-4 8v-34q2 16 2 22q0 76 -85 76q-55 0 -133 -21q24 64 47.5 80.5t91.5 16.5q114 0 156 -64q31 -47 31 -155
q0 -17 -1 -54t-1 -56q0 -26 3 -30.5t39 -4.5zM260 466q0 80 -65 80q-66 0 -66 -81q0 -35 16 -58q18 -27 52 -27q63 0 63 86z" />
    <glyph glyph-name="guillemotleft" unicode="&#xab;" horiz-adv-x="469" 
d="M468 96h-124l-130 191l130 191h124l-124 -191zM276 96h-124l-130 191l130 191h124l-124 -191z" />
    <glyph glyph-name="logicalnot" unicode="&#xac;" horiz-adv-x="833" 
d="M724 161h-111v164h-504v111h615v-275z" />
    <glyph glyph-name="minus" unicode="&#xad;" horiz-adv-x="361" 
d="M328 393q-19 -75 -27 -91q-24 -47 -75 -47q-14 0 -44 1t-45 1q-41 0 -56 -3t-47 -19q15 78 24 94q21 40 80 40q16 0 47 -1t46 -1q46 0 97 26z" />
    <glyph glyph-name="minus" unicode="&#x2212;" horiz-adv-x="361" 
d="M328 393q-19 -75 -27 -91q-24 -47 -75 -47q-14 0 -44 1t-45 1q-41 0 -56 -3t-47 -19q15 78 24 94q21 40 80 40q16 0 47 -1t46 -1q46 0 97 26z" />
    <glyph glyph-name="registered" unicode="&#xae;" horiz-adv-x="822" 
d="M778 327q0 -108 -65 -202t-166 -135q-61 -25 -143 -25q-147 0 -253.5 109t-106.5 257q0 152 108 260t260 108q154 0 260 -108.5t106 -263.5zM700 331q0 120 -84 205.5t-204 85.5q-121 0 -205.5 -85t-84.5 -206q0 -120 84.5 -205t204.5 -85q118 0 203.5 85.5t85.5 204.5z
M646 216q0 -100 -98 -100q-69 0 -85 52q-7 47 -15 95q-12 52 -71 52l3 -105q1 -22 17 -28q1 -1 36 -6v-51h-220v52q30 0 38 3q17 6 17 30v254q0 23 -17 29q-4 1 -38 5v52h210q65 0 112 -23q59 -30 59 -88q0 -76 -101 -106q25 -12 45 -38t24 -52q2 -17 4 -35q5 -30 13 -31
q13 13 13 65h54v-26zM478 435q0 28 -19 45t-48 17q-31 0 -31 -19v-111h11q87 0 87 68z" />
    <glyph glyph-name="macron" unicode="&#xaf;" 
d="M400 672h-301v100h301v-100z" />
    <glyph glyph-name="macron" unicode="&#x2c9;" 
d="M400 672h-301v100h301v-100z" />
    <glyph glyph-name="degree" unicode="&#xb0;" horiz-adv-x="329" 
d="M324 568q0 -66 -47 -112.5t-113 -46.5q-68 0 -113 45.5t-45 113.5t45.5 114t113.5 46t113.5 -46t45.5 -114zM240 569q0 32 -21.5 53.5t-53.5 21.5q-31 0 -53.5 -22t-22.5 -53t23 -53.5t54 -22.5q33 0 53.5 21.5t20.5 54.5z" />
    <glyph glyph-name="plusminus" unicode="&#xb1;" horiz-adv-x="833" 
d="M724 330h-251v-163h-113v163h-251v111h251v163h113v-163h251v-111zM724 -8h-615v112h615v-112z" />
    <glyph glyph-name="twosuperior" unicode="&#xb2;" horiz-adv-x="370" 
d="M355 405q-29 -87 -51.5 -109t-80.5 -22q-10 0 -42 1t-54 1q-67 0 -116 -5v24q0 48 22 82q15 24 59 61q122 103 122 161q0 59 -64 59q-50 0 -107 -43q-14 20 -14 36q0 48 51 73q39 18 93 18q64 0 108 -35q48 -39 48 -101q0 -46 -36 -95q-28 -36 -81 -80q-40 -32 -81 -64
h87q67 0 137 38z" />
    <glyph glyph-name="threesuperior" unicode="&#xb3;" horiz-adv-x="370" 
d="M336 425q0 -72 -63 -117q-56 -41 -131 -41q-70 0 -130 44q27 42 56 42q11 0 32.5 -4.5t31.5 -4.5q39 0 63.5 22t24.5 60q0 78 -121 78q-10 0 -34 -9q6 25 21 59q6 6 65 26q43 15 43 48q0 40 -51 40q-24 0 -87 -25q0 11 2 16q-6 18 -6 28q0 57 114 57q56 0 93 -27
q41 -31 41 -85q0 -28 -13 -48q-8 -13 -35 -37q84 -28 84 -122z" />
    <glyph glyph-name="acute" unicode="&#xb4;" 
d="M416 830l-171 -205h-94l95 169q20 36 61 36h109z" />
    <glyph glyph-name="mu" unicode="&#xb5;" horiz-adv-x="578" 
d="M560 149q0 -13 -9 -46q-15 -55 -49 -90q-39 -40 -92 -40q-76 0 -94 70q-48 -70 -122 -70q-70 0 -106 57q-16 -120 -21 -139q-25 -111 -72 -111q-63 0 -63 64q0 27 34 140q31 102 52 201l56 262h132l-53 -246q-10 -46 -10 -69q0 -21 16 -34.5t37 -13.5q69 0 90 97l57 266
h133l-59 -276q-9 -42 -9 -60q0 -29 27 -29q30 0 54.5 48.5t44.5 48.5q26 0 26 -30z" />
    <glyph glyph-name="mu" unicode="&#x3bc;" horiz-adv-x="578" 
d="M560 149q0 -13 -9 -46q-15 -55 -49 -90q-39 -40 -92 -40q-76 0 -94 70q-48 -70 -122 -70q-70 0 -106 57q-16 -120 -21 -139q-25 -111 -72 -111q-63 0 -63 64q0 27 34 140q31 102 52 201l56 262h132l-53 -246q-10 -46 -10 -69q0 -21 16 -34.5t37 -13.5q69 0 90 97l57 266
h133l-59 -276q-9 -42 -9 -60q0 -29 27 -29q30 0 54.5 48.5t44.5 48.5q26 0 26 -30z" />
    <glyph glyph-name="paragraph" unicode="&#xb6;" 
d="M488 659h-57v-674h-93v674h-52v-674h-94v384q-76 0 -128 53.5t-52 129.5q0 87 61 138q57 47 145 47h270v-78z" />
    <glyph glyph-name="periodcentered" unicode="&#xb7;" horiz-adv-x="280" 
d="M223 361q0 -34 -24 -58.5t-59 -24.5q-34 0 -58.5 24.5t-24.5 58.5q0 35 24.5 59t58.5 24t58.5 -24.5t24.5 -58.5z" />
    <glyph glyph-name="periodcentered" unicode="&#x2219;" horiz-adv-x="280" 
d="M223 361q0 -34 -24 -58.5t-59 -24.5q-34 0 -58.5 24.5t-24.5 58.5q0 35 24.5 59t58.5 24t58.5 -24.5t24.5 -58.5z" />
    <glyph glyph-name="cedilla" unicode="&#xb8;" 
d="M398 -134q0 -112 -141 -112q-38 0 -141 24v84q61 -16 140 -23q37 -3 37 22q0 21 -24 25q-7 2 -39 2q2 0 -26 -11v138h73v-47h-5q126 0 126 -102z" />
    <glyph glyph-name="onesuperior" unicode="&#xb9;" horiz-adv-x="370" 
d="M349 345q-17 -71 -72 -71h-249q11 24 32 56q15 13 51 14q27 1 27 45v234q0 30 -20 30q-28 0 -92 -16q9 59 32 73q13 9 85 19q37 5 106 23q-2 -34 -2 -50v-313q0 -28 3 -34q5 -10 30 -10h69z" />
    <glyph glyph-name="ordmasculine" unicode="&#xba;" horiz-adv-x="398" 
d="M385 523q0 -96 -44 -156q-49 -68 -142 -68q-94 0 -143 67q-43 59 -43 157q0 97 43 157q49 67 143 67q92 0 142 -68q44 -61 44 -156zM268 523q0 144 -69 144t-69 -144q0 -143 69 -143t69 143z" />
    <glyph glyph-name="guillemotright" unicode="&#xbb;" horiz-adv-x="469" 
d="M448 287l-131 -191h-124l123 191l-123 191h124zM256 287l-131 -191h-124l124 191l-124 191h124z" />
    <glyph glyph-name="onequarter" unicode="&#xbc;" horiz-adv-x="873" 
d="M889 195q-18 -54 -27 -69q-22 -35 -60 -35h6q0 -26 6.5 -32t35.5 -6q-11 -38 -21 -50q-15 -18 -50 -18h-98q19 42 21 49q6 22 4 57h-80q-45 0 -64 8q-31 13 -31 52q0 61 62 146.5t121 110.5q35 15 90 15h32q-18 -27 -20 -31q-8 -15 -8 -37v-183h15q18 0 66 23zM703 746
q-192 -297 -410 -768q-39 0 -120 1q211 346 405 765q26 -3 52 -3q13 0 73 5zM335 371q-12 -39 -21 -51q-16 -18 -52 -18h-234q14 42 26 54t42 15q26 2 30 6.5t4 30.5v221q0 27 -19 27q-24 0 -88 -16q8 56 32 71q13 8 82 18q34 5 101 21q0 -11 -1.5 -34t-1.5 -35l1 -267
q0 -29 2 -33q5 -10 29 -10h68zM707 317q-89 -81 -89 -139q11 -6 31 -6h57z" />
    <glyph glyph-name="onehalf" unicode="&#xbd;" horiz-adv-x="873" 
d="M858 109q-21 -67 -34 -86q-27 -38 -81 -38q-17 0 -51.5 1t-51.5 1q-36 0 -110 -4v23q0 37 12.5 63t103.5 106q78 69 78 115q0 53 -61 53q-38 0 -115 -46q-1 -7 -1 41q0 46 49 69q37 17 89 17q60 0 104.5 -35t44.5 -93q0 -62 -69 -127q-58 -48 -117 -95h81q42 0 68 8
q17 5 61 27zM703 746q-192 -297 -410 -768q-39 0 -120 1q211 346 405 765q26 -3 52 -3q13 0 73 5zM335 371q-12 -39 -21 -51q-16 -18 -52 -18h-234q14 42 26 54t42 15q26 2 30 6.5t4 30.5v221q0 27 -19 27q-24 0 -88 -16q8 56 32 71q13 8 82 18q34 5 101 21q0 -11 -1.5 -34
t-1.5 -35l1 -267q0 -29 2 -33q5 -10 29 -10h68z" />
    <glyph glyph-name="threequarters" unicode="&#xbe;" horiz-adv-x="873" 
d="M889 195q-18 -54 -27 -69q-22 -35 -60 -35h6q0 -26 6.5 -32t35.5 -6q-11 -38 -21 -50q-15 -18 -50 -18h-98q19 42 21 49q6 22 4 57h-80q-45 0 -64 8q-31 13 -31 52q0 61 62 146.5t121 110.5q35 15 90 15h32q-18 -27 -20 -31q-8 -15 -8 -37v-183h15q18 0 66 23zM703 746
q-192 -297 -410 -768q-39 0 -120 1q211 346 405 765q26 -3 52 -3q13 0 73 5zM321 444q0 -68 -61 -110q-54 -39 -125 -39q-66 0 -124 42q28 41 54 41q10 0 30 -4t31 -4q36 0 59.5 19.5t23.5 54.5t-27.5 54t-64.5 19q-9 0 -27 -1t-27 -1q4 19 20 52q5 6 58 23q44 13 44 43
q0 36 -61 36q-22 0 -54 -17l-19 19q0 3 -1 9t-1 9q0 54 109 54q54 0 89 -25q40 -28 40 -80q0 -50 -46 -80q80 -30 80 -114zM707 317q-89 -83 -89 -139q11 -6 31 -6h57z" />
    <glyph glyph-name="questiondown" unicode="&#xbf;" horiz-adv-x="474" 
d="M376 736l-39 -99q-20 -51 -80 -51h-93l38 99q20 51 81 51h93zM424 87q0 -48 -74 -83q-62 -29 -117 -29q-75 0 -126.5 48t-51.5 122q0 61 45 125q20 29 84 97q45 48 45 68q0 15 -30 21l-44 4q17 54 29 68q20 25 67 25h76q15 -49 15 -75q0 -56 -71.5 -161.5t-71.5 -147.5
q0 -37 23 -60t60 -23q31 0 64 25q14 10 52 47q26 -48 26 -71z" />
    <glyph glyph-name="Agrave" unicode="&#xc0;" horiz-adv-x="616" 
d="M389 773h-94l-171 205h108q42 0 62 -35zM632 89q-17 -61 -31 -77q-21 -27 -76 -27h-132q22 66 22 107q0 29 -17 108h-224q-15 -47 -15 -83q0 -26 11 -31q5 -2 35 -2q-17 -58 -28 -73q-21 -26 -71 -26h-106q27 54 48 135q16 71 33 141q25 102 76 256q33 100 33 111t-17 15
q-13 1 -26 3q25 75 47 88q16 9 108 9q49 0 67 -12q40 -27 118 -302q43 -151 82 -315q3 -12 13 -18.5t50 -6.5zM373 302q-47 180 -88 305q-3 -14 -86 -305h174z" />
    <glyph glyph-name="Aacute" unicode="&#xc1;" horiz-adv-x="616" 
d="M457 978l-172 -205h-94l95 169q20 36 60 36h111zM635 89q-17 -61 -31 -77q-21 -27 -76 -27h-132q21 59 21 107q0 34 -16 108h-224q-15 -47 -15 -83q0 -26 11 -31q5 -2 35 -2q-17 -58 -28 -73q-21 -26 -71 -26h-106q30 60 57 169q21 88 43 177q1 4 49 158q41 128 41 139
q0 10 -17 14l-26 4q25 75 47 88q16 9 108 9q50 0 67 -12q61 -43 200 -617q3 -13 12.5 -19t50.5 -6zM373 302q-47 180 -88 305q-3 -14 -86 -305h174z" />
    <glyph glyph-name="Acircumflex" unicode="&#xc2;" horiz-adv-x="616" 
d="M461 773h-93l-78 101l-78 -101h-94l112 205h120zM632 89q-17 -61 -31 -77q-21 -27 -76 -27h-132q22 66 22 107q0 29 -17 108h-224q-15 -47 -15 -83q0 -26 11 -31q5 -2 35 -2q-17 -58 -28 -73q-21 -26 -71 -26h-106q27 54 48 135q16 71 33 141q25 102 76 256
q33 100 33 111t-17 15q-13 1 -26 3q25 75 47 88q16 9 108 9q49 0 67 -12q40 -27 118 -302q43 -151 82 -315q3 -12 13 -18.5t50 -6.5zM373 302q-47 180 -88 305q-3 -14 -86 -305h174z" />
    <glyph glyph-name="Atilde" unicode="&#xc3;" horiz-adv-x="616" 
d="M460 945q-35 -136 -116 -136q-21 0 -57 12t-53 12q-18 0 -35 -34h-78q15 61 34 89q29 43 80 43q21 0 57.5 -11.5t55.5 -11.5q21 0 33 37h79zM632 89q-17 -61 -31 -77q-21 -27 -76 -27h-132q22 66 22 107q0 29 -17 108h-224q-15 -47 -15 -83q0 -26 11 -31q5 -2 35 -2
q-17 -58 -28 -73q-21 -26 -71 -26h-106q27 54 48 135q16 71 33 141q25 102 76 256q33 100 33 111t-17 15q-13 1 -26 3q25 75 47 88q16 9 108 9q49 0 67 -12q40 -27 118 -302q43 -151 82 -315q3 -12 13 -18.5t50 -6.5zM373 302q-47 180 -88 305q-3 -14 -86 -305h174z" />
    <glyph glyph-name="Adieresis" unicode="&#xc4;" horiz-adv-x="616" 
d="M467 936l-31 -87q-16 -44 -72 -44h-82l31 86q16 45 72 45h82zM297 936l-31 -86q-16 -45 -73 -45h-81l31 86q16 45 72 45h82zM632 89q-17 -61 -31 -77q-21 -27 -76 -27h-132q22 66 22 107q0 29 -17 108h-224q-15 -47 -15 -83q0 -26 11 -31q5 -2 35 -2q-17 -58 -28 -73
q-21 -26 -71 -26h-106q27 54 48 135q16 71 33 141q25 102 76 256q33 100 33 111t-17 15q-13 1 -26 3q25 75 47 88q16 9 108 9q49 0 67 -12q40 -27 118 -302q43 -151 82 -315q3 -12 13 -18.5t50 -6.5zM375 302q-39 148 -61 240q-13 54 -23 84l-11 3q-10 -72 -35 -165
l-48 -162h178z" />
    <glyph glyph-name="Aring" unicode="&#xc5;" horiz-adv-x="616" 
d="M434 887q0 -60 -39 -100.5t-99 -40.5q-58 0 -98.5 41.5t-40.5 99.5q0 59 40 99.5t99 40.5q58 0 98 -40.5t40 -99.5zM628 88q-18 -62 -29 -76q-21 -27 -74 -27h-131q23 61 23 107q0 29 -17 108h-228q-15 -47 -15 -84q0 -22 13 -29q8 -4 34 -4q-21 -61 -29 -71
q-20 -27 -69 -27h-105q27 55 49 136l34 140q33 130 75 256q33 100 33 111q0 14 -45 18q31 76 51 88q16 9 105 9q49 0 65 -12q38 -28 113 -287q47 -164 86 -330q3 -13 12.5 -19.5t48.5 -6.5zM347 887q0 22 -14.5 35.5t-36.5 13.5t-37 -13.5t-15 -35.5q0 -21 15.5 -35
t37.5 -14q21 0 35.5 14t14.5 35zM375 302q-39 148 -61 240q-13 54 -23 84l-11 3q-10 -72 -35 -165l-48 -162h178z" />
    <glyph glyph-name="AE" unicode="&#xc6;" horiz-adv-x="881" 
d="M868 118q-20 -85 -32 -101q-24 -32 -99 -32h-361q31 65 31 119v232h-178q-91 -186 -91 -235q0 -6 2 -14q9 -4 35 -4q-16 -59 -26 -73q-20 -25 -71 -25h-119q24 39 75 159q73 174 175 375q47 93 47 105q0 6 -4 9l-38 7q15 65 41 83q22 14 88 14h521q-14 -82 -40 -108
t-109 -41q5 13 11 39q-10 10 -99 10h-42q-25 -4 -25 -25v-156h143q13 0 83 13q-24 -76 -46 -96.5t-75 -20.5q-11 0 -45.5 1t-59.5 1v-199q0 -43 11.5 -53t144.5 -10q95 0 152 26zM407 437v147q0 30 -4 44q-6 4 -18 4q-17 0 -63 -99l-45 -96h130z" />
    <glyph glyph-name="Ccedilla" unicode="&#xc7;" horiz-adv-x="528" 
d="M545 674q-28 -59 -63 -77q-26 -13 -100 -21q16 43 16 48q0 13 -20 20q-15 6 -30 6q-87 0 -127 -105q-28 -74 -28 -178q0 -284 173 -284q72 0 156 70q0 -7 1 -23v-23q0 -72 -61 -106q-49 -28 -127 -28v-5q121 0 121 -102q0 -112 -141 -112q-41 0 -141 24v84
q92 -23 140 -23q37 0 37 22q0 21 -23 26q-5 1 -40 1q-9 0 -26 -11v104q-121 28 -182 143q-51 96 -51 233q0 162 75 269q85 123 239 123q99 0 202 -75z" />
    <glyph glyph-name="Egrave" unicode="&#xc8;" horiz-adv-x="566" 
d="M382 773h-94l-171 205h108q42 0 62 -36zM553 118q-21 -81 -33 -98q-25 -35 -94 -35h-363q31 62 31 115v479q0 36 -15 46q-10 7 -51 11q13 61 29 78q20 23 78 23h414q-16 -83 -43 -109t-109 -42q7 13 16 40q-7 11 -55 11q-103 0 -109.5 -5t-6.5 -30v-146h145q32 0 81 18
q-20 -80 -40.5 -99.5t-98.5 -21.5q48 1 -87 1v-203q0 -38 12 -47q43 -12 109 -12h59q77 0 131 26z" />
    <glyph glyph-name="Eacute" unicode="&#xc9;" horiz-adv-x="566" 
d="M449 978l-171 -205h-93l94 169q20 36 60 36h110zM553 118q-21 -81 -33 -98q-25 -35 -94 -35h-363q31 62 31 115v479q0 36 -15 46q-10 7 -51 11q13 61 29 78q20 23 78 23h414q-16 -83 -43 -109t-109 -42q7 13 16 40q-7 11 -55 11q-103 0 -109.5 -5t-6.5 -30v-146h145
q32 0 81 18q-20 -80 -40.5 -99.5t-98.5 -21.5q48 1 -87 1v-203q0 -38 12 -47q43 -12 109 -12h59q77 0 131 26z" />
    <glyph glyph-name="Ecircumflex" unicode="&#xca;" horiz-adv-x="566" 
d="M454 773h-93l-78 101l-78 -101h-94l112 205h120zM553 118q-21 -81 -33 -98q-25 -35 -94 -35h-363q31 62 31 115v479q0 36 -15 46q-10 7 -51 11q13 61 29 78q20 23 78 23h414q-16 -83 -43 -109t-109 -42q7 13 16 40q-7 11 -55 11q-103 0 -109.5 -5t-6.5 -30v-146h145
q32 0 81 18q-20 -80 -40.5 -99.5t-98.5 -21.5q48 1 -87 1v-203q0 -38 12 -47q43 -12 109 -12h59q77 0 131 26z" />
    <glyph glyph-name="Edieresis" unicode="&#xcb;" horiz-adv-x="566" 
d="M460 936l-31 -87q-16 -44 -72 -44h-82l31 86q16 45 72 45h82zM290 936l-31 -86q-16 -45 -73 -45h-81l31 86q16 45 72 45h82zM553 118q-21 -81 -33 -98q-25 -35 -94 -35h-363q31 62 31 115v479q0 36 -15 46q-10 7 -51 11q13 61 29 78q20 23 78 23h414q-16 -83 -43 -109
t-109 -42q7 13 16 40q-7 11 -55 11q-103 0 -109.5 -5t-6.5 -30v-146h145q32 0 81 18q-20 -80 -40.5 -99.5t-98.5 -21.5q48 1 -87 1v-203q0 -38 12 -47q43 -12 109 -12h59q77 0 131 26z" />
    <glyph glyph-name="Igrave" unicode="&#xcc;" horiz-adv-x="336" 
d="M267 773h-94l-171 205h108q42 0 62 -35zM307 85q-20 -61 -29 -73q-20 -27 -70 -27h-146q32 67 32 121v471q0 39 -11.5 49t-52.5 14q13 50 23 66q20 33 57 33q110 0 165 -1q-33 -66 -33 -129v-463q0 -41 14 -52q11 -9 51 -9z" />
    <glyph glyph-name="Iacute" unicode="&#xcd;" horiz-adv-x="336" 
d="M334 978l-171 -205h-94l95 169q20 36 61 36h109zM307 85q-20 -61 -29 -73q-20 -27 -70 -27h-146q32 67 32 121v471q0 39 -11.5 49t-52.5 14q13 50 23 66q20 33 57 33q110 0 165 -1q-33 -66 -33 -129v-463q0 -41 14 -52q11 -9 51 -9z" />
    <glyph glyph-name="Icircumflex" unicode="&#xce;" horiz-adv-x="336" 
d="M339 773h-93l-78 101l-78 -101h-94l112 205h120zM307 85q-20 -61 -29 -73q-20 -27 -70 -27h-146q32 67 32 121v471q0 39 -11.5 49t-52.5 14q13 50 23 66q20 33 57 33q110 0 165 -1q-33 -66 -33 -129v-463q0 -41 14 -52q11 -9 51 -9z" />
    <glyph glyph-name="Idieresis" unicode="&#xcf;" horiz-adv-x="336" 
d="M345 936l-31 -87q-16 -44 -72 -44h-82l31 86q16 45 72 45h82zM175 936l-31 -86q-16 -45 -73 -45h-81l31 86q16 45 72 45h82zM307 85q-20 -61 -29 -73q-20 -27 -70 -27h-146q32 67 32 121v471q0 39 -11.5 49t-52.5 14q13 50 23 66q20 33 57 33q110 0 165 -1
q-33 -66 -33 -129v-463q0 -41 14 -52q11 -9 51 -9z" />
    <glyph glyph-name="Eth" unicode="&#xd0;" horiz-adv-x="678" 
d="M649 357q0 -172 -73 -270q-83 -112 -252 -112q-39 0 -99 5q-89 7 -98 8q-16 -2 -49 -2q30 63 30 115v243h-91v93h91v145q0 36 -12 45q-9 6 -49 10q6 57 36 79q24 18 84 25q45 5 109 5q75 0 125 -9q132 -24 195 -138q53 -96 53 -242zM491 362q0 108 -33 185
q-44 105 -138 105q-39 0 -53 -21q-11 -16 -11 -56v-138h116v-93h-116v-189q0 -44 11 -63q15 -24 56 -24q92 0 136 108q32 79 32 186z" />
    <glyph glyph-name="Ntilde" unicode="&#xd1;" horiz-adv-x="701" 
d="M521 945q-35 -136 -116 -136q-21 0 -57 12t-53 12q-18 0 -35 -34h-78q15 61 34 89q29 43 80 43q21 0 57.5 -11.5t55.5 -11.5q21 0 33 37h79zM678 83q-12 -57 -29 -75q-21 -23 -76 -23h-123l12 26q-1 5 -3 13.5t-3.5 11.5t-5.5 9q-86 150 -253 451v-339q0 -47 16 -60
q13 -11 59 -11q-16 -59 -29 -76q-22 -25 -75 -25h-101q27 56 27 128v465q0 38 -13.5 48t-50.5 10q15 61 29 77q20 24 75 24h110v-14q-1 -9 -1 -14q0 -10 16 -39l237 -429l12 -27v342q0 53 -12 64.5t-65 11.5q14 62 28 80q21 25 78 25h115q-26 -33 -33.5 -58.5t-7.5 -71.5
v-448q0 -48 10 -60q12 -16 57 -16z" />
    <glyph glyph-name="Ograve" unicode="&#xd2;" horiz-adv-x="665" 
d="M432 773h-94l-171 205h108q42 0 62 -35zM636 361q0 -158 -71 -264q-82 -124 -233 -124q-152 0 -234 123q-69 105 -69 265q0 159 70 265q82 123 233 123t233 -123q71 -106 71 -265zM471 361q0 287 -139 287q-82 0 -117 -110q-22 -71 -22 -177q0 -105 22 -176
q35 -111 117 -111t116 111q23 71 23 176z" />
    <glyph glyph-name="Oacute" unicode="&#xd3;" horiz-adv-x="665" 
d="M500 978l-172 -205h-94l95 169q20 36 60 36h111zM636 361q0 -158 -71 -264q-82 -124 -233 -124q-152 0 -234 123q-69 105 -69 265q0 159 70 265q82 123 233 123t233 -123q71 -106 71 -265zM471 361q0 287 -139 287q-82 0 -117 -110q-22 -71 -22 -177q0 -105 22 -176
q35 -111 117 -111t116 111q23 71 23 176z" />
    <glyph glyph-name="Ocircumflex" unicode="&#xd4;" horiz-adv-x="665" 
d="M504 773h-93l-78 101l-78 -101h-94l112 205h120zM636 361q0 -158 -71 -264q-82 -124 -233 -124q-152 0 -234 123q-69 105 -69 265q0 159 70 265q82 123 233 123t233 -123q71 -106 71 -265zM471 361q0 287 -139 287q-82 0 -117 -110q-22 -71 -22 -177q0 -105 22 -176
q35 -111 117 -111t116 111q23 71 23 176z" />
    <glyph glyph-name="Otilde" unicode="&#xd5;" horiz-adv-x="665" 
d="M503 945q-35 -136 -116 -136q-21 0 -57.5 12t-52.5 12q-19 0 -35 -34h-77q30 132 114 132q20 0 56.5 -11.5t55.5 -11.5q21 0 33 37h79zM636 361q0 -158 -71 -264q-82 -124 -233 -124q-152 0 -234 123q-69 105 -69 265q0 159 70 265q82 123 233 123t233 -123
q71 -106 71 -265zM471 361q0 287 -139 287q-82 0 -117 -110q-22 -71 -22 -177q0 -105 22 -176q35 -111 117 -111t116 111q23 71 23 176z" />
    <glyph glyph-name="Odieresis" unicode="&#xd6;" horiz-adv-x="665" 
d="M510 936l-31 -87q-16 -44 -72 -44h-82l31 86q16 45 72 45h82zM340 936l-31 -86q-16 -45 -73 -45h-81l31 86q16 45 72 45h82zM636 361q0 -158 -71 -264q-82 -124 -233 -124q-152 0 -234 123q-69 105 -69 265q0 159 70 265q82 123 233 123t233 -123q71 -106 71 -265z
M471 361q0 287 -139 287q-82 0 -117 -110q-22 -71 -22 -177q0 -105 22 -176q35 -111 117 -111t116 111q23 71 23 176z" />
    <glyph glyph-name="multiply" unicode="&#xd7;" horiz-adv-x="833" 
d="M725 75l-78 -82l-226 226l-224 -226l-78 82l223 223l-224 226l80 78l223 -224l225 224l79 -78l-224 -226z" />
    <glyph glyph-name="Oslash" unicode="&#xd8;" horiz-adv-x="665" 
d="M639 749l-78 -116q74 -103 74 -274q0 -161 -71 -265q-82 -121 -236 -121q-89 0 -164 54l-36 -54h-104l81 115q-76 111 -76 279q0 157 71 262q82 120 232 120q86 0 165 -53l35 53h107zM428 594q-40 57 -98 57q-85 0 -122 -110q-24 -73 -24 -180q0 -62 15 -131
q111 165 229 364zM479 338q0 82 -14 156q-105 -156 -230 -364q36 -59 100 -59q79 0 117 101q27 72 27 166z" />
    <glyph glyph-name="Ugrave" unicode="&#xd9;" horiz-adv-x="672" 
d="M435 773h-94l-171 205h108q42 0 62 -35zM629 737q-31 -59 -29 -124q7 -228 7 -260q0 -379 -269 -379q-148 0 -217 129q-53 101 -53 264q0 38 4.5 112.5t4.5 111.5q0 29 -18 39q-8 4 -45 10q16 58 32 74q21 23 75 23h155q-57 -135 -57 -364q0 -292 148 -292q144 0 144 304
q0 101 -2 129q-9 96 -41 114q-17 10 -51 12q15 57 26 72q19 25 69 25h117z" />
    <glyph glyph-name="Uacute" unicode="&#xda;" horiz-adv-x="672" 
d="M502 978l-171 -205h-94l95 169q20 36 61 36h109zM629 737q-31 -59 -29 -124q7 -228 7 -260q0 -379 -269 -379q-148 0 -217 129q-53 101 -53 264q0 38 4.5 112.5t4.5 111.5q0 29 -18 39q-8 4 -45 10q16 58 32 74q21 23 75 23h155q-57 -135 -57 -364q0 -292 148 -292
q144 0 144 304q0 101 -2 129q-9 96 -41 114q-17 10 -51 12q15 57 26 72q19 25 69 25h117z" />
    <glyph glyph-name="Ucircumflex" unicode="&#xdb;" horiz-adv-x="672" 
d="M507 773h-93l-78 101l-78 -101h-93l111 205h120zM629 737q-31 -59 -29 -124q7 -228 7 -260q0 -379 -269 -379q-148 0 -217 129q-53 101 -53 264q0 38 4.5 112.5t4.5 111.5q0 29 -18 39q-8 4 -45 10q16 58 32 74q21 23 75 23h155q-57 -135 -57 -364q0 -292 148 -292
q144 0 144 304q0 101 -2 129q-9 96 -41 114q-17 10 -51 12q15 57 26 72q19 25 69 25h117z" />
    <glyph glyph-name="Udieresis" unicode="&#xdc;" horiz-adv-x="672" 
d="M513 936l-31 -87q-16 -44 -72 -44h-82l31 86q16 45 72 45h82zM343 936l-31 -86q-16 -45 -73 -45h-81l31 86q16 45 72 45h82zM629 737q-31 -59 -29 -124q7 -228 7 -260q0 -379 -269 -379q-148 0 -217 129q-53 101 -53 264q0 38 4.5 112.5t4.5 111.5q0 29 -18 39
q-8 4 -45 10q16 58 32 74q21 23 75 23h155q-57 -135 -57 -364q0 -292 148 -292q144 0 144 304q0 101 -2 129q-9 96 -41 114q-17 10 -51 12q15 57 26 72q19 25 69 25h117z" />
    <glyph glyph-name="Yacute" unicode="&#xdd;" horiz-adv-x="506" 
d="M419 978l-171 -205h-94l95 169q20 36 61 36h109zM547 737q-36 -58 -56 -103l-156 -347v-134q0 -44 11 -56t54 -12q-18 -58 -30 -72q-21 -28 -70 -28h-145q32 73 32 121v182l-145 292q-18 37 -35.5 46.5t-60.5 9.5q16 60 32 77q22 24 77 24h108q-12 -22 -12 -36t20 -55
q40 -78 113 -238q24 55 49 109q38 88 38 106q0 5 -3 8q-24 4 -50 6q20 61 34 76q22 24 77 24h118z" />
    <glyph glyph-name="Thorn" unicode="&#xde;" horiz-adv-x="577" 
d="M555 398q0 -106 -63 -174q-64 -71 -169 -71q-37 0 -82 20v-25q0 -44 14 -54q11 -7 59 -7q-16 -59 -27 -75q-21 -27 -72 -27h-150q28 68 28 129v461q0 40 -12 52t-53 15q13 53 36 74t75 21h135q-20 -41 -23 -53t-8 -62q24 5 76 5q105 0 170.5 -62.5t65.5 -166.5zM401 400
q0 53 -21 91q-26 46 -75 46q-42 0 -56 -27q-9 -19 -9 -66v-67q0 -126 67 -126q50 0 75 53q19 40 19 96z" />
    <glyph glyph-name="germandbls" unicode="&#xdf;" horiz-adv-x="638" 
d="M626 143q0 -78 -53.5 -124t-133.5 -46q-124 0 -212 96q15 49 39 68q20 16 74 28q0 -99 87 -99q28 0 48.5 16t20.5 43q0 31 -62 88q-105 96 -116 109q-62 69 -62 129q0 45 27 75q25 22 51 44q27 26 27 61q0 41 -10 58q-14 24 -53 24q-40 0 -55 -20.5t-15 -63.5v-644h-166
q30 60 30 122v376h-10q-32 0 -76 -18q12 41 17 54q14 41 22 50q16 17 46 17q3 121 39 169q43 58 160 58q99 0 146 -40q51 -43 51 -139q0 -47 -25 -82q-9 -13 -47 -49q-25 -23 -25 -42q0 -28 61 -81q94 -80 114 -102q61 -69 61 -135z" />
    <glyph glyph-name="agrave" unicode="&#xe0;" horiz-adv-x="550" 
d="M374 625h-94l-171 205h108q42 0 62 -35zM536 79q-17 -53 -27 -66q-19 -27 -62 -29q-17 1 -50 -2l-49 -10q5 60 5 72v-24l-4 -1q-66 -45 -127 -45q-91 0 -145 70q-50 64 -50 157q0 100 55 162.5t153 62.5q35 0 59 -10q13 -5 53 -29l1 3v-32q1 10 1 30q0 117 -132 117
q-46 0 -152 -25q27 81 57 100.5t118 19.5q132 0 190 -68q52 -62 52 -195v-200q0 -40 8.5 -49t45.5 -9zM351 206q0 120 -91 120q-93 0 -93 -122q0 -49 22 -85q26 -43 72 -43q48 0 72 44q18 34 18 86z" />
    <glyph glyph-name="aacute" unicode="&#xe1;" horiz-adv-x="550" 
d="M441 830l-171 -205h-94l95 169q20 36 61 36h109zM536 79q-17 -53 -27 -66q-19 -27 -62 -29q-17 1 -50 -2l-49 -10q5 60 5 72v-24l-4 -1q-66 -45 -127 -45q-91 0 -145 70q-50 64 -50 157q0 100 55 162.5t153 62.5q35 0 59 -10q13 -5 53 -29l1 3v-32q1 10 1 30
q0 117 -132 117q-46 0 -152 -25q27 81 57 100.5t118 19.5q132 0 190 -68q52 -62 52 -195v-200q0 -40 8.5 -49t45.5 -9zM351 206q0 120 -91 120q-93 0 -93 -122q0 -49 22 -85q26 -43 72 -43q48 0 72 44q18 34 18 86z" />
    <glyph glyph-name="acircumflex" unicode="&#xe2;" horiz-adv-x="550" 
d="M446 625h-93l-78 101l-78 -101h-94l112 205h120zM536 79q-17 -53 -27 -66q-19 -27 -62 -29q-17 1 -50 -2l-49 -10q5 60 5 72v-24l-4 -1q-66 -45 -127 -45q-91 0 -145 70q-50 64 -50 157q0 100 55 162.5t153 62.5q35 0 59 -10q13 -5 53 -29l1 3v-32q1 10 1 30
q0 117 -132 117q-46 0 -152 -25q27 81 57 100.5t118 19.5q132 0 190 -68q52 -62 52 -195v-200q0 -40 8.5 -49t45.5 -9zM351 206q0 120 -91 120q-93 0 -93 -122q0 -49 22 -85q26 -43 72 -43q48 0 72 44q18 34 18 86z" />
    <glyph glyph-name="atilde" unicode="&#xe3;" horiz-adv-x="550" 
d="M445 797q-35 -136 -116 -136q-21 0 -57.5 12t-52.5 12q-20 0 -35 -34h-78q15 61 34 89q29 43 80 43q20 0 57 -11.5t56 -11.5q20 0 32 37h80zM536 79q-17 -53 -27 -66q-19 -27 -62 -29q-17 1 -50 -2l-49 -10q5 60 5 72v-24l-4 -1q-66 -45 -127 -45q-91 0 -145 70
q-50 64 -50 157q0 100 55 162.5t153 62.5q35 0 59 -10q13 -5 53 -29l1 3v-32q1 10 1 30q0 117 -132 117q-46 0 -152 -25q27 81 57 100.5t118 19.5q132 0 190 -68q52 -62 52 -195v-200q0 -40 8.5 -49t45.5 -9zM351 206q0 120 -91 120q-93 0 -93 -122q0 -49 22 -85
q26 -43 72 -43q48 0 72 44q18 34 18 86z" />
    <glyph glyph-name="adieresis" unicode="&#xe4;" horiz-adv-x="550" 
d="M452 788l-31 -86q-16 -45 -72 -45h-82l31 86q16 45 72 45h82zM282 788l-31 -86q-16 -45 -73 -45h-81l31 86q16 45 72 45h82zM536 79q-17 -53 -27 -66q-19 -27 -62 -29q-17 1 -50 -2l-49 -10q5 60 5 72v-24l-4 -1q-66 -45 -127 -45q-91 0 -145 70q-50 64 -50 157
q0 100 55 162.5t153 62.5q35 0 59 -10q13 -5 53 -29l1 3v-32q1 10 1 30q0 117 -132 117q-46 0 -152 -25q27 81 57 100.5t118 19.5q132 0 190 -68q52 -62 52 -195v-200q0 -40 8.5 -49t45.5 -9zM351 206q0 120 -91 120q-93 0 -93 -122q0 -49 22 -85q26 -43 72 -43q48 0 72 44
q18 34 18 86z" />
    <glyph glyph-name="aring" unicode="&#xe5;" horiz-adv-x="550" 
d="M407 744q0 -58 -41 -99.5t-100 -41.5q-61 0 -100.5 40t-39.5 101t40 100.5t100 39.5q59 0 100 -40.5t41 -99.5zM536 79q-19 -59 -39 -79q-15 -15 -43 -15h-11q-8 1 -12 1q-44 0 -83 -22q6 52 5 60q-60 -49 -131 -49q-92 0 -146 68q-49 63 -49 158q0 98 56 161.5t152 63.5
q35 0 59 -10q13 -5 53 -29l1 3v-32q1 10 1 30q0 117 -132 117q-46 0 -152 -25q27 81 57 100.5t118 19.5q133 0 190 -68q52 -62 52 -195v-200q0 -40 8.5 -49t45.5 -9zM315 743q0 49 -49 49q-22 0 -35.5 -14t-13.5 -36q0 -48 50 -48q20 0 34 14.5t14 34.5zM351 206
q0 120 -91 120q-93 0 -93 -122q0 -49 22 -85q26 -43 72 -43q48 0 72 44q18 34 18 86z" />
    <glyph glyph-name="ae" unicode="&#xe6;" horiz-adv-x="835" 
d="M837 38q-103 -63 -209 -63q-145 0 -216 108q-27 -49 -76.5 -78.5t-105.5 -29.5q-95 0 -151 66q-52 63 -52 159t53 159q56 67 150 67q51 0 117 -38l1 2v-32q1 10 1 30q0 117 -132 117q-46 0 -152 -25q26 82 58 102q27 18 117 18q143 0 194 -79q64 79 172 79q54 0 93 -20
q31 -17 74 -61q18 -19 53 -48q-16 -89 -43 -130q-32 -48 -109 -82l-162 -71q40 -111 144 -111q20 0 58 9t57 9q33 0 66 -57zM676 427q0 31 -22.5 53t-52.5 22q-58 0 -91 -63q-26 -51 -26 -115q0 1 3 -35l115 49q74 32 74 89zM351 206q0 120 -91 120q-93 0 -93 -122
q0 -50 22 -85q25 -42 72 -42q90 0 90 129z" />
    <glyph glyph-name="ccedilla" unicode="&#xe7;" horiz-adv-x="461" 
d="M479 73q-80 -103 -177 -103v0q121 0 121 -104q0 -112 -141 -112q-41 0 -141 24v84q60 -15 140 -23q37 -4 37 22q0 20 -24 25q-8 2 -39 2q-4 0 -26 -11v101q-102 18 -158 111q-49 81 -49 192q0 132 67 221q75 99 202 99q87 0 188 -68q-37 -67 -50 -78q-24 -21 -88 -21
q0 5 1 14.5t1 13.5q0 21 -21 33q-17 10 -39 10q-62 0 -93 -79q-23 -59 -23 -132q0 -81 26 -139q35 -76 106 -76q25 0 69 18t55 18q20 0 56 -42z" />
    <glyph glyph-name="egrave" unicode="&#xe8;" horiz-adv-x="513" 
d="M374 625h-95l-171 205h108q42 0 62 -35zM515 38q-107 -64 -211 -64q-132 0 -209 98q-71 91 -71 227q0 123 66 208q72 93 191 93q100 0 166 -76q24 -27 26 -29q14 -15 31 -24q-16 -90 -43 -130q-32 -48 -109 -82l-163 -72q41 -109 143 -109q20 0 57.5 9.5t56.5 9.5
q34 0 69 -59zM354 426q0 31 -22 53.5t-53 22.5q-56 0 -89 -58q-28 -49 -28 -109q0 -31 2 -46l115 49q75 32 75 88z" />
    <glyph glyph-name="eacute" unicode="&#xe9;" horiz-adv-x="513" 
d="M440 830l-171 -205h-94l95 169q20 36 61 36h109zM515 38q-107 -64 -211 -64q-132 0 -209 98q-71 91 -71 227q0 123 66 208q72 93 191 93q100 0 166 -76q24 -27 26 -29q14 -15 31 -24q-16 -90 -43 -130q-32 -48 -109 -82l-163 -72q41 -109 143 -109q20 0 57.5 9.5
t56.5 9.5q34 0 69 -59zM354 426q0 31 -22 53.5t-53 22.5q-56 0 -89 -58q-28 -49 -28 -109q0 -31 2 -46l115 49q75 32 75 88z" />
    <glyph glyph-name="ecircumflex" unicode="&#xea;" horiz-adv-x="513" 
d="M445 625h-92l-79 101l-78 -101h-94l112 205h120zM515 38q-107 -64 -211 -64q-132 0 -209 98q-71 91 -71 227q0 123 66 208q72 93 191 93q100 0 166 -76q24 -27 26 -29q14 -15 31 -24q-16 -90 -43 -130q-32 -48 -109 -82l-163 -72q41 -109 143 -109q20 0 57.5 9.5
t56.5 9.5q34 0 69 -59zM354 426q0 31 -22 53.5t-53 22.5q-56 0 -89 -58q-28 -49 -28 -109q0 -31 2 -46l115 49q75 32 75 88z" />
    <glyph glyph-name="edieresis" unicode="&#xeb;" horiz-adv-x="513" 
d="M451 788l-31 -86q-16 -45 -72 -45h-82l31 86q16 45 72 45h82zM281 788l-31 -86q-16 -45 -73 -45h-81l31 86q16 45 72 45h82zM515 38q-107 -64 -211 -64q-132 0 -209 98q-71 91 -71 227q0 123 66 208q72 93 191 93q100 0 166 -76q24 -27 26 -29q14 -15 31 -24
q-16 -90 -43 -130q-32 -48 -109 -82l-163 -72q41 -109 143 -109q20 0 57.5 9.5t56.5 9.5q34 0 69 -59zM354 426q0 31 -22 53.5t-53 22.5q-56 0 -89 -58q-28 -49 -28 -109q0 -31 2 -46l115 49q75 32 75 88z" />
    <glyph glyph-name="igrave" unicode="&#xec;" horiz-adv-x="292" 
d="M245 625h-94l-171 205h108q42 0 62 -35zM271 81q-15 -52 -30 -69q-22 -27 -68 -27h-125q29 60 29 113v331q0 38 -9 50t-48 15q18 54 28 67q21 28 64 28h134q-32 -52 -32 -124v-323q0 -37 9 -47q10 -14 48 -14z" />
    <glyph glyph-name="iacute" unicode="&#xed;" horiz-adv-x="292" 
d="M312 830l-171 -205h-94l95 169q20 36 61 36h109zM271 81q-15 -52 -30 -69q-22 -27 -68 -27h-125q29 60 29 113v331q0 38 -9 50t-48 15q18 54 28 67q21 28 64 28h134q-32 -52 -32 -124v-323q0 -37 9 -47q10 -14 48 -14z" />
    <glyph glyph-name="icircumflex" unicode="&#xee;" horiz-adv-x="292" 
d="M317 625h-93l-78 101l-78 -101h-94l112 205h120zM271 81q-15 -52 -30 -69q-22 -27 -68 -27h-125q29 60 29 113v331q0 38 -9 50t-48 15q18 54 28 67q21 28 64 28h134q-32 -52 -32 -124v-323q0 -37 9 -47q10 -14 48 -14z" />
    <glyph glyph-name="idieresis" unicode="&#xef;" horiz-adv-x="292" 
d="M323 788l-31 -86q-16 -45 -72 -45h-82l31 86q16 45 72 45h82zM153 788l-31 -86q-16 -45 -73 -45h-81l31 86q16 45 72 45h82zM271 81q-15 -52 -30 -69q-22 -27 -68 -27h-125q29 60 29 113v331q0 38 -9 50t-48 15q18 54 28 67q21 28 64 28h134q-32 -52 -32 -124v-323
q0 -37 9 -47q10 -14 48 -14z" />
    <glyph glyph-name="eth" unicode="&#xf0;" horiz-adv-x="530" 
d="M503 259q0 -123 -55 -199q-62 -86 -180 -86q-119 0 -183 87q-58 77 -58 200q0 110 53 189q61 90 167 90q56 0 66 -6q-8 24 -29 67l-96 -49l-37 79l90 46q-37 46 -76 81l58 64q76 -53 113 -98l106 55l42 -76l-96 -50q115 -195 115 -394zM361 257q0 186 -96 186
q-54 0 -79 -69q-17 -48 -17 -114q0 -189 96 -189t96 186z" />
    <glyph glyph-name="ntilde" unicode="&#xf1;" horiz-adv-x="582" 
d="M461 797q-17 -61 -36 -90q-30 -46 -80 -46q-21 0 -57.5 12t-52.5 12q-20 0 -35 -34h-77q30 132 113 132q21 0 57.5 -11.5t55.5 -11.5q20 0 32 37h80zM571 81q-17 -56 -26 -69q-20 -27 -67 -27h-131q30 62 30 115v287q0 113 -76 113q-86 0 -86 -128v-227q0 -40 9 -52
t48 -12q-15 -51 -29 -69q-21 -27 -65 -27h-129q29 68 29 124v334q0 21 -6 39q-6 7 -48 11q16 64 37 83q16 14 56 15q59 2 96 11l-6 -49v6q66 42 126 42q104 0 148 -75q33 -58 33 -169v-217q0 -39 10 -49t47 -10z" />
    <glyph glyph-name="ograve" unicode="&#xf2;" horiz-adv-x="530" 
d="M364 625h-93l-172 205h108q42 0 62 -35zM508 287q0 -133 -54 -215q-63 -99 -189 -99q-125 0 -189 99q-54 83 -54 215t54 215q64 99 189 99q127 0 190 -98q53 -82 53 -216zM362 287q0 212 -97 212q-57 0 -81 -83q-16 -53 -16 -129q0 -211 97 -211t97 211z" />
    <glyph glyph-name="oacute" unicode="&#xf3;" horiz-adv-x="530" 
d="M431 830l-171 -205h-94l95 169q20 36 61 36h109zM508 287q0 -133 -54 -215q-63 -99 -189 -99q-125 0 -189 99q-54 83 -54 215t54 215q64 99 189 99q127 0 190 -98q53 -82 53 -216zM362 287q0 212 -97 212q-57 0 -81 -83q-16 -53 -16 -129q0 -211 97 -211t97 211z" />
    <glyph glyph-name="ocircumflex" unicode="&#xf4;" horiz-adv-x="530" 
d="M437 625h-94l-78 101l-78 -101h-94l112 205h120zM508 287q0 -133 -54 -215q-63 -99 -189 -99q-125 0 -189 99q-54 83 -54 215t54 215q64 99 189 99q127 0 190 -98q53 -82 53 -216zM362 287q0 212 -97 212q-57 0 -81 -83q-16 -53 -16 -129q0 -211 97 -211t97 211z" />
    <glyph glyph-name="otilde" unicode="&#xf5;" horiz-adv-x="530" 
d="M436 797q-35 -136 -117 -136q-21 0 -57.5 12t-52.5 12q-18 0 -35 -34h-78q30 132 115 132q20 0 56.5 -11.5t55.5 -11.5q21 0 32 37h81zM508 287q0 -133 -54 -215q-63 -99 -189 -99q-125 0 -189 99q-54 83 -54 215t54 215q64 99 189 99q127 0 190 -98q53 -82 53 -216z
M362 287q0 212 -97 212q-57 0 -81 -83q-16 -53 -16 -129q0 -211 97 -211t97 211z" />
    <glyph glyph-name="odieresis" unicode="&#xf6;" horiz-adv-x="530" 
d="M442 788l-31 -86q-16 -45 -72 -45h-82l31 86q16 45 72 45h82zM272 788l-31 -86q-16 -45 -73 -45h-81l31 86q16 45 72 45h82zM508 287q0 -133 -54 -215q-63 -99 -189 -99q-125 0 -189 99q-54 83 -54 215t54 215q64 99 189 99q127 0 190 -98q53 -82 53 -216zM362 287
q0 212 -97 212q-57 0 -81 -83q-16 -53 -16 -129q0 -211 97 -211t97 211z" />
    <glyph glyph-name="divide" unicode="&#xf7;" horiz-adv-x="833" 
d="M499 484q0 -35 -23.5 -58.5t-58.5 -23.5t-58.5 23t-23.5 58t23.5 59t57.5 24t58.5 -24t24.5 -58zM724 243h-615v111h615v-111zM499 113q0 -35 -23.5 -58.5t-58.5 -23.5t-58.5 23t-23.5 58t23.5 58.5t58.5 23.5q34 0 58 -23.5t24 -57.5z" />
    <glyph glyph-name="oslash" unicode="&#xf8;" horiz-adv-x="530" 
d="M512 606l-63 -98q58 -80 58 -217q0 -136 -53 -219q-64 -99 -192 -99q-74 0 -123 35l-25 -41h-97l64 99q-58 81 -58 230q0 128 57 210q66 95 188 95q69 0 121 -36l25 41h98zM327 470q-28 32 -60 32q-57 0 -84 -69q-19 -50 -19 -118q0 -86 7 -112q53 89 156 267zM366 329
q0 4 -6 43q-88 -143 -158 -267q29 -33 61 -33q103 0 103 208v49z" />
    <glyph glyph-name="ugrave" unicode="&#xf9;" horiz-adv-x="582" 
d="M390 625h-94l-171 205h108q42 0 62 -35zM559 82q-17 -62 -36 -83q-15 -15 -43 -15h-11q-7 1 -11 1q-44 0 -83 -21l2 57q-51 -48 -129 -48q-103 0 -146 74q-33 58 -33 170v217q0 40 -8 48.5t-48 11.5q15 53 27 69q20 26 65 26h130q-30 -73 -30 -128v-278q0 -109 77 -109
q86 0 86 128v227q0 38 -9 50t-48 15q19 55 29 68q20 27 65 27h132q-32 -51 -32 -126v-332q0 -34 8.5 -41.5t45.5 -7.5z" />
    <glyph glyph-name="uacute" unicode="&#xfa;" horiz-adv-x="582" 
d="M457 830l-171 -205h-94l95 169q20 36 61 36h109zM559 82q-17 -62 -36 -83q-15 -15 -43 -15h-11q-7 1 -11 1q-44 0 -83 -21l2 57q-51 -48 -129 -48q-103 0 -146 74q-33 58 -33 170v217q0 40 -8 48.5t-48 11.5q15 53 27 69q20 26 65 26h130q-30 -73 -30 -128v-278
q0 -109 77 -109q86 0 86 128v227q0 38 -9 50t-48 15q19 55 29 68q20 27 65 27h132q-32 -51 -32 -126v-332q0 -34 8.5 -41.5t45.5 -7.5z" />
    <glyph glyph-name="ucircumflex" unicode="&#xfb;" horiz-adv-x="582" 
d="M462 625h-93l-78 101l-78 -101h-94l112 205h120zM559 82q-17 -62 -36 -83q-15 -15 -43 -15h-11q-7 1 -11 1q-44 0 -83 -21l2 57q-51 -48 -129 -48q-103 0 -146 74q-33 58 -33 170v217q0 40 -8 48.5t-48 11.5q15 53 27 69q20 26 65 26h130q-30 -73 -30 -128v-278
q0 -109 77 -109q86 0 86 128v227q0 38 -9 50t-48 15q19 55 29 68q20 27 65 27h132q-32 -51 -32 -126v-332q0 -34 8.5 -41.5t45.5 -7.5z" />
    <glyph glyph-name="udieresis" unicode="&#xfc;" horiz-adv-x="582" 
d="M468 788l-31 -86q-16 -45 -72 -45h-82l31 86q16 45 72 45h82zM298 788l-31 -86q-16 -45 -73 -45h-81l31 86q16 45 72 45h82zM559 82q-17 -62 -36 -83q-15 -15 -43 -15h-11q-7 1 -11 1q-44 0 -83 -21l2 57q-51 -48 -129 -48q-103 0 -146 74q-33 58 -33 170v217
q0 40 -8 48.5t-48 11.5q15 53 27 69q20 26 65 26h130q-30 -73 -30 -128v-278q0 -109 77 -109q86 0 86 128v227q0 38 -9 50t-48 15q19 55 29 68q20 27 65 27h132q-32 -51 -32 -126v-332q0 -34 8.5 -41.5t45.5 -7.5z" />
    <glyph glyph-name="yacute" unicode="&#xfd;" horiz-adv-x="506" 
d="M419 830l-171 -205h-94l95 169q20 36 61 36h109zM549 589q-62 -133 -141 -323q-66 -164 -133 -327q-33 -80 -68 -117q-48 -49 -121 -49q-63 0 -139 32q14 35 21 45q16 23 41 23q10 0 29.5 -3t28.5 -3q82 0 131 148l-139 415q-14 41 -31.5 52t-60.5 11q19 56 32 71
q21 25 70 25h105q-7 -26 -7 -48q0 -23 6 -41q34 -103 99 -312l96 243q11 28 11 43q0 19 -65 23q16 53 29 69q20 23 68 23h138z" />
    <glyph glyph-name="thorn" unicode="&#xfe;" horiz-adv-x="584" 
d="M559 295q0 -128 -48 -212q-59 -103 -178 -103q-79 0 -129 44v-83q0 -43 8 -54t50 -15q-13 -51 -26 -67q-20 -24 -66 -24h-129q27 77 27 124v786q0 55 -26 112q17 1 50 1q60 0 84 -20t24 -78v-157q49 51 132 51q115 0 176 -100q51 -83 51 -205zM414 310q0 69 -20 119
q-27 70 -86 70t-86 -61q-20 -46 -20 -113v-63q0 -66 20 -114q28 -67 84 -67q108 0 108 229z" />
    <glyph glyph-name="ydieresis" unicode="&#xff;" horiz-adv-x="506" 
d="M430 788l-31 -86q-16 -45 -72 -45h-81l30 86q16 45 72 45h82zM260 788l-31 -86q-16 -45 -73 -45h-81l31 86q16 45 72 45h82zM549 589q-62 -133 -141 -323q-66 -164 -133 -327q-33 -80 -68 -117q-48 -49 -121 -49q-63 0 -139 32q14 35 21 45q16 23 41 23q10 0 29.5 -3
t28.5 -3q82 0 131 148l-139 415q-14 41 -31.5 52t-60.5 11q19 56 32 71q21 25 70 25h105q-7 -26 -7 -48q0 -23 6 -41q34 -103 99 -312l96 243q11 28 11 43q0 19 -65 23q16 53 29 69q20 23 68 23h138z" />
    <glyph glyph-name="OE" unicode="&#x152;" horiz-adv-x="955" 
d="M939 118q-15 -80 -31 -101q-25 -32 -97 -32h-327l7 55q-76 -67 -167 -67q-145 0 -226 127q-69 108 -69 261q0 159 71 265q81 123 232 123q93 0 159 -68l-7 56h452q-14 -81 -41 -107t-109 -44q8 13 16 44l-5 3q-19 4 -75 4q-81 0 -86 -5.5t-5 -18.5v-157h145q29 0 82 17
q-22 -82 -41 -100t-94 -20q51 1 -92 1v-201q0 -43 14 -51.5t166 -8.5q73 0 128 25zM490 361q0 109 -25 183q-38 110 -125 110q-88 0 -125 -110q-25 -73 -25 -183q0 -111 24 -183q38 -110 126 -110t125 111q25 73 25 182z" />
    <glyph glyph-name="oe" unicode="&#x153;" horiz-adv-x="852" 
d="M853 38q-104 -64 -206 -64q-133 0 -205 95q-63 -95 -181 -95q-122 0 -185 99q-54 83 -54 213q0 129 53 214q64 101 185 101q117 0 179 -90q71 90 182 90q65 0 111 -29q26 -17 61 -58q31 -35 50 -41q-19 -93 -43 -131q-31 -49 -109 -83l-163 -72q17 -49 55.5 -79.5
t88.5 -30.5q20 0 58 9t57 9q36 0 66 -57zM692 423q0 33 -21 56t-53 23q-54 0 -89 -59q-29 -50 -29 -108q0 -32 3 -47l115 50q74 32 74 85zM366 287q0 212 -100 212q-101 0 -101 -212q0 -210 100 -210q101 0 101 210z" />
    <glyph glyph-name="Scaron" unicode="&#x160;" horiz-adv-x="537" 
d="M440 978l-111 -205h-120l-112 205h94l78 -101l78 101h93zM513 172q0 -94 -77 -149q-68 -49 -167 -49q-145 0 -260 107q25 67 66 92q26 15 110 32q-29 -48 -29 -61q0 -30 39 -49q33 -17 66 -17q40 0 68 18q32 21 32 59q0 44 -79 111q-136 117 -147 128q-79 83 -79 165
q0 92 71 143q63 46 158 46q105 0 222 -80q-29 -68 -72 -92q-38 -21 -117 -21q40 36 40 51q0 21 -31 33q-24 9 -49 9q-31 0 -54 -15q-28 -17 -28 -47q0 -46 82 -115q144 -120 153 -130q82 -85 82 -169z" />
    <glyph glyph-name="scaron" unicode="&#x161;" horiz-adv-x="426" 
d="M384 830l-111 -205h-120l-111 205h93l78 -101l78 101h93zM409 142q0 -77 -56 -123t-134 -46q-117 0 -207 95q13 50 41 72q19 14 77 32v-29q0 -34 25 -55t59 -21q26 0 45 15.5t19 40.5q0 31 -61 93q-110 112 -112 114q-61 71 -61 125q0 66 45 106q44 37 111 37q22 0 65 -7
t65 -7q26 0 68 19q-13 -64 -24 -84q-22 -40 -72 -40q-11 0 -98 14q-14 2 -24 -7t-10 -23q0 -25 62 -78q91 -77 115 -105q62 -70 62 -138z" />
    <glyph glyph-name="Ydieresis" unicode="&#x178;" horiz-adv-x="506" 
d="M430 936l-31 -87q-16 -44 -72 -44h-82l31 86q16 45 72 45h82zM260 936l-31 -86q-16 -45 -73 -45h-81l31 86q16 45 72 45h82zM547 737q-36 -58 -56 -103l-156 -347v-134q0 -44 11 -56t54 -12q-18 -58 -30 -72q-21 -28 -70 -28h-145q32 73 32 121v182l-145 292
q-18 37 -35.5 46.5t-60.5 9.5q16 60 32 77q22 24 77 24h108q-12 -22 -12 -36t20 -55q40 -78 113 -238q24 55 49 109q38 88 38 106q0 5 -3 8q-24 4 -50 6q20 61 34 76q22 24 77 24h118z" />
    <glyph glyph-name="florin" unicode="&#x192;" horiz-adv-x="560" 
d="M564 733q-24 -54 -26 -57q-21 -36 -45 -36q-11 0 -33 3.5t-32 3.5q-40 0 -49 -62l-14 -100h25q42 0 93 27q-13 -42 -19 -58q-14 -39 -28 -53q-20 -20 -86 -20l-47 -350q-25 -188 -156 -188q-26 0 -72 14t-64 14h-16q-11 1 -16 1q17 43 23 53q18 28 46 28q10 0 30 -2.5
t29 -2.5q42 0 51 68l48 365h-7q-30 0 -76 -22q23 89 38 107.5t58 18.5q16 115 17 119q14 69 44 103q38 44 108 44q16 0 78 -16q57 -16 65 -13z" />
    <glyph glyph-name="circumflex" unicode="&#x2c6;" 
d="M421 625h-93l-78 101l-78 -101h-94l112 205h120z" />
    <glyph glyph-name="tilde" unicode="&#x2dc;" 
d="M420 797q-35 -136 -116 -136q-21 0 -57.5 12t-52.5 12q-20 0 -35 -34h-78q15 60 34 89q29 43 80 43q20 0 57 -11.5t56 -11.5q20 0 32 37h80z" />
    <glyph glyph-name="endash" unicode="&#x2013;" 
d="M515 253h-530v99h530v-99z" />
    <glyph glyph-name="emdash" unicode="&#x2014;" horiz-adv-x="1000" 
d="M1015 253h-1030v99h1030v-99z" />
    <glyph glyph-name="quoteleft" unicode="&#x2018;" horiz-adv-x="279" 
d="M247 756q-12 -24 -25 -49q-13 -28 -13 -52q0 -17 2 -51t2 -51q0 -68 -79 -68h-92q21 88 40 133q32 78 80 108q29 18 85 30z" />
    <glyph glyph-name="quoteright" unicode="&#x2019;" horiz-adv-x="279" 
d="M237 737q-29 -127 -58 -174q-45 -75 -145 -95q37 65 37 104q0 15 -2.5 46.5t-2.5 47.5q0 71 80 71h91z" />
    <glyph glyph-name="quotesinglbase" unicode="&#x201a;" horiz-adv-x="279" 
d="M230 141q-32 -129 -59 -174q-46 -75 -147 -98q39 67 39 109q0 15 -2 45.5t-2 46.5q0 71 80 71h91z" />
    <glyph glyph-name="quotedblleft" unicode="&#x201c;" horiz-adv-x="475" 
d="M443 756q-38 -74 -38 -101q0 -17 2 -51t2 -51q0 -68 -79 -68h-92q43 195 120 241q31 19 85 30zM248 756q-39 -71 -39 -101q0 -17 2 -51t2 -51q0 -68 -79 -68h-92q21 87 40 133q32 78 81 108q30 19 85 30z" />
    <glyph glyph-name="quotedblright" unicode="&#x201d;" horiz-adv-x="475" 
d="M433 737q-44 -193 -119 -239q-28 -17 -85 -31q37 63 37 106q0 16 -2 47.5t-2 46.5q0 70 79 70h92zM237 737q-30 -128 -58 -174q-46 -75 -145 -95q37 69 37 104q0 16 -2.5 47t-2.5 46q0 72 80 72h91z" />
    <glyph glyph-name="quotedblbase" unicode="&#x201e;" horiz-adv-x="475" 
d="M426 141q-30 -129 -58 -174q-46 -75 -148 -98q39 67 39 109q0 15 -2 46t-2 46q0 40 20 57q18 14 59 14h92zM230 141q-30 -127 -59 -174q-46 -75 -147 -98q39 67 39 109q0 15 -2 45.5t-2 46.5q0 71 80 71h91z" />
    <glyph glyph-name="dagger" unicode="&#x2020;" 
d="M450 423l-158 30q2 -12 15 -80q11 -61 11 -66q0 3 -3 -28q-8 -64 -20 -193q-7 -96 -7 -217h-77q0 223 -26 409q-4 29 -4 24q0 12 12 71q15 77 15 79q-31 -6 -62 -13q-41 -8 -60 -8q-36 0 -36 44v93l158 -29q-23 145 -23 159q0 39 48 39h91l-31 -198q112 21 119 21
q38 0 38 -40v-97z" />
    <glyph glyph-name="daggerdbl" unicode="&#x2021;" 
d="M450 45l-157 29q22 -126 22 -151q0 -47 -49 -47h-90l32 198q-31 -6 -62 -13q-40 -8 -60 -8q-36 0 -36 41v97l158 -30q-8 63 -27 147q15 72 27 144q-31 -6 -62 -13q-41 -8 -60 -8q-36 0 -36 44v93l158 -29q-23 145 -23 159q0 39 48 39h91l-31 -198q112 21 119 21
q38 0 38 -40v-97l-158 30q16 -98 26 -146q-17 -76 -26 -146q31 6 62 13q40 8 60 8q36 0 36 -44v-93z" />
    <glyph glyph-name="bullet" unicode="&#x2022;" horiz-adv-x="590" 
d="M454 372q0 -65 -47.5 -112.5t-112.5 -47.5t-112 47.5t-47 112.5q0 67 46.5 113t113.5 46t113 -46t46 -113z" />
    <glyph glyph-name="ellipsis" unicode="&#x2026;" horiz-adv-x="1000" 
d="M939 135l-35 -97q-19 -53 -84 -53h-92l35 98q19 52 84 52h92zM605 135l-35 -97q-19 -53 -84 -53h-92l35 98q19 52 84 52h92zM272 135l-35 -97q-19 -53 -84 -53h-92l35 98q19 52 84 52h92z" />
    <glyph glyph-name="perthousand" unicode="&#x2030;" horiz-adv-x="949" 
d="M939 170q0 -75 -32 -130q-39 -67 -109 -67q-71 0 -109 66q-32 55 -32 131q0 78 31 132q37 65 110 65q72 0 110 -66q31 -54 31 -131zM293 551q0 -78 -30 -131q-38 -65 -111 -65q-71 0 -109 65q-31 54 -31 131q0 78 31 132q37 65 109 65t110 -66q31 -54 31 -131zM585 746
q-193 -299 -410 -768q-24 3 -60 2q-51 -1 -61 -1q230 378 406 765q26 -3 52 -3q13 0 73 5zM625 170q0 -75 -32 -130q-39 -67 -109 -67q-71 0 -109 66q-32 55 -32 131q0 78 30 132q38 65 111 65q72 0 110 -65q31 -54 31 -132zM829 170q0 121 -31 121t-31 -116q0 -125 32 -125
q30 0 30 120zM183 552q0 120 -30 120q-31 0 -31 -120q0 -121 31 -121q30 0 30 121zM515 170q0 121 -31 121q-30 0 -30 -121q0 -120 31 -120q30 0 30 120z" />
    <glyph glyph-name="guilsinglleft" unicode="&#x2039;" horiz-adv-x="278" 
d="M276 96h-124l-130 191l130 191h124l-124 -191z" />
    <glyph glyph-name="guilsinglright" unicode="&#x203a;" horiz-adv-x="278" 
d="M256 287l-130 -191h-125l124 191l-124 191h125z" />
    <glyph glyph-name="trademark" unicode="&#x2122;" horiz-adv-x="822" 
d="M713 427h-150v42l29 4l5 12v96l-55 -155h-33l-58 159v-102q0 -5 3 -10l33 -4v-42h-126v42q16 2 34 6q0 1 1 4t1 4v182q0 3 -2 9q-5 4 -34 4v44h122l56 -157l57 157h117v-42l-26 -2l-6 -3q-1 -3 -1 -9v-182q3 -11 3 -10q10 -1 30 -5v-42zM359 600h-45q0 75 -52 75h11
q0 -193 2 -199l4 -3l28 -4v-42h-157v42l30 4q4 6 5 53q1 32 0 88q-1 65 -1 61h8q-28 0 -40 -25q-7 -15 -10 -50h-44l7 122h247z" />
    <glyph glyph-name=".null" horiz-adv-x="0" 
 />
    <glyph glyph-name="HT" horiz-adv-x="280" 
 />
    <glyph glyph-name="nonmarkingreturn" horiz-adv-x="280" 
 />
    <glyph glyph-name="BS" horiz-adv-x="0" 
 />
    <glyph glyph-name="dotoperator" horiz-adv-x="280" 
d="M223 361q0 -34 -24 -58.5t-59 -24.5q-34 0 -58.5 24.5t-24.5 58.5q0 35 24.5 59t58.5 24t58.5 -24.5t24.5 -58.5z" />
    <glyph glyph-name="GS" horiz-adv-x="0" 
 />
  </font>
</defs>
</svg>
