<?xml version="1.0" standalone="no"?>
<!DOCTYPE svg PUBLIC "-//W3C//DTD SVG 1.1//EN" "http://www.w3.org/Graphics/SVG/1.1/DTD/svg11.dtd" >
<svg xmlns="http://www.w3.org/2000/svg" xmlns:xlink="http://www.w3.org/1999/xlink" version="1.1">
<metadata>
Created by FontForge 20170731 at Mon Oct  2 19:24:34 2023
 By Aleksey,,,
Font data copyright Google 2014
</metadata>
<defs>
<font id="NKSDAN+Roboto-LightItalic" horiz-adv-x="1251" >
  <font-face 
    font-family="NKSDAN+Roboto-LightItalic"
    font-weight="300"
    font-style="italic"
    font-stretch="normal"
    units-per-em="2048"
    panose-1="0 0 0 0 0 0 0 0 0 0"
    ascent="1638"
    descent="-410"
    x-height="1082"
    bbox="-52 -432.243 1690 1536"
    underline-thickness="100"
    underline-position="-500"
    unicode-range="U+0002-FFFD"
  />
<missing-glyph horiz-adv-x="748" 
d="M68 0v1365h544v-1365h-544zM136 68h408v1229h-408v-1229z" />
    <glyph glyph-name=".notdef" horiz-adv-x="748" 
d="M68 0v1365h544v-1365h-544zM136 68h408v1229h-408v-1229z" />
    <glyph glyph-name=".null" horiz-adv-x="0" 
 />
    <glyph glyph-name="nonmarkingreturn" horiz-adv-x="682" 
 />
    <glyph glyph-name="uni0002" horiz-adv-x="10" 
 />
    <glyph glyph-name="uni0009" unicode="&#x9;" horiz-adv-x="10" 
 />
    <glyph glyph-name="space" unicode=" " horiz-adv-x="494" 
 />
    <glyph glyph-name="exclam" unicode="!" horiz-adv-x="458" 
 />
    <glyph glyph-name="C" unicode="C" horiz-adv-x="1300" 
d="M1150 454q-25 -110 -76.5 -198.5t-126.5 -151t-172.5 -95t-212.5 -29.5q-89 2 -158.5 30t-120.5 75.5t-84.5 110.5t-51 135t-20.5 150t7 155l28 183q13 84 40 166t67.5 156t94.5 136t121.5 107t148 69.5t174.5 22.5q108 -2 190.5 -37.5t138 -98.5t84 -149.5t27.5 -191.5
l-121 1q0 80 -19 147.5t-58.5 116.5t-101 77.5t-146.5 30.5q-116 3 -205 -44.5t-153 -126.5t-103 -178.5t-55 -201.5l-29 -186q-8 -59 -8.5 -122t10 -123.5t32.5 -115t59.5 -96t91 -67t126.5 -27.5q94 -3 169 22t132 73.5t97 118t65 155.5z" />
    <glyph glyph-name="D" unicode="D" horiz-adv-x="1311" 
d="M73 0l253 1456l388 -1q138 -3 239 -58.5t163.5 -147t86 -209.5t7.5 -246l-20 -133q-21 -140 -81.5 -261t-153.5 -210.5t-216 -140t-270 -49.5h-396zM430 1351l-217 -1247l260 -1q123 0 224.5 43.5t178 119t126 177.5t67.5 218l20 137q14 102 0 200t-59.5 175.5
t-124 125.5t-194.5 51z" />
    <glyph glyph-name="E" unicode="E" horiz-adv-x="1141" 
d="M977 698h-660l-104 -594h760l-18 -104h-882l253 1456h877l-19 -105h-754l-96 -549h661z" />
    <glyph glyph-name="M" unicode="M" horiz-adv-x="1729" 
d="M484 1456l297 -1282l744 1282h165l-253 -1456h-122l111 639l119 630l-741 -1269h-94l-302 1279l-103 -646l-110 -633h-122l253 1456h158z" />
    <glyph glyph-name="V" unicode="V" horiz-adv-x="1235" 
d="M536 180l2 -31l14 31l644 1276h138l-754 -1456h-117l-297 1456h123z" />
    <glyph glyph-name="a" unicode="a" horiz-adv-x="1073" 
d="M714 0q-5 38 -3 75.5t9 75.5q-75 -81 -171 -127t-208 -44q-65 1 -121.5 22.5t-97.5 60.5t-63 93.5t-17 122.5q5 67 30.5 119t65.5 91t92 66t109.5 43.5t117 24t115.5 7.5l221 -1l18 124q6 57 -7 102.5t-42.5 77.5t-74 49.5t-101.5 19.5q-52 1 -103.5 -12.5t-94 -41
t-73.5 -69t-43 -95.5h-117q11 79 54 139.5t105 101t136.5 60t147.5 18.5q79 -2 144 -26.5t109.5 -70t65.5 -110.5t12 -146l-87 -524q-8 -53 -11 -107t8 -107l-2 -12h-123zM361 85q59 -2 114 13t102.5 43t88 68t71.5 89l41 239l-191 1q-41 0 -86.5 -4.5t-91 -15.5t-87.5 -29
t-75.5 -45.5t-55.5 -66t-27 -88.5q-5 -47 8.5 -84t40.5 -63.5t65.5 -41t82.5 -15.5z" />
    <glyph glyph-name="c" unicode="c" horiz-adv-x="1032" 
d="M451 80q61 -2 114.5 15.5t96.5 50.5t74 80.5t47 106.5h113q-15 -81 -57 -147t-102.5 -112.5t-135.5 -71.5t-156 -23q-113 3 -188 50.5t-118 123.5t-57 171t-3 193l5 43q13 106 53.5 205t107.5 175t159 120.5t207 41.5q84 -2 150.5 -32t112.5 -81t69 -121t19 -152l-113 1
q2 58 -13 109t-46 89t-77.5 60.5t-107.5 24.5q-92 3 -163 -34.5t-121 -100.5t-79.5 -143.5t-40.5 -161.5l-5 -42q-6 -49 -5.5 -100t8.5 -99t26 -90.5t48.5 -75t74 -52t103.5 -21.5z" />
    <glyph glyph-name="e" unicode="e" horiz-adv-x="1036" 
d="M462 -20q-109 2 -187 48t-125.5 120t-66 167.5t-9.5 191.5l5 44q12 102 54 202t110.5 178.5t161 126t205.5 44.5q104 -3 174.5 -46.5t111 -113t54 -157.5t3.5 -179l-8 -73h-749l-5 -24q-11 -73 0 -148t45 -136t92.5 -100.5t142.5 -42.5q48 -2 91.5 8t82.5 29t74.5 46.5
t68.5 60.5l70 -57q-74 -94 -175 -142.5t-221 -46.5zM604 1001q-80 3 -144 -28.5t-112.5 -84t-83 -119t-55.5 -134.5l629 -1l2 15q9 62 -0.5 124t-38.5 111.5t-78 81.5t-119 35z" />
    <glyph glyph-name="g" unicode="g" horiz-adv-x="1112" 
d="M96 545q8 66 26.5 134t47 130.5t68 117t91 94t115.5 62t141 20.5q97 -3 177 -46t126 -131l37 156h111l-182 -1063q-14 -98 -53.5 -181.5t-102 -144t-147 -94.5t-187.5 -31q-53 1 -102.5 14.5t-94.5 37.5t-83 59t-66 79l74 70q48 -72 114.5 -114.5t154.5 -44.5
q80 -2 143.5 23.5t110.5 72t77 110.5t42 138l26 126q-68 -78 -154.5 -120t-192.5 -39q-72 2 -125.5 26.5t-91 65.5t-61 95t-35 113.5t-13 122t5.5 120.5zM213 523q-5 -44 -6 -93.5t5 -97.5t21 -92.5t42 -78.5t67.5 -55t98.5 -23q56 -2 104.5 12t90.5 40t77.5 63t64.5 83
l85 505q-27 97 -93.5 153.5t-170.5 59.5q-62 2 -113 -16.5t-91 -51.5t-70.5 -78t-52 -96t-35.5 -105.5t-21 -106.5z" />
    <glyph glyph-name="h" unicode="h" horiz-adv-x="1100" 
d="M313 899q34 45 74 83t86 65t98 41.5t110 13.5q88 -2 145.5 -34.5t89.5 -87t41.5 -126t0.5 -150.5l-118 -704h-118l118 706q6 57 1.5 109.5t-25.5 93t-61.5 64.5t-106.5 26q-62 1 -115.5 -19.5t-98 -56t-80 -83t-62.5 -98.5l-128 -742h-118l267 1536h118z" />
    <glyph glyph-name="i" unicode="i" horiz-adv-x="455" 
d="M179 0h-120l189 1082h119zM281 1395q3 38 27.5 56.5t58.5 25.5q39 -7 55.5 -24.5t21.5 -57.5q-10 -38 -29 -55.5t-57 -25.5q-34 5 -56.5 23.5t-20.5 57.5z" />
    <glyph glyph-name="n" unicode="n" horiz-adv-x="1102" 
d="M348 1082l-36 -185q33 46 73 84t86.5 65.5t99 42t110.5 13.5q88 -2 145.5 -34.5t89.5 -87t41.5 -126t0.5 -150.5l-118 -704h-118l118 706q6 57 1.5 109.5t-25.5 93t-61.5 64.5t-106.5 26q-62 1 -115.5 -19.5t-98 -56t-80 -83t-62.5 -98.5l-128 -742h-118l188 1082h114z
" />
    <glyph glyph-name="o" unicode="o" horiz-adv-x="1122" 
d="M79 550q13 108 57 209t114.5 178t166.5 122.5t212 42.5q112 -3 190.5 -50.5t126 -123.5t64 -172t6.5 -196l-4 -34q-14 -108 -58 -207.5t-114.5 -176t-166 -121t-211.5 -41.5q-74 2 -133.5 24t-105 59.5t-77 88t-49.5 110t-23.5 124.5t1.5 131zM194 516q-8 -74 1 -150
t40.5 -139t88.5 -103.5t145 -43.5q93 -3 166 36t127 102.5t87.5 144.5t44.5 164l4 32q9 74 0 151t-41 141t-89.5 105.5t-145.5 44.5q-92 3 -166 -36.5t-127.5 -104t-86.5 -146.5t-44 -164z" />
    <glyph glyph-name="p" unicode="p" horiz-adv-x="1110" 
d="M983 537q-9 -66 -26.5 -133.5t-46 -130t-67.5 -117t-90 -94.5t-114 -62.5t-139 -20.5q-93 2 -175.5 39.5t-133.5 117.5l-100 -552h-118l260 1498h110l-28 -153q67 85 155 130.5t197 42.5q73 -2 127 -26.5t92 -65t60.5 -94t33.5 -113.5t12 -123t-6 -122zM867 558
q5 45 6 94.5t-5.5 98t-22 92.5t-43 78t-69 55t-99.5 23q-57 1 -105.5 -13.5t-90.5 -42t-76.5 -66t-61.5 -85.5l-89 -521q32 -92 101.5 -140t166.5 -51q62 -2 112.5 16.5t91 52t71.5 78.5t53 96.5t36 106t21 107.5z" />
    <glyph glyph-name="r" unicode="r" horiz-adv-x="678" 
d="M707 981q-39 8 -79 9q-56 0 -109.5 -18t-98.5 -50.5t-78.5 -78t-49.5 -99.5l-128 -744h-118l188 1082h117l-36 -172q27 44 61.5 80.5t75 62t88 39t101.5 12.5q21 0 41.5 -4t40.5 -10z" />
    <glyph glyph-name="s" unicode="s" horiz-adv-x="1016" 
d="M729 282q6 53 -14.5 90t-56 62.5t-80.5 41.5t-87 27q-59 15 -119 36t-107.5 55t-76 83.5t-23.5 122.5q4 76 42 133.5t95.5 95t127.5 56t139 17.5q73 -1 138.5 -22.5t114 -62t75 -100.5t22.5 -138h-118q3 53 -15 94t-51 69t-77.5 42.5t-93.5 15.5q-47 0 -94 -11t-86.5 -35
t-66.5 -61t-33 -88q-6 -53 15 -87t57.5 -56.5t81 -36t85.5 -24.5q61 -17 121 -40t107 -59t74 -88t22 -126q-5 -81 -44.5 -139.5t-99.5 -96.5t-133.5 -55.5t-145.5 -16.5t-141 21.5t-122 60.5t-84 100.5t-26 141.5l119 -1q0 -57 20.5 -98.5t55.5 -68.5t82.5 -40.5
t100.5 -14.5q47 0 97.5 11t93 35t72.5 62.5t37 92.5z" />
    <glyph glyph-name="t" unicode="t" horiz-adv-x="647" 
d="M464 1359l-48 -277h217l-17 -98h-217l-119 -722q-3 -31 -2.5 -62t10.5 -55.5t30.5 -40t58.5 -16.5q25 -1 49 1.5t48 5.5l-5 -98q-59 -17 -120 -15q-61 1 -100 24.5t-60 62.5t-26.5 89.5t-0.5 104.5l119 721h-194l18 98h192l48 277h119z" />
    <glyph glyph-name="u" unicode="u" horiz-adv-x="1102" 
d="M752 136q-67 -84 -158 -121.5t-198 -34.5q-89 2 -147.5 36.5t-91.5 90.5t-42.5 129t-0.5 153l116 693h118l-115 -696q-6 -54 -1.5 -107.5t24.5 -96t59.5 -69.5t103.5 -29q53 -2 108.5 10.5t104.5 39.5t86.5 68t54.5 96l134 784h120l-188 -1082h-116z" />
    <glyph glyph-name="v" unicode="v" horiz-adv-x="965" 
d="M408 169l462 913h126l-561 -1082h-97l-225 1082h118z" />
    <glyph glyph-name="x" unicode="x" horiz-adv-x="977" 
d="M484 645l351 437h148l-444 -537l283 -545h-132l-226 456l-370 -456h-146l462 557l-271 525h132z" />
    <glyph glyph-name="uni00A0" unicode="&#xa0;" horiz-adv-x="493" 
 />
    <glyph glyph-name="uni00AD" unicode="&#xad;" horiz-adv-x="578" 
 />
    <glyph glyph-name="Agrave" unicode="&#xc0;" 
 />
    <glyph glyph-name="Aacute" unicode="&#xc1;" 
 />
    <glyph glyph-name="Acircumflex" unicode="&#xc2;" 
 />
    <glyph glyph-name="Atilde" unicode="&#xc3;" 
 />
    <glyph glyph-name="Adieresis" unicode="&#xc4;" 
 />
    <glyph glyph-name="Aring" unicode="&#xc5;" 
 />
    <glyph glyph-name="Ccedilla" unicode="&#xc7;" horiz-adv-x="1300" 
 />
    <glyph glyph-name="Egrave" unicode="&#xc8;" horiz-adv-x="1140" 
 />
    <glyph glyph-name="Eacute" unicode="&#xc9;" horiz-adv-x="1140" 
 />
    <glyph glyph-name="Ecircumflex" unicode="&#xca;" horiz-adv-x="1140" 
 />
    <glyph glyph-name="Edieresis" unicode="&#xcb;" horiz-adv-x="1140" 
 />
    <glyph glyph-name="Igrave" unicode="&#xcc;" horiz-adv-x="539" 
 />
    <glyph glyph-name="Iacute" unicode="&#xcd;" horiz-adv-x="539" 
 />
    <glyph glyph-name="Icircumflex" unicode="&#xce;" horiz-adv-x="539" 
 />
    <glyph glyph-name="Idieresis" unicode="&#xcf;" horiz-adv-x="539" 
 />
    <glyph glyph-name="Eth" unicode="&#xd0;" horiz-adv-x="1341" 
 />
    <glyph glyph-name="Ntilde" unicode="&#xd1;" horiz-adv-x="1420" 
 />
    <glyph glyph-name="Ograve" unicode="&#xd2;" horiz-adv-x="1354" 
 />
    <glyph glyph-name="Oacute" unicode="&#xd3;" horiz-adv-x="1354" 
 />
    <glyph glyph-name="Ocircumflex" unicode="&#xd4;" horiz-adv-x="1354" 
 />
    <glyph glyph-name="Otilde" unicode="&#xd5;" horiz-adv-x="1354" 
 />
    <glyph glyph-name="Odieresis" unicode="&#xd6;" horiz-adv-x="1354" 
 />
    <glyph glyph-name="Ugrave" unicode="&#xd9;" horiz-adv-x="1316" 
 />
    <glyph glyph-name="Uacute" unicode="&#xda;" horiz-adv-x="1316" 
 />
    <glyph glyph-name="Ucircumflex" unicode="&#xdb;" horiz-adv-x="1316" 
 />
    <glyph glyph-name="Udieresis" unicode="&#xdc;" horiz-adv-x="1316" 
 />
    <glyph glyph-name="Yacute" unicode="&#xdd;" horiz-adv-x="1199" 
 />
    <glyph glyph-name="agrave" unicode="&#xe0;" horiz-adv-x="1074" 
 />
    <glyph glyph-name="aacute" unicode="&#xe1;" horiz-adv-x="1074" 
 />
    <glyph glyph-name="acircumflex" unicode="&#xe2;" horiz-adv-x="1074" 
 />
    <glyph glyph-name="atilde" unicode="&#xe3;" horiz-adv-x="1074" 
 />
    <glyph glyph-name="adieresis" unicode="&#xe4;" horiz-adv-x="1074" 
 />
    <glyph glyph-name="aring" unicode="&#xe5;" horiz-adv-x="1074" 
 />
    <glyph glyph-name="ccedilla" unicode="&#xe7;" horiz-adv-x="1033" 
 />
    <glyph glyph-name="egrave" unicode="&#xe8;" horiz-adv-x="1036" 
 />
    <glyph glyph-name="eacute" unicode="&#xe9;" horiz-adv-x="1036" 
 />
    <glyph glyph-name="ecircumflex" unicode="&#xea;" horiz-adv-x="1036" 
 />
    <glyph glyph-name="edieresis" unicode="&#xeb;" horiz-adv-x="1036" 
 />
    <glyph glyph-name="igrave" unicode="&#xec;" horiz-adv-x="452" 
 />
    <glyph glyph-name="iacute" unicode="&#xed;" horiz-adv-x="452" 
 />
    <glyph glyph-name="icircumflex" unicode="&#xee;" horiz-adv-x="452" 
 />
    <glyph glyph-name="idieresis" unicode="&#xef;" horiz-adv-x="452" 
 />
    <glyph glyph-name="ntilde" unicode="&#xf1;" horiz-adv-x="1101" 
 />
    <glyph glyph-name="ograve" unicode="&#xf2;" horiz-adv-x="1123" 
 />
    <glyph glyph-name="oacute" unicode="&#xf3;" horiz-adv-x="1123" 
 />
    <glyph glyph-name="ocircumflex" unicode="&#xf4;" horiz-adv-x="1123" 
 />
    <glyph glyph-name="otilde" unicode="&#xf5;" horiz-adv-x="1123" 
 />
    <glyph glyph-name="odieresis" unicode="&#xf6;" horiz-adv-x="1123" 
 />
    <glyph glyph-name="ugrave" unicode="&#xf9;" horiz-adv-x="1101" 
 />
    <glyph glyph-name="uacute" unicode="&#xfa;" horiz-adv-x="1101" 
 />
    <glyph glyph-name="ucircumflex" unicode="&#xfb;" horiz-adv-x="1101" 
 />
    <glyph glyph-name="udieresis" unicode="&#xfc;" horiz-adv-x="1101" 
 />
    <glyph glyph-name="yacute" unicode="&#xfd;" horiz-adv-x="954" 
 />
    <glyph glyph-name="ydieresis" unicode="&#xff;" horiz-adv-x="954" 
 />
    <glyph glyph-name="Amacron" unicode="&#x100;" 
 />
    <glyph glyph-name="amacron" unicode="&#x101;" horiz-adv-x="1074" 
 />
    <glyph glyph-name="Abreve" unicode="&#x102;" 
 />
    <glyph glyph-name="abreve" unicode="&#x103;" horiz-adv-x="1074" 
 />
    <glyph glyph-name="Aogonek" unicode="&#x104;" 
 />
    <glyph glyph-name="aogonek" unicode="&#x105;" horiz-adv-x="1074" 
 />
    <glyph glyph-name="Cacute" unicode="&#x106;" horiz-adv-x="1300" 
 />
    <glyph glyph-name="cacute" unicode="&#x107;" horiz-adv-x="1033" 
 />
    <glyph glyph-name="Ccircumflex" unicode="&#x108;" horiz-adv-x="1300" 
 />
    <glyph glyph-name="ccircumflex" unicode="&#x109;" horiz-adv-x="1033" 
 />
    <glyph glyph-name="Cdotaccent" unicode="&#x10a;" horiz-adv-x="1300" 
 />
    <glyph glyph-name="cdotaccent" unicode="&#x10b;" horiz-adv-x="1033" 
 />
    <glyph glyph-name="Ccaron" unicode="&#x10c;" horiz-adv-x="1300" 
 />
    <glyph glyph-name="ccaron" unicode="&#x10d;" horiz-adv-x="1033" 
 />
    <glyph glyph-name="Dcaron" unicode="&#x10e;" horiz-adv-x="1311" 
 />
    <glyph glyph-name="dcaron" unicode="&#x10f;" horiz-adv-x="1264" 
 />
    <glyph glyph-name="Dcroat" unicode="&#x110;" horiz-adv-x="1341" 
 />
    <glyph glyph-name="dcroat" unicode="&#x111;" horiz-adv-x="1144" 
 />
    <glyph glyph-name="Emacron" unicode="&#x112;" horiz-adv-x="1140" 
 />
    <glyph glyph-name="emacron" unicode="&#x113;" horiz-adv-x="1036" 
 />
    <glyph glyph-name="Ebreve" unicode="&#x114;" horiz-adv-x="1140" 
 />
    <glyph glyph-name="ebreve" unicode="&#x115;" horiz-adv-x="1036" 
 />
    <glyph glyph-name="Edotaccent" unicode="&#x116;" horiz-adv-x="1140" 
 />
    <glyph glyph-name="edotaccent" unicode="&#x117;" horiz-adv-x="1036" 
 />
    <glyph glyph-name="Eogonek" unicode="&#x118;" horiz-adv-x="1140" 
 />
    <glyph glyph-name="eogonek" unicode="&#x119;" horiz-adv-x="1036" 
 />
    <glyph glyph-name="Ecaron" unicode="&#x11a;" horiz-adv-x="1140" 
 />
    <glyph glyph-name="ecaron" unicode="&#x11b;" horiz-adv-x="1036" 
 />
    <glyph glyph-name="Gcircumflex" unicode="&#x11c;" horiz-adv-x="1368" 
 />
    <glyph glyph-name="gcircumflex" unicode="&#x11d;" horiz-adv-x="1112" 
 />
    <glyph glyph-name="Gbreve" unicode="&#x11e;" horiz-adv-x="1368" 
 />
    <glyph glyph-name="gbreve" unicode="&#x11f;" horiz-adv-x="1112" 
 />
    <glyph glyph-name="Gdotaccent" unicode="&#x120;" horiz-adv-x="1368" 
 />
    <glyph glyph-name="gdotaccent" unicode="&#x121;" horiz-adv-x="1112" 
 />
    <glyph glyph-name="uni0122" unicode="&#x122;" horiz-adv-x="1368" 
 />
    <glyph glyph-name="uni0123" unicode="&#x123;" horiz-adv-x="1112" 
 />
    <glyph glyph-name="Hcircumflex" unicode="&#x124;" horiz-adv-x="1416" 
 />
    <glyph glyph-name="hcircumflex" unicode="&#x125;" horiz-adv-x="1100" 
 />
    <glyph glyph-name="hbar" unicode="&#x127;" horiz-adv-x="1130" 
 />
    <glyph glyph-name="Itilde" unicode="&#x128;" horiz-adv-x="539" 
 />
    <glyph glyph-name="itilde" unicode="&#x129;" horiz-adv-x="452" 
 />
    <glyph glyph-name="Imacron" unicode="&#x12a;" horiz-adv-x="539" 
 />
    <glyph glyph-name="imacron" unicode="&#x12b;" horiz-adv-x="452" 
 />
    <glyph glyph-name="Ibreve" unicode="&#x12c;" horiz-adv-x="539" 
 />
    <glyph glyph-name="ibreve" unicode="&#x12d;" horiz-adv-x="452" 
 />
    <glyph glyph-name="Iogonek" unicode="&#x12e;" horiz-adv-x="539" 
 />
    <glyph glyph-name="iogonek" unicode="&#x12f;" horiz-adv-x="455" 
 />
    <glyph glyph-name="Idotaccent" unicode="&#x130;" horiz-adv-x="539" 
 />
    <glyph glyph-name="IJ" unicode="&#x132;" horiz-adv-x="1642" 
 />
    <glyph glyph-name="ij" unicode="&#x133;" horiz-adv-x="918" 
 />
    <glyph glyph-name="Jcircumflex" unicode="&#x134;" horiz-adv-x="1103" 
 />
    <glyph glyph-name="jcircumflex" unicode="&#x135;" horiz-adv-x="464" 
 />
    <glyph glyph-name="uni0136" unicode="&#x136;" horiz-adv-x="1263" 
 />
    <glyph glyph-name="uni0137" unicode="&#x137;" horiz-adv-x="983" 
 />
    <glyph glyph-name="Lacute" unicode="&#x139;" horiz-adv-x="1057" 
 />
    <glyph glyph-name="lacute" unicode="&#x13a;" horiz-adv-x="455" 
 />
    <glyph glyph-name="uni013B" unicode="&#x13b;" horiz-adv-x="1057" 
 />
    <glyph glyph-name="uni013C" unicode="&#x13c;" horiz-adv-x="455" 
 />
    <glyph glyph-name="Lcaron" unicode="&#x13d;" horiz-adv-x="1057" 
 />
    <glyph glyph-name="lcaron" unicode="&#x13e;" horiz-adv-x="605" 
 />
    <glyph glyph-name="Ldot" unicode="&#x13f;" horiz-adv-x="1057" 
 />
    <glyph glyph-name="ldot" unicode="&#x140;" horiz-adv-x="675" 
 />
    <glyph glyph-name="Nacute" unicode="&#x143;" horiz-adv-x="1420" 
 />
    <glyph glyph-name="nacute" unicode="&#x144;" horiz-adv-x="1101" 
 />
    <glyph glyph-name="uni0145" unicode="&#x145;" horiz-adv-x="1420" 
 />
    <glyph glyph-name="uni0146" unicode="&#x146;" horiz-adv-x="1101" 
 />
    <glyph glyph-name="Ncaron" unicode="&#x147;" horiz-adv-x="1420" 
 />
    <glyph glyph-name="ncaron" unicode="&#x148;" horiz-adv-x="1101" 
 />
    <glyph glyph-name="napostrophe" unicode="&#x149;" horiz-adv-x="1101" 
 />
    <glyph glyph-name="Omacron" unicode="&#x14c;" horiz-adv-x="1354" 
 />
    <glyph glyph-name="omacron" unicode="&#x14d;" horiz-adv-x="1123" 
 />
    <glyph glyph-name="Obreve" unicode="&#x14e;" horiz-adv-x="1354" 
 />
    <glyph glyph-name="obreve" unicode="&#x14f;" horiz-adv-x="1123" 
 />
    <glyph glyph-name="Ohungarumlaut" unicode="&#x150;" horiz-adv-x="1354" 
 />
    <glyph glyph-name="ohungarumlaut" unicode="&#x151;" horiz-adv-x="1123" 
 />
    <glyph glyph-name="Racute" unicode="&#x154;" horiz-adv-x="1271" 
 />
    <glyph glyph-name="racute" unicode="&#x155;" horiz-adv-x="678" 
 />
    <glyph glyph-name="uni0156" unicode="&#x156;" horiz-adv-x="1271" 
 />
    <glyph glyph-name="uni0157" unicode="&#x157;" horiz-adv-x="678" 
 />
    <glyph glyph-name="Rcaron" unicode="&#x158;" horiz-adv-x="1271" 
 />
    <glyph glyph-name="rcaron" unicode="&#x159;" horiz-adv-x="678" 
 />
    <glyph glyph-name="Sacute" unicode="&#x15a;" horiz-adv-x="1187" 
 />
    <glyph glyph-name="sacute" unicode="&#x15b;" horiz-adv-x="1016" 
 />
    <glyph glyph-name="Scircumflex" unicode="&#x15c;" horiz-adv-x="1187" 
 />
    <glyph glyph-name="scircumflex" unicode="&#x15d;" horiz-adv-x="1016" 
 />
    <glyph glyph-name="Scedilla" unicode="&#x15e;" horiz-adv-x="1187" 
 />
    <glyph glyph-name="scedilla" unicode="&#x15f;" horiz-adv-x="1016" 
 />
    <glyph glyph-name="Scaron" unicode="&#x160;" horiz-adv-x="1187" 
 />
    <glyph glyph-name="scaron" unicode="&#x161;" horiz-adv-x="1016" 
 />
    <glyph glyph-name="uni0162" unicode="&#x162;" horiz-adv-x="1196" 
 />
    <glyph glyph-name="uni0163" unicode="&#x163;" horiz-adv-x="648" 
 />
    <glyph glyph-name="Tcaron" unicode="&#x164;" horiz-adv-x="1196" 
 />
    <glyph glyph-name="tcaron" unicode="&#x165;" horiz-adv-x="688" 
 />
    <glyph glyph-name="Tbar" unicode="&#x166;" horiz-adv-x="1196" 
 />
    <glyph glyph-name="tbar" unicode="&#x167;" horiz-adv-x="648" 
 />
    <glyph glyph-name="Utilde" unicode="&#x168;" horiz-adv-x="1316" 
 />
    <glyph glyph-name="utilde" unicode="&#x169;" horiz-adv-x="1101" 
 />
    <glyph glyph-name="Umacron" unicode="&#x16a;" horiz-adv-x="1316" 
 />
    <glyph glyph-name="umacron" unicode="&#x16b;" horiz-adv-x="1101" 
 />
    <glyph glyph-name="Ubreve" unicode="&#x16c;" horiz-adv-x="1316" 
 />
    <glyph glyph-name="ubreve" unicode="&#x16d;" horiz-adv-x="1101" 
 />
    <glyph glyph-name="Uring" unicode="&#x16e;" horiz-adv-x="1316" 
 />
    <glyph glyph-name="uring" unicode="&#x16f;" horiz-adv-x="1101" 
 />
    <glyph glyph-name="Uhungarumlaut" unicode="&#x170;" horiz-adv-x="1316" 
 />
    <glyph glyph-name="uhungarumlaut" unicode="&#x171;" horiz-adv-x="1101" 
 />
    <glyph glyph-name="Uogonek" unicode="&#x172;" horiz-adv-x="1316" 
 />
    <glyph glyph-name="uogonek" unicode="&#x173;" horiz-adv-x="1101" 
 />
    <glyph glyph-name="Wcircumflex" unicode="&#x174;" horiz-adv-x="1791" 
 />
    <glyph glyph-name="wcircumflex" unicode="&#x175;" horiz-adv-x="1508" 
 />
    <glyph glyph-name="Ycircumflex" unicode="&#x176;" horiz-adv-x="1199" 
 />
    <glyph glyph-name="ycircumflex" unicode="&#x177;" horiz-adv-x="954" 
 />
    <glyph glyph-name="Ydieresis" unicode="&#x178;" horiz-adv-x="1199" 
 />
    <glyph glyph-name="Zacute" unicode="&#x179;" horiz-adv-x="1198" 
 />
    <glyph glyph-name="zacute" unicode="&#x17a;" horiz-adv-x="976" 
 />
    <glyph glyph-name="Zdotaccent" unicode="&#x17b;" horiz-adv-x="1198" 
 />
    <glyph glyph-name="zdotaccent" unicode="&#x17c;" horiz-adv-x="976" 
 />
    <glyph glyph-name="Zcaron" unicode="&#x17d;" horiz-adv-x="1198" 
 />
    <glyph glyph-name="zcaron" unicode="&#x17e;" horiz-adv-x="976" 
 />
    <glyph glyph-name="uni01F0" unicode="&#x1f0;" horiz-adv-x="464" 
 />
    <glyph glyph-name="Aringacute" unicode="&#x1fa;" 
 />
    <glyph glyph-name="aringacute" unicode="&#x1fb;" horiz-adv-x="1074" 
 />
    <glyph glyph-name="AEacute" unicode="&#x1fc;" horiz-adv-x="1819" 
 />
    <glyph glyph-name="aeacute" unicode="&#x1fd;" horiz-adv-x="1690" 
 />
    <glyph glyph-name="Oslashacute" unicode="&#x1fe;" horiz-adv-x="1354" 
 />
    <glyph glyph-name="oslashacute" unicode="&#x1ff;" horiz-adv-x="1117" 
 />
    <glyph glyph-name="uni0218" unicode="&#x218;" horiz-adv-x="1187" 
 />
    <glyph glyph-name="uni0219" unicode="&#x219;" horiz-adv-x="1016" 
 />
    <glyph glyph-name="uni021A" unicode="&#x21a;" horiz-adv-x="1196" 
 />
    <glyph glyph-name="uni021B" unicode="&#x21b;" horiz-adv-x="648" 
 />
    <glyph glyph-name="uni02BC" unicode="&#x2bc;" horiz-adv-x="363" 
 />
    <glyph glyph-name="Alphatonos" unicode="&#x386;" 
 />
    <glyph glyph-name="Epsilontonos" unicode="&#x388;" horiz-adv-x="1240" 
 />
    <glyph glyph-name="Etatonos" unicode="&#x389;" horiz-adv-x="1516" 
 />
    <glyph glyph-name="Iotatonos" unicode="&#x38a;" horiz-adv-x="639" 
 />
    <glyph glyph-name="Omicrontonos" unicode="&#x38c;" horiz-adv-x="1374" 
 />
    <glyph glyph-name="Upsilontonos" unicode="&#x38e;" horiz-adv-x="1299" 
 />
    <glyph glyph-name="Omegatonos" unicode="&#x38f;" horiz-adv-x="1331" 
 />
    <glyph glyph-name="iotadieresistonos" unicode="&#x390;" horiz-adv-x="606" 
 />
    <glyph glyph-name="Alpha" unicode="&#x391;" 
 />
    <glyph glyph-name="Beta" unicode="&#x392;" horiz-adv-x="1227" 
 />
    <glyph glyph-name="Epsilon" unicode="&#x395;" horiz-adv-x="1140" 
 />
    <glyph glyph-name="Zeta" unicode="&#x396;" horiz-adv-x="1198" 
 />
    <glyph glyph-name="Eta" unicode="&#x397;" horiz-adv-x="1416" 
 />
    <glyph glyph-name="Iota" unicode="&#x399;" horiz-adv-x="539" 
 />
    <glyph glyph-name="Kappa" unicode="&#x39a;" horiz-adv-x="1263" 
 />
    <glyph glyph-name="Mu" unicode="&#x39c;" horiz-adv-x="1729" 
 />
    <glyph glyph-name="Nu" unicode="&#x39d;" horiz-adv-x="1420" 
 />
    <glyph glyph-name="Omicron" unicode="&#x39f;" horiz-adv-x="1354" 
 />
    <glyph glyph-name="Rho" unicode="&#x3a1;" horiz-adv-x="1233" 
 />
    <glyph glyph-name="Tau" unicode="&#x3a4;" horiz-adv-x="1196" 
 />
    <glyph glyph-name="Upsilon" unicode="&#x3a5;" horiz-adv-x="1199" 
 />
    <glyph glyph-name="Chi" unicode="&#x3a7;" horiz-adv-x="1225" 
 />
    <glyph glyph-name="Iotadieresis" unicode="&#x3aa;" horiz-adv-x="539" 
 />
    <glyph glyph-name="Upsilondieresis" unicode="&#x3ab;" horiz-adv-x="1199" 
 />
    <glyph glyph-name="alphatonos" unicode="&#x3ac;" horiz-adv-x="1128" 
 />
    <glyph glyph-name="epsilontonos" unicode="&#x3ad;" horiz-adv-x="1090" 
 />
    <glyph glyph-name="etatonos" unicode="&#x3ae;" horiz-adv-x="1116" 
 />
    <glyph glyph-name="iotatonos" unicode="&#x3af;" horiz-adv-x="606" 
 />
    <glyph glyph-name="upsilondieresistonos" unicode="&#x3b0;" horiz-adv-x="1072" 
 />
    <glyph glyph-name="kappa" unicode="&#x3ba;" horiz-adv-x="1088" 
 />
    <glyph glyph-name="uni03BC" unicode="&#x3bc;" horiz-adv-x="1116" 
 />
    <glyph glyph-name="nu" unicode="&#x3bd;" horiz-adv-x="965" 
 />
    <glyph glyph-name="omicron" unicode="&#x3bf;" horiz-adv-x="1123" 
 />
    <glyph glyph-name="chi" unicode="&#x3c7;" horiz-adv-x="976" 
 />
    <glyph glyph-name="iotadieresis" unicode="&#x3ca;" horiz-adv-x="606" 
 />
    <glyph glyph-name="upsilondieresis" unicode="&#x3cb;" horiz-adv-x="1072" 
 />
    <glyph glyph-name="omicrontonos" unicode="&#x3cc;" horiz-adv-x="1123" 
 />
    <glyph glyph-name="upsilontonos" unicode="&#x3cd;" horiz-adv-x="1072" 
 />
    <glyph glyph-name="omegatonos" unicode="&#x3ce;" horiz-adv-x="1647" 
 />
    <glyph glyph-name="uni0400" unicode="&#x400;" horiz-adv-x="1140" 
 />
    <glyph glyph-name="uni0401" unicode="&#x401;" horiz-adv-x="1140" 
 />
    <glyph glyph-name="uni0403" unicode="&#x403;" horiz-adv-x="1106" 
 />
    <glyph glyph-name="uni0405" unicode="&#x405;" horiz-adv-x="1187" 
 />
    <glyph glyph-name="uni0406" unicode="&#x406;" horiz-adv-x="539" 
 />
    <glyph glyph-name="uni0407" unicode="&#x407;" horiz-adv-x="539" 
 />
    <glyph glyph-name="uni0408" unicode="&#x408;" horiz-adv-x="1103" 
 />
    <glyph glyph-name="uni040C" unicode="&#x40c;" horiz-adv-x="1263" 
 />
    <glyph glyph-name="uni040D" unicode="&#x40d;" horiz-adv-x="1420" 
 />
    <glyph glyph-name="uni040E" unicode="&#x40e;" horiz-adv-x="1256" 
 />
    <glyph glyph-name="uni0410" unicode="&#x410;" 
 />
    <glyph glyph-name="uni0412" unicode="&#x412;" horiz-adv-x="1227" 
 />
    <glyph glyph-name="uni0413" unicode="&#x413;" horiz-adv-x="1106" 
 />
    <glyph glyph-name="uni0415" unicode="&#x415;" horiz-adv-x="1140" 
 />
    <glyph glyph-name="uni0419" unicode="&#x419;" horiz-adv-x="1420" 
 />
    <glyph glyph-name="uni041A" unicode="&#x41a;" horiz-adv-x="1279" 
 />
    <glyph glyph-name="uni041C" unicode="&#x41c;" horiz-adv-x="1729" 
 />
    <glyph glyph-name="uni041D" unicode="&#x41d;" horiz-adv-x="1416" 
 />
    <glyph glyph-name="uni041E" unicode="&#x41e;" horiz-adv-x="1354" 
 />
    <glyph glyph-name="uni041F" unicode="&#x41f;" horiz-adv-x="1416" 
 />
    <glyph glyph-name="uni0420" unicode="&#x420;" horiz-adv-x="1233" 
 />
    <glyph glyph-name="uni0421" unicode="&#x421;" horiz-adv-x="1300" 
 />
    <glyph glyph-name="uni0422" unicode="&#x422;" horiz-adv-x="1196" 
 />
    <glyph glyph-name="uni0425" unicode="&#x425;" horiz-adv-x="1225" 
 />
    <glyph glyph-name="uni0430" unicode="&#x430;" horiz-adv-x="1074" 
 />
    <glyph glyph-name="uni0435" unicode="&#x435;" horiz-adv-x="1036" 
 />
    <glyph glyph-name="uni0439" unicode="&#x439;" horiz-adv-x="1126" 
 />
    <glyph glyph-name="uni043E" unicode="&#x43e;" horiz-adv-x="1123" 
 />
    <glyph glyph-name="uni0440" unicode="&#x440;" horiz-adv-x="1111" 
 />
    <glyph glyph-name="uni0441" unicode="&#x441;" horiz-adv-x="1033" 
 />
    <glyph glyph-name="uni0443" unicode="&#x443;" horiz-adv-x="954" 
 />
    <glyph glyph-name="uni0445" unicode="&#x445;" horiz-adv-x="976" 
 />
    <glyph glyph-name="uni0450" unicode="&#x450;" horiz-adv-x="1036" 
 />
    <glyph glyph-name="uni0451" unicode="&#x451;" horiz-adv-x="1036" 
 />
    <glyph glyph-name="uni0453" unicode="&#x453;" horiz-adv-x="847" 
 />
    <glyph glyph-name="uni0455" unicode="&#x455;" horiz-adv-x="1016" 
 />
    <glyph glyph-name="uni0456" unicode="&#x456;" horiz-adv-x="455" 
 />
    <glyph glyph-name="uni0457" unicode="&#x457;" horiz-adv-x="452" 
 />
    <glyph glyph-name="uni0458" unicode="&#x458;" horiz-adv-x="463" 
 />
    <glyph glyph-name="uni045A" unicode="&#x45a;" horiz-adv-x="1721" 
 />
    <glyph glyph-name="uni045B" unicode="&#x45b;" horiz-adv-x="1117" 
 />
    <glyph glyph-name="uni045C" unicode="&#x45c;" horiz-adv-x="1039" 
 />
    <glyph glyph-name="uni045D" unicode="&#x45d;" horiz-adv-x="1126" 
 />
    <glyph glyph-name="uni045E" unicode="&#x45e;" horiz-adv-x="954" 
 />
    <glyph glyph-name="uni045F" unicode="&#x45f;" horiz-adv-x="1126" 
 />
    <glyph glyph-name="uni0460" unicode="&#x460;" horiz-adv-x="1773" 
 />
    <glyph glyph-name="uni0461" unicode="&#x461;" horiz-adv-x="1645" 
 />
    <glyph glyph-name="uni0462" unicode="&#x462;" horiz-adv-x="1226" 
 />
    <glyph glyph-name="uni0463" unicode="&#x463;" horiz-adv-x="1072" 
 />
    <glyph glyph-name="uni0464" unicode="&#x464;" horiz-adv-x="1785" 
 />
    <glyph glyph-name="uni0465" unicode="&#x465;" horiz-adv-x="1487" 
 />
    <glyph glyph-name="uni0466" unicode="&#x466;" horiz-adv-x="1202" 
 />
    <glyph glyph-name="uni0467" unicode="&#x467;" horiz-adv-x="1058" 
 />
    <glyph glyph-name="uni0468" unicode="&#x468;" horiz-adv-x="1754" 
 />
    <glyph glyph-name="uni0469" unicode="&#x469;" horiz-adv-x="1506" 
 />
    <glyph glyph-name="uni046A" unicode="&#x46a;" horiz-adv-x="1629" 
 />
    <glyph glyph-name="uni046B" unicode="&#x46b;" horiz-adv-x="1414" 
 />
    <glyph glyph-name="uni046C" unicode="&#x46c;" horiz-adv-x="2158" 
 />
    <glyph glyph-name="uni046D" unicode="&#x46d;" horiz-adv-x="1852" 
 />
    <glyph glyph-name="uni046E" unicode="&#x46e;" horiz-adv-x="1032" 
 />
    <glyph glyph-name="uni046F" unicode="&#x46f;" horiz-adv-x="972" 
 />
    <glyph glyph-name="uni0470" unicode="&#x470;" horiz-adv-x="1389" 
 />
    <glyph glyph-name="uni0471" unicode="&#x471;" horiz-adv-x="1368" 
 />
    <glyph glyph-name="uni0472" unicode="&#x472;" horiz-adv-x="1348" 
 />
    <glyph glyph-name="uni0473" unicode="&#x473;" horiz-adv-x="1133" 
 />
    <glyph glyph-name="uni0474" unicode="&#x474;" horiz-adv-x="1233" 
 />
    <glyph glyph-name="uni0475" unicode="&#x475;" horiz-adv-x="989" 
 />
    <glyph glyph-name="uni0476" unicode="&#x476;" horiz-adv-x="1233" 
 />
    <glyph glyph-name="uni0477" unicode="&#x477;" horiz-adv-x="989" 
 />
    <glyph glyph-name="uni0478" unicode="&#x478;" horiz-adv-x="2308" 
 />
    <glyph glyph-name="uni0479" unicode="&#x479;" horiz-adv-x="2077" 
 />
    <glyph glyph-name="uni047A" unicode="&#x47a;" horiz-adv-x="1348" 
 />
    <glyph glyph-name="uni047B" unicode="&#x47b;" horiz-adv-x="1117" 
 />
    <glyph glyph-name="uni047C" unicode="&#x47c;" horiz-adv-x="1764" 
 />
    <glyph glyph-name="uni047D" unicode="&#x47d;" horiz-adv-x="1596" 
 />
    <glyph glyph-name="uni047E" unicode="&#x47e;" horiz-adv-x="1773" 
 />
    <glyph glyph-name="uni047F" unicode="&#x47f;" horiz-adv-x="1646" 
 />
    <glyph glyph-name="uni0480" unicode="&#x480;" horiz-adv-x="1267" 
 />
    <glyph glyph-name="uni0481" unicode="&#x481;" horiz-adv-x="1049" 
 />
    <glyph glyph-name="uni0482" unicode="&#x482;" horiz-adv-x="1222" 
 />
    <glyph glyph-name="uni0483" unicode="&#x483;" horiz-adv-x="10" 
 />
    <glyph glyph-name="uni0484" unicode="&#x484;" horiz-adv-x="10" 
 />
    <glyph glyph-name="uni0485" unicode="&#x485;" horiz-adv-x="10" 
 />
    <glyph glyph-name="uni0486" unicode="&#x486;" horiz-adv-x="10" 
 />
    <glyph glyph-name="uni0488" unicode="&#x488;" horiz-adv-x="10" 
 />
    <glyph glyph-name="uni0489" unicode="&#x489;" horiz-adv-x="10" 
 />
    <glyph glyph-name="uni048A" unicode="&#x48a;" horiz-adv-x="1420" 
 />
    <glyph glyph-name="uni048B" unicode="&#x48b;" horiz-adv-x="1126" 
 />
    <glyph glyph-name="uni048C" unicode="&#x48c;" horiz-adv-x="1226" 
 />
    <glyph glyph-name="uni048D" unicode="&#x48d;" horiz-adv-x="1072" 
 />
    <glyph glyph-name="uni048E" unicode="&#x48e;" horiz-adv-x="1265" 
 />
    <glyph glyph-name="uni048F" unicode="&#x48f;" horiz-adv-x="1131" 
 />
    <glyph glyph-name="uni0490" unicode="&#x490;" horiz-adv-x="1099" 
 />
    <glyph glyph-name="uni0491" unicode="&#x491;" horiz-adv-x="880" 
 />
    <glyph glyph-name="uni0492" unicode="&#x492;" horiz-adv-x="1106" 
 />
    <glyph glyph-name="uni0493" unicode="&#x493;" horiz-adv-x="847" 
 />
    <glyph glyph-name="uni0494" unicode="&#x494;" horiz-adv-x="1157" 
 />
    <glyph glyph-name="uni0495" unicode="&#x495;" horiz-adv-x="998" 
 />
    <glyph glyph-name="uni0496" unicode="&#x496;" horiz-adv-x="1758" 
 />
    <glyph glyph-name="uni0497" unicode="&#x497;" horiz-adv-x="1534" 
 />
    <glyph glyph-name="uni0498" unicode="&#x498;" horiz-adv-x="1191" 
 />
    <glyph glyph-name="uni0499" unicode="&#x499;" horiz-adv-x="1016" 
 />
    <glyph glyph-name="uni049A" unicode="&#x49a;" horiz-adv-x="1279" 
 />
    <glyph glyph-name="uni049B" unicode="&#x49b;" horiz-adv-x="1039" 
 />
    <glyph glyph-name="uni049C" unicode="&#x49c;" horiz-adv-x="1228" 
 />
    <glyph glyph-name="uni049D" unicode="&#x49d;" horiz-adv-x="1083" 
 />
    <glyph glyph-name="uni049E" unicode="&#x49e;" horiz-adv-x="1299" 
 />
    <glyph glyph-name="uni049F" unicode="&#x49f;" horiz-adv-x="1003" 
 />
    <glyph glyph-name="uni04A0" unicode="&#x4a0;" horiz-adv-x="1614" 
 />
    <glyph glyph-name="uni04A1" unicode="&#x4a1;" horiz-adv-x="1320" 
 />
    <glyph glyph-name="uni04A2" unicode="&#x4a2;" horiz-adv-x="1416" 
 />
    <glyph glyph-name="uni04A3" unicode="&#x4a3;" horiz-adv-x="1126" 
 />
    <glyph glyph-name="uni04A4" unicode="&#x4a4;" horiz-adv-x="2012" 
 />
    <glyph glyph-name="uni04A5" unicode="&#x4a5;" horiz-adv-x="1449" 
 />
    <glyph glyph-name="uni04A6" unicode="&#x4a6;" horiz-adv-x="2035" 
 />
    <glyph glyph-name="uni04A7" unicode="&#x4a7;" horiz-adv-x="1703" 
 />
    <glyph glyph-name="uni04A8" unicode="&#x4a8;" horiz-adv-x="1486" 
 />
    <glyph glyph-name="uni04A9" unicode="&#x4a9;" horiz-adv-x="1190" 
 />
    <glyph glyph-name="uni04AA" unicode="&#x4aa;" horiz-adv-x="1300" 
 />
    <glyph glyph-name="uni04AB" unicode="&#x4ab;" horiz-adv-x="1033" 
 />
    <glyph glyph-name="uni04AC" unicode="&#x4ac;" horiz-adv-x="1196" 
 />
    <glyph glyph-name="uni04AD" unicode="&#x4ad;" horiz-adv-x="954" 
 />
    <glyph glyph-name="uni04AE" unicode="&#x4ae;" horiz-adv-x="1199" 
 />
    <glyph glyph-name="uni04AF" unicode="&#x4af;" horiz-adv-x="982" 
 />
    <glyph glyph-name="uni04B0" unicode="&#x4b0;" horiz-adv-x="1199" 
 />
    <glyph glyph-name="uni04B1" unicode="&#x4b1;" horiz-adv-x="982" 
 />
    <glyph glyph-name="uni04B2" unicode="&#x4b2;" horiz-adv-x="1225" 
 />
    <glyph glyph-name="uni04B3" unicode="&#x4b3;" horiz-adv-x="976" 
 />
    <glyph glyph-name="uni04B4" unicode="&#x4b4;" horiz-adv-x="1735" 
 />
    <glyph glyph-name="uni04B5" unicode="&#x4b5;" horiz-adv-x="1309" 
 />
    <glyph glyph-name="uni04B6" unicode="&#x4b6;" horiz-adv-x="1332" 
 />
    <glyph glyph-name="uni04B7" unicode="&#x4b7;" horiz-adv-x="1067" 
 />
    <glyph glyph-name="uni04B8" unicode="&#x4b8;" horiz-adv-x="1327" 
 />
    <glyph glyph-name="uni04B9" unicode="&#x4b9;" horiz-adv-x="1102" 
 />
    <glyph glyph-name="uni04BA" unicode="&#x4ba;" horiz-adv-x="1327" 
 />
    <glyph glyph-name="uni04BB" unicode="&#x4bb;" horiz-adv-x="1100" 
 />
    <glyph glyph-name="uni04BC" unicode="&#x4bc;" horiz-adv-x="1510" 
 />
    <glyph glyph-name="uni04BD" unicode="&#x4bd;" horiz-adv-x="1182" 
 />
    <glyph glyph-name="uni04BE" unicode="&#x4be;" horiz-adv-x="1510" 
 />
    <glyph glyph-name="uni04BF" unicode="&#x4bf;" horiz-adv-x="1182" 
 />
    <glyph glyph-name="uni04C0" unicode="&#x4c0;" horiz-adv-x="539" 
 />
    <glyph glyph-name="uni04C1" unicode="&#x4c1;" horiz-adv-x="1758" 
 />
    <glyph glyph-name="uni04C2" unicode="&#x4c2;" horiz-adv-x="1534" 
 />
    <glyph glyph-name="uni04C3" unicode="&#x4c3;" horiz-adv-x="1228" 
 />
    <glyph glyph-name="uni04C4" unicode="&#x4c4;" horiz-adv-x="1058" 
 />
    <glyph glyph-name="uni04C5" unicode="&#x4c5;" horiz-adv-x="1405" 
 />
    <glyph glyph-name="uni04C6" unicode="&#x4c6;" horiz-adv-x="1128" 
 />
    <glyph glyph-name="uni04C7" unicode="&#x4c7;" horiz-adv-x="1410" 
 />
    <glyph glyph-name="uni04C8" unicode="&#x4c8;" horiz-adv-x="1116" 
 />
    <glyph glyph-name="uni04C9" unicode="&#x4c9;" horiz-adv-x="1416" 
 />
    <glyph glyph-name="uni04CA" unicode="&#x4ca;" horiz-adv-x="1126" 
 />
    <glyph glyph-name="uni04CB" unicode="&#x4cb;" horiz-adv-x="1332" 
 />
    <glyph glyph-name="uni04CC" unicode="&#x4cc;" horiz-adv-x="1067" 
 />
    <glyph glyph-name="uni04CD" unicode="&#x4cd;" horiz-adv-x="1729" 
 />
    <glyph glyph-name="uni04CE" unicode="&#x4ce;" horiz-adv-x="1462" 
 />
    <glyph glyph-name="uni04CF" unicode="&#x4cf;" horiz-adv-x="539" 
 />
    <glyph glyph-name="uni04D0" unicode="&#x4d0;" 
 />
    <glyph glyph-name="uni04D1" unicode="&#x4d1;" horiz-adv-x="1074" 
 />
    <glyph glyph-name="uni04D2" unicode="&#x4d2;" 
 />
    <glyph glyph-name="uni04D3" unicode="&#x4d3;" horiz-adv-x="1074" 
 />
    <glyph glyph-name="uni04D4" unicode="&#x4d4;" horiz-adv-x="1819" 
 />
    <glyph glyph-name="uni04D5" unicode="&#x4d5;" horiz-adv-x="1690" 
 />
    <glyph glyph-name="uni04D6" unicode="&#x4d6;" horiz-adv-x="1140" 
 />
    <glyph glyph-name="uni04D7" unicode="&#x4d7;" horiz-adv-x="1036" 
 />
    <glyph glyph-name="uni04D8" unicode="&#x4d8;" horiz-adv-x="1400" 
 />
    <glyph glyph-name="uni04D9" unicode="&#x4d9;" horiz-adv-x="1033" 
 />
    <glyph glyph-name="uni04DA" unicode="&#x4da;" horiz-adv-x="1400" 
 />
    <glyph glyph-name="uni04DB" unicode="&#x4db;" horiz-adv-x="1033" 
 />
    <glyph glyph-name="uni04DC" unicode="&#x4dc;" horiz-adv-x="1758" 
 />
    <glyph glyph-name="uni04DD" unicode="&#x4dd;" horiz-adv-x="1534" 
 />
    <glyph glyph-name="uni04DE" unicode="&#x4de;" horiz-adv-x="1191" 
 />
    <glyph glyph-name="uni04DF" unicode="&#x4df;" horiz-adv-x="1016" 
 />
    <glyph glyph-name="uni04E0" unicode="&#x4e0;" horiz-adv-x="1154" 
 />
    <glyph glyph-name="uni04E1" unicode="&#x4e1;" horiz-adv-x="1154" 
 />
    <glyph glyph-name="uni04E2" unicode="&#x4e2;" horiz-adv-x="1420" 
 />
    <glyph glyph-name="uni04E3" unicode="&#x4e3;" horiz-adv-x="1126" 
 />
    <glyph glyph-name="uni04E4" unicode="&#x4e4;" horiz-adv-x="1420" 
 />
    <glyph glyph-name="uni04E5" unicode="&#x4e5;" horiz-adv-x="1126" 
 />
    <glyph glyph-name="uni04E6" unicode="&#x4e6;" horiz-adv-x="1354" 
 />
    <glyph glyph-name="uni04E7" unicode="&#x4e7;" horiz-adv-x="1123" 
 />
    <glyph glyph-name="uni04E8" unicode="&#x4e8;" horiz-adv-x="1348" 
 />
    <glyph glyph-name="uni04E9" unicode="&#x4e9;" horiz-adv-x="1133" 
 />
    <glyph glyph-name="uni04EA" unicode="&#x4ea;" horiz-adv-x="1348" 
 />
    <glyph glyph-name="uni04EB" unicode="&#x4eb;" horiz-adv-x="1133" 
 />
    <glyph glyph-name="uni04EC" unicode="&#x4ec;" horiz-adv-x="1321" 
 />
    <glyph glyph-name="uni04ED" unicode="&#x4ed;" horiz-adv-x="1072" 
 />
    <glyph glyph-name="uni04EE" unicode="&#x4ee;" horiz-adv-x="1256" 
 />
    <glyph glyph-name="uni04EF" unicode="&#x4ef;" horiz-adv-x="954" 
 />
    <glyph glyph-name="uni04F0" unicode="&#x4f0;" horiz-adv-x="1256" 
 />
    <glyph glyph-name="uni04F1" unicode="&#x4f1;" horiz-adv-x="954" 
 />
    <glyph glyph-name="uni04F2" unicode="&#x4f2;" horiz-adv-x="1256" 
 />
    <glyph glyph-name="uni04F3" unicode="&#x4f3;" horiz-adv-x="954" 
 />
    <glyph glyph-name="uni04F4" unicode="&#x4f4;" horiz-adv-x="1332" 
 />
    <glyph glyph-name="uni04F5" unicode="&#x4f5;" horiz-adv-x="1067" 
 />
    <glyph glyph-name="uni04F6" unicode="&#x4f6;" horiz-adv-x="1106" 
 />
    <glyph glyph-name="uni04F7" unicode="&#x4f7;" horiz-adv-x="847" 
 />
    <glyph glyph-name="uni04F8" unicode="&#x4f8;" horiz-adv-x="1669" 
 />
    <glyph glyph-name="uni04F9" unicode="&#x4f9;" horiz-adv-x="1502" 
 />
    <glyph glyph-name="uni04FA" unicode="&#x4fa;" horiz-adv-x="1140" 
 />
    <glyph glyph-name="uni04FB" unicode="&#x4fb;" horiz-adv-x="827" 
 />
    <glyph glyph-name="uni04FC" unicode="&#x4fc;" horiz-adv-x="1225" 
 />
    <glyph glyph-name="uni04FD" unicode="&#x4fd;" horiz-adv-x="976" 
 />
    <glyph glyph-name="uni04FE" unicode="&#x4fe;" horiz-adv-x="1225" 
 />
    <glyph glyph-name="uni04FF" unicode="&#x4ff;" horiz-adv-x="976" 
 />
    <glyph glyph-name="uni0500" unicode="&#x500;" horiz-adv-x="1148" 
 />
    <glyph glyph-name="uni0501" unicode="&#x501;" horiz-adv-x="1114" 
 />
    <glyph glyph-name="uni0502" unicode="&#x502;" horiz-adv-x="1561" 
 />
    <glyph glyph-name="uni0503" unicode="&#x503;" horiz-adv-x="1716" 
 />
    <glyph glyph-name="uni0504" unicode="&#x504;" horiz-adv-x="1578" 
 />
    <glyph glyph-name="uni0505" unicode="&#x505;" horiz-adv-x="1288" 
 />
    <glyph glyph-name="uni0506" unicode="&#x506;" horiz-adv-x="1069" 
 />
    <glyph glyph-name="uni0507" unicode="&#x507;" horiz-adv-x="1005" 
 />
    <glyph glyph-name="uni0508" unicode="&#x508;" horiz-adv-x="1931" 
 />
    <glyph glyph-name="uni0509" unicode="&#x509;" horiz-adv-x="1609" 
 />
    <glyph glyph-name="uni050A" unicode="&#x50a;" horiz-adv-x="1945" 
 />
    <glyph glyph-name="uni050B" unicode="&#x50b;" horiz-adv-x="1651" 
 />
    <glyph glyph-name="uni050C" unicode="&#x50c;" horiz-adv-x="1237" 
 />
    <glyph glyph-name="uni050D" unicode="&#x50d;" horiz-adv-x="1027" 
 />
    <glyph glyph-name="uni050E" unicode="&#x50e;" horiz-adv-x="1415" 
 />
    <glyph glyph-name="uni050F" unicode="&#x50f;" horiz-adv-x="1278" 
 />
    <glyph glyph-name="uni0510" unicode="&#x510;" horiz-adv-x="1321" 
 />
    <glyph glyph-name="uni0511" unicode="&#x511;" horiz-adv-x="1090" 
 />
    <glyph glyph-name="uni0512" unicode="&#x512;" horiz-adv-x="1405" 
 />
    <glyph glyph-name="uni0513" unicode="&#x513;" horiz-adv-x="1128" 
 />
    <glyph glyph-name="uni1E00" unicode="&#x1e00;" 
 />
    <glyph glyph-name="uni1E01" unicode="&#x1e01;" horiz-adv-x="1074" 
 />
    <glyph glyph-name="uni1E3E" unicode="&#x1e3e;" horiz-adv-x="1729" 
 />
    <glyph glyph-name="uni1E3F" unicode="&#x1e3f;" horiz-adv-x="1771" 
 />
    <glyph glyph-name="Wgrave" unicode="&#x1e80;" horiz-adv-x="1791" 
 />
    <glyph glyph-name="wgrave" unicode="&#x1e81;" horiz-adv-x="1508" 
 />
    <glyph glyph-name="Wacute" unicode="&#x1e82;" horiz-adv-x="1791" 
 />
    <glyph glyph-name="wacute" unicode="&#x1e83;" horiz-adv-x="1508" 
 />
    <glyph glyph-name="Wdieresis" unicode="&#x1e84;" horiz-adv-x="1791" 
 />
    <glyph glyph-name="wdieresis" unicode="&#x1e85;" horiz-adv-x="1508" 
 />
    <glyph glyph-name="uni1EA0" unicode="&#x1ea0;" 
 />
    <glyph glyph-name="uni1EA1" unicode="&#x1ea1;" horiz-adv-x="1074" 
 />
    <glyph glyph-name="uni1EA2" unicode="&#x1ea2;" 
 />
    <glyph glyph-name="uni1EA3" unicode="&#x1ea3;" horiz-adv-x="1074" 
 />
    <glyph glyph-name="uni1EA4" unicode="&#x1ea4;" 
 />
    <glyph glyph-name="uni1EA5" unicode="&#x1ea5;" horiz-adv-x="1074" 
 />
    <glyph glyph-name="uni1EA6" unicode="&#x1ea6;" 
 />
    <glyph glyph-name="uni1EA7" unicode="&#x1ea7;" horiz-adv-x="1074" 
 />
    <glyph glyph-name="uni1EA8" unicode="&#x1ea8;" 
 />
    <glyph glyph-name="uni1EA9" unicode="&#x1ea9;" horiz-adv-x="1074" 
 />
    <glyph glyph-name="uni1EAA" unicode="&#x1eaa;" 
 />
    <glyph glyph-name="uni1EAB" unicode="&#x1eab;" horiz-adv-x="1074" 
 />
    <glyph glyph-name="uni1EAC" unicode="&#x1eac;" 
 />
    <glyph glyph-name="uni1EAD" unicode="&#x1ead;" horiz-adv-x="1074" 
 />
    <glyph glyph-name="uni1EAE" unicode="&#x1eae;" 
 />
    <glyph glyph-name="uni1EAF" unicode="&#x1eaf;" horiz-adv-x="1074" 
 />
    <glyph glyph-name="uni1EB0" unicode="&#x1eb0;" 
 />
    <glyph glyph-name="uni1EB1" unicode="&#x1eb1;" horiz-adv-x="1074" 
 />
    <glyph glyph-name="uni1EB2" unicode="&#x1eb2;" 
 />
    <glyph glyph-name="uni1EB3" unicode="&#x1eb3;" horiz-adv-x="1074" 
 />
    <glyph glyph-name="uni1EB4" unicode="&#x1eb4;" 
 />
    <glyph glyph-name="uni1EB5" unicode="&#x1eb5;" horiz-adv-x="1074" 
 />
    <glyph glyph-name="uni1EB6" unicode="&#x1eb6;" 
 />
    <glyph glyph-name="uni1EB7" unicode="&#x1eb7;" horiz-adv-x="1074" 
 />
    <glyph glyph-name="uni1EB8" unicode="&#x1eb8;" horiz-adv-x="1140" 
 />
    <glyph glyph-name="uni1EB9" unicode="&#x1eb9;" horiz-adv-x="1036" 
 />
    <glyph glyph-name="uni1EBA" unicode="&#x1eba;" horiz-adv-x="1140" 
 />
    <glyph glyph-name="uni1EBB" unicode="&#x1ebb;" horiz-adv-x="1036" 
 />
    <glyph glyph-name="uni1EBC" unicode="&#x1ebc;" horiz-adv-x="1140" 
 />
    <glyph glyph-name="uni1EBD" unicode="&#x1ebd;" horiz-adv-x="1036" 
 />
    <glyph glyph-name="uni1EBE" unicode="&#x1ebe;" horiz-adv-x="1140" 
 />
    <glyph glyph-name="uni1EBF" unicode="&#x1ebf;" horiz-adv-x="1036" 
 />
    <glyph glyph-name="uni1EC0" unicode="&#x1ec0;" horiz-adv-x="1140" 
 />
    <glyph glyph-name="uni1EC1" unicode="&#x1ec1;" horiz-adv-x="1036" 
 />
    <glyph glyph-name="uni1EC2" unicode="&#x1ec2;" horiz-adv-x="1140" 
 />
    <glyph glyph-name="uni1EC3" unicode="&#x1ec3;" horiz-adv-x="1036" 
 />
    <glyph glyph-name="uni1EC4" unicode="&#x1ec4;" horiz-adv-x="1140" 
 />
    <glyph glyph-name="uni1EC5" unicode="&#x1ec5;" horiz-adv-x="1036" 
 />
    <glyph glyph-name="uni1EC6" unicode="&#x1ec6;" horiz-adv-x="1140" 
 />
    <glyph glyph-name="uni1EC7" unicode="&#x1ec7;" horiz-adv-x="1036" 
 />
    <glyph glyph-name="uni1EC8" unicode="&#x1ec8;" horiz-adv-x="539" 
 />
    <glyph glyph-name="uni1EC9" unicode="&#x1ec9;" horiz-adv-x="452" 
 />
    <glyph glyph-name="uni1ECA" unicode="&#x1eca;" horiz-adv-x="539" 
 />
    <glyph glyph-name="uni1ECB" unicode="&#x1ecb;" horiz-adv-x="455" 
 />
    <glyph glyph-name="uni1ECC" unicode="&#x1ecc;" horiz-adv-x="1354" 
 />
    <glyph glyph-name="uni1ECD" unicode="&#x1ecd;" horiz-adv-x="1123" 
 />
    <glyph glyph-name="uni1ECE" unicode="&#x1ece;" horiz-adv-x="1354" 
 />
    <glyph glyph-name="uni1ECF" unicode="&#x1ecf;" horiz-adv-x="1123" 
 />
    <glyph glyph-name="uni1ED0" unicode="&#x1ed0;" horiz-adv-x="1354" 
 />
    <glyph glyph-name="uni1ED1" unicode="&#x1ed1;" horiz-adv-x="1123" 
 />
    <glyph glyph-name="uni1ED2" unicode="&#x1ed2;" horiz-adv-x="1354" 
 />
    <glyph glyph-name="uni1ED3" unicode="&#x1ed3;" horiz-adv-x="1123" 
 />
    <glyph glyph-name="uni1ED4" unicode="&#x1ed4;" horiz-adv-x="1354" 
 />
    <glyph glyph-name="uni1ED5" unicode="&#x1ed5;" horiz-adv-x="1123" 
 />
    <glyph glyph-name="uni1ED6" unicode="&#x1ed6;" horiz-adv-x="1354" 
 />
    <glyph glyph-name="uni1ED7" unicode="&#x1ed7;" horiz-adv-x="1123" 
 />
    <glyph glyph-name="uni1ED8" unicode="&#x1ed8;" horiz-adv-x="1354" 
 />
    <glyph glyph-name="uni1ED9" unicode="&#x1ed9;" horiz-adv-x="1123" 
 />
    <glyph glyph-name="uni1EDA" unicode="&#x1eda;" horiz-adv-x="1396" 
 />
    <glyph glyph-name="uni1EDB" unicode="&#x1edb;" horiz-adv-x="1122" 
 />
    <glyph glyph-name="uni1EDC" unicode="&#x1edc;" horiz-adv-x="1396" 
 />
    <glyph glyph-name="uni1EDD" unicode="&#x1edd;" horiz-adv-x="1122" 
 />
    <glyph glyph-name="uni1EDE" unicode="&#x1ede;" horiz-adv-x="1396" 
 />
    <glyph glyph-name="uni1EDF" unicode="&#x1edf;" horiz-adv-x="1122" 
 />
    <glyph glyph-name="uni1EE0" unicode="&#x1ee0;" horiz-adv-x="1396" 
 />
    <glyph glyph-name="uni1EE1" unicode="&#x1ee1;" horiz-adv-x="1122" 
 />
    <glyph glyph-name="uni1EE2" unicode="&#x1ee2;" horiz-adv-x="1396" 
 />
    <glyph glyph-name="uni1EE3" unicode="&#x1ee3;" horiz-adv-x="1122" 
 />
    <glyph glyph-name="uni1EE4" unicode="&#x1ee4;" horiz-adv-x="1316" 
 />
    <glyph glyph-name="uni1EE5" unicode="&#x1ee5;" horiz-adv-x="1101" 
 />
    <glyph glyph-name="uni1EE6" unicode="&#x1ee6;" horiz-adv-x="1316" 
 />
    <glyph glyph-name="uni1EE7" unicode="&#x1ee7;" horiz-adv-x="1101" 
 />
    <glyph glyph-name="uni1EE8" unicode="&#x1ee8;" horiz-adv-x="1363" 
 />
    <glyph glyph-name="uni1EE9" unicode="&#x1ee9;" horiz-adv-x="1174" 
 />
    <glyph glyph-name="uni1EEA" unicode="&#x1eea;" horiz-adv-x="1363" 
 />
    <glyph glyph-name="uni1EEB" unicode="&#x1eeb;" horiz-adv-x="1174" 
 />
    <glyph glyph-name="uni1EEC" unicode="&#x1eec;" horiz-adv-x="1363" 
 />
    <glyph glyph-name="uni1EED" unicode="&#x1eed;" horiz-adv-x="1174" 
 />
    <glyph glyph-name="uni1EEE" unicode="&#x1eee;" horiz-adv-x="1363" 
 />
    <glyph glyph-name="uni1EEF" unicode="&#x1eef;" horiz-adv-x="1174" 
 />
    <glyph glyph-name="uni1EF0" unicode="&#x1ef0;" horiz-adv-x="1363" 
 />
    <glyph glyph-name="uni1EF1" unicode="&#x1ef1;" horiz-adv-x="1174" 
 />
    <glyph glyph-name="Ygrave" unicode="&#x1ef2;" horiz-adv-x="1199" 
 />
    <glyph glyph-name="ygrave" unicode="&#x1ef3;" horiz-adv-x="954" 
 />
    <glyph glyph-name="uni1EF4" unicode="&#x1ef4;" horiz-adv-x="1199" 
 />
    <glyph glyph-name="uni1EF5" unicode="&#x1ef5;" horiz-adv-x="954" 
 />
    <glyph glyph-name="uni1EF6" unicode="&#x1ef6;" horiz-adv-x="1199" 
 />
    <glyph glyph-name="uni1EF7" unicode="&#x1ef7;" horiz-adv-x="954" 
 />
    <glyph glyph-name="uni1EF8" unicode="&#x1ef8;" horiz-adv-x="1199" 
 />
    <glyph glyph-name="uni1EF9" unicode="&#x1ef9;" horiz-adv-x="954" 
 />
    <glyph glyph-name="uni1F4D" unicode="&#x1f4d;" horiz-adv-x="1354" 
 />
    <glyph glyph-name="uni2000" unicode="&#x2000;" horiz-adv-x="1023" 
 />
    <glyph glyph-name="uni2001" unicode="&#x2001;" horiz-adv-x="2036" 
 />
    <glyph glyph-name="uni2002" unicode="&#x2002;" horiz-adv-x="1023" 
 />
    <glyph glyph-name="uni2003" unicode="&#x2003;" horiz-adv-x="2036" 
 />
    <glyph glyph-name="uni2004" unicode="&#x2004;" horiz-adv-x="686" 
 />
    <glyph glyph-name="uni2005" unicode="&#x2005;" horiz-adv-x="516" 
 />
    <glyph glyph-name="uni2006" unicode="&#x2006;" horiz-adv-x="348" 
 />
    <glyph glyph-name="uni2007" unicode="&#x2007;" horiz-adv-x="1126" 
 />
    <glyph glyph-name="uni2008" unicode="&#x2008;" horiz-adv-x="553" 
 />
    <glyph glyph-name="uni2009" unicode="&#x2009;" horiz-adv-x="415" 
 />
    <glyph glyph-name="uni200A" unicode="&#x200a;" horiz-adv-x="213" 
 />
    <glyph glyph-name="uni200B" unicode="&#x200b;" horiz-adv-x="10" 
 />
    <glyph glyph-name="endash" unicode="&#x2013;" horiz-adv-x="1304" 
 />
    <glyph glyph-name="emdash" unicode="&#x2014;" horiz-adv-x="1543" 
 />
    <glyph glyph-name="uni2015" unicode="&#x2015;" horiz-adv-x="1543" 
 />
    <glyph glyph-name="underscoredbl" unicode="&#x2017;" horiz-adv-x="910" 
 />
    <glyph glyph-name="quoteleft" unicode="&#x2018;" horiz-adv-x="363" 
 />
    <glyph glyph-name="quoteright" unicode="&#x2019;" horiz-adv-x="363" 
 />
    <glyph glyph-name="quotesinglbase" unicode="&#x201a;" horiz-adv-x="352" 
 />
    <glyph glyph-name="quotereversed" unicode="&#x201b;" horiz-adv-x="364" 
 />
    <glyph glyph-name="quotedblleft" unicode="&#x201c;" horiz-adv-x="604" 
 />
    <glyph glyph-name="quotedblright" unicode="&#x201d;" horiz-adv-x="608" 
 />
    <glyph glyph-name="quotedblbase" unicode="&#x201e;" horiz-adv-x="585" 
 />
    <glyph glyph-name="dagger" unicode="&#x2020;" horiz-adv-x="1103" 
 />
    <glyph glyph-name="daggerdbl" unicode="&#x2021;" horiz-adv-x="1129" 
 />
    <glyph glyph-name="bullet" unicode="&#x2022;" horiz-adv-x="652" 
 />
    <glyph glyph-name="twodotenleader" unicode="&#x2025;" horiz-adv-x="911" 
 />
    <glyph glyph-name="ellipsis" unicode="&#x2026;" horiz-adv-x="1284" 
 />
    <glyph glyph-name="perthousand" unicode="&#x2030;" horiz-adv-x="1948" 
 />
    <glyph glyph-name="minute" unicode="&#x2032;" horiz-adv-x="348" 
 />
    <glyph glyph-name="second" unicode="&#x2033;" horiz-adv-x="580" 
 />
    <glyph glyph-name="guilsinglleft" unicode="&#x2039;" horiz-adv-x="601" 
 />
    <glyph glyph-name="guilsinglright" unicode="&#x203a;" horiz-adv-x="601" 
 />
    <glyph glyph-name="exclamdbl" unicode="&#x203c;" horiz-adv-x="916" 
 />
    <glyph glyph-name="fraction" unicode="&#x2044;" horiz-adv-x="900" 
 />
    <glyph glyph-name="uni2074" unicode="&#x2074;" horiz-adv-x="728" 
 />
    <glyph glyph-name="uni207F" unicode="&#x207f;" horiz-adv-x="846" 
 />
    <glyph glyph-name="franc" unicode="&#x20a3;" horiz-adv-x="1127" 
 />
    <glyph glyph-name="lira" unicode="&#x20a4;" horiz-adv-x="1145" 
 />
    <glyph glyph-name="peseta" unicode="&#x20a7;" horiz-adv-x="1635" 
 />
    <glyph glyph-name="dong" unicode="&#x20ab;" horiz-adv-x="1144" 
 />
    <glyph glyph-name="Euro" unicode="&#x20ac;" horiz-adv-x="1111" 
 />
    <glyph glyph-name="uni2105" unicode="&#x2105;" horiz-adv-x="1471" 
 />
    <glyph glyph-name="uni2113" unicode="&#x2113;" horiz-adv-x="934" 
 />
    <glyph glyph-name="uni2116" unicode="&#x2116;" horiz-adv-x="2035" 
 />
    <glyph glyph-name="trademark" unicode="&#x2122;" horiz-adv-x="1236" 
 />
    <glyph glyph-name="estimated" unicode="&#x212e;" horiz-adv-x="1269" 
 />
    <glyph glyph-name="oneeighth" unicode="&#x215b;" horiz-adv-x="1530" 
 />
    <glyph glyph-name="threeeighths" unicode="&#x215c;" horiz-adv-x="1713" 
 />
    <glyph glyph-name="fiveeighths" unicode="&#x215d;" horiz-adv-x="1690" 
 />
    <glyph glyph-name="seveneighths" unicode="&#x215e;" horiz-adv-x="1603" 
 />
    <glyph glyph-name="partialdiff" unicode="&#x2202;" horiz-adv-x="1144" 
 />
    <glyph glyph-name="product" unicode="&#x220f;" horiz-adv-x="1316" 
 />
    <glyph glyph-name="summation" unicode="&#x2211;" horiz-adv-x="1157" 
 />
    <glyph glyph-name="minus" unicode="&#x2212;" horiz-adv-x="1143" 
 />
    <glyph glyph-name="radical" unicode="&#x221a;" horiz-adv-x="1094" 
 />
    <glyph glyph-name="infinity" unicode="&#x221e;" horiz-adv-x="2109" 
 />
    <glyph glyph-name="integral" unicode="&#x222b;" horiz-adv-x="513" 
 />
    <glyph glyph-name="approxequal" unicode="&#x2248;" horiz-adv-x="1129" 
 />
    <glyph glyph-name="notequal" unicode="&#x2260;" horiz-adv-x="1109" 
 />
    <glyph glyph-name="lessequal" unicode="&#x2264;" horiz-adv-x="1026" 
 />
    <glyph glyph-name="greaterequal" unicode="&#x2265;" horiz-adv-x="1040" 
 />
    <glyph glyph-name="lozenge" unicode="&#x25ca;" horiz-adv-x="1013" 
 />
    <glyph glyph-name="uniEE01" unicode="&#xee01;" horiz-adv-x="513" 
 />
    <glyph glyph-name="uniEE02" unicode="&#xee02;" horiz-adv-x="580" 
 />
    <glyph glyph-name="uniF6C3" unicode="&#xf6c3;" horiz-adv-x="482" 
 />
    <glyph glyph-name="uniFB01" unicode="&#xfb01;" horiz-adv-x="1077" 
 />
    <glyph glyph-name="uniFB02" unicode="&#xfb02;" horiz-adv-x="1123" 
 />
    <glyph glyph-name="uniFB03" unicode="&#xfb03;" horiz-adv-x="1745" 
 />
    <glyph glyph-name="uniFB04" unicode="&#xfb04;" horiz-adv-x="1791" 
 />
    <glyph glyph-name="uniFEFF" unicode="&#xfeff;" horiz-adv-x="10" 
 />
    <glyph glyph-name="uniFFFC" unicode="&#xfffc;" horiz-adv-x="2041" 
 />
    <glyph glyph-name="uniFFFD" unicode="&#xfffd;" horiz-adv-x="2101" 
 />
    <glyph glyph-name="NameMe.0" horiz-adv-x="493" 
 />
    <glyph glyph-name="NameMe.1" horiz-adv-x="0" 
 />
    <glyph glyph-name="NameMe.2" horiz-adv-x="493" 
 />
    <glyph glyph-name="NameMe.4" horiz-adv-x="580" 
 />
    <glyph glyph-name="NameMe.5" horiz-adv-x="1242" 
 />
    <glyph glyph-name="NameMe.6" horiz-adv-x="1111" 
 />
    <glyph glyph-name="NameMe.7" horiz-adv-x="1478" 
 />
    <glyph glyph-name="NameMe.8" horiz-adv-x="1232" 
 />
    <glyph glyph-name="NameMe.9" horiz-adv-x="348" 
 />
    <glyph glyph-name="NameMe.10" horiz-adv-x="643" 
 />
    <glyph glyph-name="NameMe.11" horiz-adv-x="657" 
 />
    <glyph glyph-name="NameMe.12" horiz-adv-x="853" 
 />
    <glyph glyph-name="NameMe.13" horiz-adv-x="1131" 
 />
    <glyph glyph-name="NameMe.14" horiz-adv-x="390" 
 />
    <glyph glyph-name="NameMe.15" horiz-adv-x="578" 
 />
    <glyph glyph-name="NameMe.16" horiz-adv-x="484" 
 />
    <glyph glyph-name="NameMe.17" horiz-adv-x="799" 
 />
    <glyph glyph-name="NameMe.18" horiz-adv-x="1111" 
 />
    <glyph glyph-name="NameMe.19" horiz-adv-x="1111" 
 />
    <glyph glyph-name="NameMe.20" horiz-adv-x="1111" 
 />
    <glyph glyph-name="NameMe.21" horiz-adv-x="1111" 
 />
    <glyph glyph-name="NameMe.22" horiz-adv-x="1111" 
 />
    <glyph glyph-name="NameMe.23" horiz-adv-x="1111" 
 />
    <glyph glyph-name="NameMe.24" horiz-adv-x="1111" 
 />
    <glyph glyph-name="NameMe.25" horiz-adv-x="1111" 
 />
    <glyph glyph-name="NameMe.26" horiz-adv-x="1111" 
 />
    <glyph glyph-name="NameMe.27" horiz-adv-x="1111" 
 />
    <glyph glyph-name="NameMe.28" horiz-adv-x="427" 
 />
    <glyph glyph-name="NameMe.29" horiz-adv-x="397" 
 />
    <glyph glyph-name="NameMe.30" horiz-adv-x="1026" 
 />
    <glyph glyph-name="NameMe.31" horiz-adv-x="1109" 
 />
    <glyph glyph-name="NameMe.32" horiz-adv-x="1039" 
 />
    <glyph glyph-name="NameMe.33" horiz-adv-x="912" 
 />
    <glyph glyph-name="NameMe.34" horiz-adv-x="1824" 
 />
    <glyph glyph-name="NameMe.35" 
 />
    <glyph glyph-name="NameMe.36" horiz-adv-x="1227" 
 />
    <glyph glyph-name="NameMe.40" horiz-adv-x="1127" 
 />
    <glyph glyph-name="NameMe.41" horiz-adv-x="1368" 
 />
    <glyph glyph-name="NameMe.42" horiz-adv-x="1416" 
 />
    <glyph glyph-name="NameMe.43" horiz-adv-x="539" 
 />
    <glyph glyph-name="NameMe.44" horiz-adv-x="1103" 
 />
    <glyph glyph-name="NameMe.45" horiz-adv-x="1263" 
 />
    <glyph glyph-name="NameMe.46" horiz-adv-x="1057" 
 />
    <glyph glyph-name="NameMe.48" horiz-adv-x="1420" 
 />
    <glyph glyph-name="NameMe.49" horiz-adv-x="1354" 
 />
    <glyph glyph-name="NameMe.50" horiz-adv-x="1233" 
 />
    <glyph glyph-name="NameMe.51" horiz-adv-x="1354" 
 />
    <glyph glyph-name="NameMe.52" horiz-adv-x="1271" 
 />
    <glyph glyph-name="NameMe.53" horiz-adv-x="1187" 
 />
    <glyph glyph-name="NameMe.54" horiz-adv-x="1196" 
 />
    <glyph glyph-name="NameMe.55" horiz-adv-x="1316" 
 />
    <glyph glyph-name="NameMe.57" horiz-adv-x="1791" 
 />
    <glyph glyph-name="NameMe.58" horiz-adv-x="1225" 
 />
    <glyph glyph-name="NameMe.59" horiz-adv-x="1199" 
 />
    <glyph glyph-name="NameMe.60" horiz-adv-x="1198" 
 />
    <glyph glyph-name="NameMe.61" horiz-adv-x="486" 
 />
    <glyph glyph-name="NameMe.62" horiz-adv-x="793" 
 />
    <glyph glyph-name="NameMe.63" horiz-adv-x="486" 
 />
    <glyph glyph-name="NameMe.64" horiz-adv-x="836" 
 />
    <glyph glyph-name="NameMe.65" horiz-adv-x="867" 
 />
    <glyph glyph-name="NameMe.66" horiz-adv-x="577" 
 />
    <glyph glyph-name="NameMe.68" horiz-adv-x="1111" 
 />
    <glyph glyph-name="NameMe.70" horiz-adv-x="1114" 
 />
    <glyph glyph-name="NameMe.72" horiz-adv-x="668" 
 />
    <glyph glyph-name="NameMe.76" horiz-adv-x="463" 
 />
    <glyph glyph-name="NameMe.77" horiz-adv-x="983" 
 />
    <glyph glyph-name="NameMe.78" horiz-adv-x="455" 
 />
    <glyph glyph-name="NameMe.79" horiz-adv-x="1771" 
 />
    <glyph glyph-name="NameMe.83" horiz-adv-x="1118" 
 />
    <glyph glyph-name="NameMe.89" horiz-adv-x="1508" 
 />
    <glyph glyph-name="NameMe.91" horiz-adv-x="954" 
 />
    <glyph glyph-name="NameMe.92" horiz-adv-x="976" 
 />
    <glyph glyph-name="NameMe.93" horiz-adv-x="666" 
 />
    <glyph glyph-name="NameMe.94" horiz-adv-x="448" 
 />
    <glyph glyph-name="NameMe.95" horiz-adv-x="666" 
 />
    <glyph glyph-name="NameMe.96" horiz-adv-x="1370" 
 />
    <glyph glyph-name="NameMe.97" horiz-adv-x="448" 
 />
    <glyph glyph-name="NameMe.98" horiz-adv-x="1092" 
 />
    <glyph glyph-name="NameMe.99" horiz-adv-x="1145" 
 />
    <glyph glyph-name="NameMe.100" horiz-adv-x="1447" 
 />
    <glyph glyph-name="NameMe.101" horiz-adv-x="1196" 
 />
    <glyph glyph-name="NameMe.102" horiz-adv-x="441" 
 />
    <glyph glyph-name="NameMe.103" horiz-adv-x="1212" 
 />
    <glyph glyph-name="NameMe.104" horiz-adv-x="865" 
 />
    <glyph glyph-name="NameMe.105" horiz-adv-x="1598" 
 />
    <glyph glyph-name="NameMe.106" horiz-adv-x="889" 
 />
    <glyph glyph-name="NameMe.107" horiz-adv-x="915" 
 />
    <glyph glyph-name="NameMe.108" horiz-adv-x="1093" 
 />
    <glyph glyph-name="NameMe.109" horiz-adv-x="1603" 
 />
    <glyph glyph-name="NameMe.110" horiz-adv-x="858" 
 />
    <glyph glyph-name="NameMe.111" horiz-adv-x="761" 
 />
    <glyph glyph-name="NameMe.112" horiz-adv-x="1063" 
 />
    <glyph glyph-name="NameMe.113" horiz-adv-x="728" 
 />
    <glyph glyph-name="NameMe.114" horiz-adv-x="728" 
 />
    <glyph glyph-name="NameMe.115" horiz-adv-x="569" 
 />
    <glyph glyph-name="NameMe.116" horiz-adv-x="1116" 
 />
    <glyph glyph-name="NameMe.117" horiz-adv-x="954" 
 />
    <glyph glyph-name="NameMe.118" horiz-adv-x="498" 
 />
    <glyph glyph-name="NameMe.119" horiz-adv-x="493" 
 />
    <glyph glyph-name="NameMe.120" horiz-adv-x="664" 
 />
    <glyph glyph-name="NameMe.121" horiz-adv-x="904" 
 />
    <glyph glyph-name="NameMe.122" horiz-adv-x="910" 
 />
    <glyph glyph-name="NameMe.123" horiz-adv-x="1449" 
 />
    <glyph glyph-name="NameMe.124" horiz-adv-x="1512" 
 />
    <glyph glyph-name="NameMe.125" horiz-adv-x="1552" 
 />
    <glyph glyph-name="NameMe.126" horiz-adv-x="922" 
 />
    <glyph glyph-name="NameMe.127" horiz-adv-x="1819" 
 />
    <glyph glyph-name="NameMe.128" horiz-adv-x="1050" 
 />
    <glyph glyph-name="NameMe.129" horiz-adv-x="1354" 
 />
    <glyph glyph-name="NameMe.130" horiz-adv-x="1188" 
 />
    <glyph glyph-name="NameMe.131" horiz-adv-x="1174" 
 />
    <glyph glyph-name="NameMe.132" horiz-adv-x="1690" 
 />
    <glyph glyph-name="NameMe.133" horiz-adv-x="1165" 
 />
    <glyph glyph-name="NameMe.134" horiz-adv-x="1139" 
 />
    <glyph glyph-name="NameMe.135" horiz-adv-x="1117" 
 />
    <glyph glyph-name="NameMe.136" horiz-adv-x="1126" 
 />
    <glyph glyph-name="NameMe.137" horiz-adv-x="1380" 
 />
    <glyph glyph-name="NameMe.138" horiz-adv-x="452" 
 />
    <glyph glyph-name="NameMe.139" horiz-adv-x="1088" 
 />
    <glyph glyph-name="NameMe.140" horiz-adv-x="1060" 
 />
    <glyph glyph-name="NameMe.141" horiz-adv-x="523" 
 />
    <glyph glyph-name="NameMe.142" horiz-adv-x="1401" 
 />
    <glyph glyph-name="NameMe.143" horiz-adv-x="1116" 
 />
    <glyph glyph-name="NameMe.144" horiz-adv-x="1866" 
 />
    <glyph glyph-name="NameMe.145" horiz-adv-x="1845" 
 />
    <glyph glyph-name="NameMe.146" horiz-adv-x="461" 
 />
    <glyph glyph-name="NameMe.147" horiz-adv-x="660" 
 />
    <glyph glyph-name="NameMe.148" horiz-adv-x="1396" 
 />
    <glyph glyph-name="NameMe.149" horiz-adv-x="1122" 
 />
    <glyph glyph-name="NameMe.150" horiz-adv-x="1363" 
 />
    <glyph glyph-name="NameMe.151" horiz-adv-x="1174" 
 />
    <glyph glyph-name="NameMe.152" horiz-adv-x="464" 
 />
    <glyph glyph-name="NameMe.153" horiz-adv-x="1033" 
 />
    <glyph glyph-name="NameMe.154" horiz-adv-x="864" 
 />
    <glyph glyph-name="NameMe.155" horiz-adv-x="821" 
 />
    <glyph glyph-name="NameMe.156" horiz-adv-x="849" 
 />
    <glyph glyph-name="NameMe.157" horiz-adv-x="455" 
 />
    <glyph glyph-name="NameMe.158" horiz-adv-x="626" 
 />
    <glyph glyph-name="NameMe.159" horiz-adv-x="507" 
 />
    <glyph glyph-name="NameMe.160" horiz-adv-x="874" 
 />
    <glyph glyph-name="NameMe.161" horiz-adv-x="760" 
 />
    <glyph glyph-name="NameMe.162" horiz-adv-x="613" 
 />
    <glyph glyph-name="NameMe.163" horiz-adv-x="10" 
 />
    <glyph glyph-name="NameMe.164" horiz-adv-x="10" 
 />
    <glyph glyph-name="NameMe.165" horiz-adv-x="10" 
 />
    <glyph glyph-name="NameMe.166" horiz-adv-x="10" 
 />
    <glyph glyph-name="NameMe.167" horiz-adv-x="10" 
 />
    <glyph glyph-name="NameMe.168" horiz-adv-x="250" 
 />
    <glyph glyph-name="NameMe.169" horiz-adv-x="513" 
 />
    <glyph glyph-name="NameMe.170" horiz-adv-x="962" 
 />
    <glyph glyph-name="NameMe.171" horiz-adv-x="498" 
 />
    <glyph glyph-name="NameMe.172" horiz-adv-x="1106" 
 />
    <glyph glyph-name="NameMe.173" horiz-adv-x="1394" 
 />
    <glyph glyph-name="NameMe.174" horiz-adv-x="1348" 
 />
    <glyph glyph-name="NameMe.175" horiz-adv-x="1297" 
 />
    <glyph glyph-name="NameMe.176" horiz-adv-x="1121" 
 />
    <glyph glyph-name="NameMe.177" horiz-adv-x="1416" 
 />
    <glyph glyph-name="NameMe.178" horiz-adv-x="1121" 
 />
    <glyph glyph-name="NameMe.179" horiz-adv-x="1430" 
 />
    <glyph glyph-name="NameMe.180" horiz-adv-x="1389" 
 />
    <glyph glyph-name="NameMe.181" horiz-adv-x="1311" 
 />
    <glyph glyph-name="NameMe.182" horiz-adv-x="1128" 
 />
    <glyph glyph-name="NameMe.183" horiz-adv-x="1187" 
 />
    <glyph glyph-name="NameMe.184" horiz-adv-x="982" 
 />
    <glyph glyph-name="NameMe.185" horiz-adv-x="1116" 
 />
    <glyph glyph-name="NameMe.186" horiz-adv-x="1090" 
 />
    <glyph glyph-name="NameMe.187" horiz-adv-x="987" 
 />
    <glyph glyph-name="NameMe.188" horiz-adv-x="1116" 
 />
    <glyph glyph-name="NameMe.189" horiz-adv-x="1148" 
 />
    <glyph glyph-name="NameMe.190" horiz-adv-x="606" 
 />
    <glyph glyph-name="NameMe.191" horiz-adv-x="1103" 
 />
    <glyph glyph-name="NameMe.192" horiz-adv-x="985" 
 />
    <glyph glyph-name="NameMe.193" horiz-adv-x="1193" 
 />
    <glyph glyph-name="NameMe.194" horiz-adv-x="1116" 
 />
    <glyph glyph-name="NameMe.195" horiz-adv-x="1072" 
 />
    <glyph glyph-name="NameMe.196" horiz-adv-x="1114" 
 />
    <glyph glyph-name="NameMe.197" horiz-adv-x="1026" 
 />
    <glyph glyph-name="NameMe.198" horiz-adv-x="1072" 
 />
    <glyph glyph-name="NameMe.199" horiz-adv-x="1372" 
 />
    <glyph glyph-name="NameMe.200" horiz-adv-x="1368" 
 />
    <glyph glyph-name="NameMe.201" horiz-adv-x="1647" 
 />
    <glyph glyph-name="NameMe.202" horiz-adv-x="1150" 
 />
    <glyph glyph-name="NameMe.203" horiz-adv-x="1075" 
 />
    <glyph glyph-name="NameMe.204" horiz-adv-x="1572" 
 />
    <glyph glyph-name="NameMe.205" horiz-adv-x="1488" 
 />
    <glyph glyph-name="NameMe.206" horiz-adv-x="1321" 
 />
    <glyph glyph-name="NameMe.207" horiz-adv-x="2149" 
 />
    <glyph glyph-name="NameMe.208" horiz-adv-x="2154" 
 />
    <glyph glyph-name="NameMe.209" horiz-adv-x="1608" 
 />
    <glyph glyph-name="NameMe.210" horiz-adv-x="1411" 
 />
    <glyph glyph-name="NameMe.211" horiz-adv-x="1256" 
 />
    <glyph glyph-name="NameMe.212" horiz-adv-x="1448" 
 />
    <glyph glyph-name="NameMe.213" horiz-adv-x="1758" 
 />
    <glyph glyph-name="NameMe.214" horiz-adv-x="1191" 
 />
    <glyph glyph-name="NameMe.215" horiz-adv-x="1420" 
 />
    <glyph glyph-name="NameMe.216" horiz-adv-x="1405" 
 />
    <glyph glyph-name="NameMe.217" horiz-adv-x="1256" 
 />
    <glyph glyph-name="NameMe.218" horiz-adv-x="1485" 
 />
    <glyph glyph-name="NameMe.219" horiz-adv-x="1427" 
 />
    <glyph glyph-name="NameMe.220" horiz-adv-x="1332" 
 />
    <glyph glyph-name="NameMe.221" horiz-adv-x="1849" 
 />
    <glyph glyph-name="NameMe.222" horiz-adv-x="1883" 
 />
    <glyph glyph-name="NameMe.223" horiz-adv-x="1548" 
 />
    <glyph glyph-name="NameMe.224" horiz-adv-x="1669" 
 />
    <glyph glyph-name="NameMe.225" horiz-adv-x="1226" 
 />
    <glyph glyph-name="NameMe.226" horiz-adv-x="1321" 
 />
    <glyph glyph-name="NameMe.227" horiz-adv-x="1818" 
 />
    <glyph glyph-name="NameMe.228" horiz-adv-x="1224" 
 />
    <glyph glyph-name="NameMe.229" horiz-adv-x="1103" 
 />
    <glyph glyph-name="NameMe.230" horiz-adv-x="1121" 
 />
    <glyph glyph-name="NameMe.231" horiz-adv-x="847" 
 />
    <glyph glyph-name="NameMe.232" horiz-adv-x="1149" 
 />
    <glyph glyph-name="NameMe.233" horiz-adv-x="1534" 
 />
    <glyph glyph-name="NameMe.234" horiz-adv-x="1016" 
 />
    <glyph glyph-name="NameMe.235" horiz-adv-x="1126" 
 />
    <glyph glyph-name="NameMe.236" horiz-adv-x="1039" 
 />
    <glyph glyph-name="NameMe.237" horiz-adv-x="1128" 
 />
    <glyph glyph-name="NameMe.238" horiz-adv-x="1462" 
 />
    <glyph glyph-name="NameMe.239" horiz-adv-x="1126" 
 />
    <glyph glyph-name="NameMe.240" horiz-adv-x="1126" 
 />
    <glyph glyph-name="NameMe.241" horiz-adv-x="954" 
 />
    <glyph glyph-name="NameMe.242" horiz-adv-x="1449" 
 />
    <glyph glyph-name="NameMe.243" horiz-adv-x="1141" 
 />
    <glyph glyph-name="NameMe.244" horiz-adv-x="1067" 
 />
    <glyph glyph-name="NameMe.245" horiz-adv-x="1586" 
 />
    <glyph glyph-name="NameMe.246" horiz-adv-x="1604" 
 />
    <glyph glyph-name="NameMe.247" horiz-adv-x="1261" 
 />
    <glyph glyph-name="NameMe.248" horiz-adv-x="1502" 
 />
    <glyph glyph-name="NameMe.249" horiz-adv-x="1073" 
 />
    <glyph glyph-name="NameMe.250" horiz-adv-x="1072" 
 />
    <glyph glyph-name="NameMe.251" horiz-adv-x="1625" 
 />
    <glyph glyph-name="NameMe.252" horiz-adv-x="1089" 
 />
    <glyph glyph-name="NameMe.253" horiz-adv-x="1101" 
 />
    <glyph glyph-name="NameMe.254" horiz-adv-x="1072" 
 />
    <glyph glyph-name="NameMe.255" horiz-adv-x="1708" 
 />
    <glyph glyph-name="glyph406" horiz-adv-x="727" 
 />
    <glyph glyph-name="glyph407" horiz-adv-x="754" 
 />
    <glyph glyph-name="glyph408" horiz-adv-x="868" 
 />
    <glyph glyph-name="glyph409" horiz-adv-x="846" 
 />
    <glyph glyph-name="glyph410" horiz-adv-x="909" 
 />
    <glyph glyph-name="glyph411" horiz-adv-x="450" 
 />
    <glyph glyph-name="glyph412" horiz-adv-x="1084" 
 />
    <glyph glyph-name="glyph413" horiz-adv-x="1061" 
 />
    <glyph glyph-name="glyph414" horiz-adv-x="1120" 
 />
    <glyph glyph-name="glyph415" horiz-adv-x="1127" 
 />
    <glyph glyph-name="glyph416" horiz-adv-x="980" 
 />
    <glyph glyph-name="glyph417" horiz-adv-x="968" 
 />
    <glyph glyph-name="glyph418" horiz-adv-x="1176" 
 />
    <glyph glyph-name="glyph419" horiz-adv-x="1217" 
 />
    <glyph glyph-name="glyph420" horiz-adv-x="470" 
 />
    <glyph glyph-name="glyph421" horiz-adv-x="952" 
 />
    <glyph glyph-name="glyph422" horiz-adv-x="1089" 
 />
    <glyph glyph-name="glyph423" horiz-adv-x="912" 
 />
    <glyph glyph-name="glyph424" horiz-adv-x="1489" 
 />
    <glyph glyph-name="glyph425" horiz-adv-x="1221" 
 />
    <glyph glyph-name="glyph426" horiz-adv-x="1167" 
 />
    <glyph glyph-name="glyph427" horiz-adv-x="1065" 
 />
    <glyph glyph-name="glyph428" horiz-adv-x="1167" 
 />
    <glyph glyph-name="glyph429" horiz-adv-x="1098" 
 />
    <glyph glyph-name="glyph430" horiz-adv-x="1027" 
 />
    <glyph glyph-name="glyph431" horiz-adv-x="1035" 
 />
    <glyph glyph-name="glyph432" horiz-adv-x="1134" 
 />
    <glyph glyph-name="glyph433" horiz-adv-x="1068" 
 />
    <glyph glyph-name="glyph434" horiz-adv-x="1538" 
 />
    <glyph glyph-name="glyph435" horiz-adv-x="1059" 
 />
    <glyph glyph-name="glyph436" horiz-adv-x="1037" 
 />
    <glyph glyph-name="glyph437" horiz-adv-x="1034" 
 />
    <glyph glyph-name="glyph438" horiz-adv-x="1003" 
 />
    <glyph glyph-name="glyph439" horiz-adv-x="1003" 
 />
    <glyph glyph-name="glyph440" horiz-adv-x="1003" 
 />
    <glyph glyph-name="glyph441" horiz-adv-x="1003" 
 />
    <glyph glyph-name="glyph442" horiz-adv-x="1003" 
 />
    <glyph glyph-name="glyph443" horiz-adv-x="1003" 
 />
    <glyph glyph-name="glyph444" horiz-adv-x="1003" 
 />
    <glyph glyph-name="glyph445" horiz-adv-x="1003" 
 />
    <glyph glyph-name="glyph446" horiz-adv-x="1003" 
 />
    <glyph glyph-name="glyph447" horiz-adv-x="1003" 
 />
    <glyph glyph-name="glyph448" horiz-adv-x="909" 
 />
    <glyph glyph-name="glyph449" horiz-adv-x="727" 
 />
    <glyph glyph-name="glyph450" horiz-adv-x="727" 
 />
    <glyph glyph-name="glyph451" horiz-adv-x="727" 
 />
    <glyph glyph-name="glyph452" horiz-adv-x="727" 
 />
    <glyph glyph-name="glyph453" horiz-adv-x="727" 
 />
    <glyph glyph-name="glyph454" horiz-adv-x="727" 
 />
    <glyph glyph-name="glyph455" horiz-adv-x="727" 
 />
    <glyph glyph-name="glyph456" horiz-adv-x="727" 
 />
    <glyph glyph-name="glyph457" horiz-adv-x="727" 
 />
    <glyph glyph-name="glyph458" horiz-adv-x="848" 
 />
    <glyph glyph-name="glyph459" horiz-adv-x="666" 
 />
    <glyph glyph-name="glyph460" horiz-adv-x="793" 
 />
    <glyph glyph-name="glyph461" horiz-adv-x="402" 
 />
    <glyph glyph-name="glyph462" horiz-adv-x="480" 
 />
    <glyph glyph-name="glyph463" horiz-adv-x="461" 
 />
    <glyph glyph-name="glyph464" horiz-adv-x="1012" 
 />
    <glyph glyph-name="glyph465" horiz-adv-x="1057" 
 />
    <glyph glyph-name="glyph466" horiz-adv-x="881" 
 />
    <glyph glyph-name="glyph467" horiz-adv-x="872" 
 />
    <glyph glyph-name="glyph468" horiz-adv-x="1069" 
 />
    <glyph glyph-name="glyph469" horiz-adv-x="1169" 
 />
    <glyph glyph-name="glyph470" horiz-adv-x="1116" 
 />
    <glyph glyph-name="glyph471" horiz-adv-x="1318" 
 />
    <glyph glyph-name="glyph472" horiz-adv-x="1279" 
 />
    <glyph glyph-name="glyph473" horiz-adv-x="986" 
 />
    <glyph glyph-name="glyph474" horiz-adv-x="1290" 
 />
    <glyph glyph-name="glyph475" horiz-adv-x="963" 
 />
    <glyph glyph-name="glyph476" horiz-adv-x="881" 
 />
    <glyph glyph-name="glyph477" horiz-adv-x="876" 
 />
    <glyph glyph-name="glyph478" horiz-adv-x="1111" 
 />
    <glyph glyph-name="glyph479" horiz-adv-x="1374" 
 />
    <glyph glyph-name="glyph480" horiz-adv-x="1341" 
 />
    <glyph glyph-name="glyph481" horiz-adv-x="1408" 
 />
    <glyph glyph-name="glyph482" horiz-adv-x="1368" 
 />
    <glyph glyph-name="glyph483" horiz-adv-x="1427" 
 />
    <glyph glyph-name="glyph484" horiz-adv-x="1428" 
 />
    <glyph glyph-name="glyph485" horiz-adv-x="962" 
 />
    <glyph glyph-name="glyph486" horiz-adv-x="1129" 
 />
    <glyph glyph-name="glyph487" horiz-adv-x="1094" 
 />
    <glyph glyph-name="glyph488" horiz-adv-x="1201" 
 />
    <glyph glyph-name="glyph489" horiz-adv-x="1107" 
 />
    <glyph glyph-name="glyph490" horiz-adv-x="1048" 
 />
    <glyph glyph-name="glyph491" horiz-adv-x="1155" 
 />
    <glyph glyph-name="glyph492" horiz-adv-x="1244" 
 />
    <glyph glyph-name="glyph493" horiz-adv-x="997" 
 />
    <glyph glyph-name="glyph494" horiz-adv-x="1110" 
 />
    <glyph glyph-name="glyph495" horiz-adv-x="1046" 
 />
    <glyph glyph-name="glyph496" horiz-adv-x="1121" 
 />
    <glyph glyph-name="glyph497" horiz-adv-x="1119" 
 />
    <glyph glyph-name="glyph498" horiz-adv-x="1129" 
 />
    <glyph glyph-name="glyph499" horiz-adv-x="1118" 
 />
    <glyph glyph-name="glyph500" horiz-adv-x="1125" 
 />
    <glyph glyph-name="glyph501" horiz-adv-x="1033" 
 />
    <glyph glyph-name="glyph502" horiz-adv-x="1036" 
 />
    <glyph glyph-name="glyph503" horiz-adv-x="1112" 
 />
    <glyph glyph-name="glyph504" horiz-adv-x="1111" 
 />
    <glyph glyph-name="glyph505" horiz-adv-x="1111" 
 />
    <glyph glyph-name="glyph506" horiz-adv-x="1311" 
 />
    <glyph glyph-name="glyph507" horiz-adv-x="1354" 
 />
    <glyph glyph-name="glyph508" horiz-adv-x="1074" 
 />
    <glyph glyph-name="glyph509" horiz-adv-x="849" 
 />
    <glyph glyph-name="glyph693" horiz-adv-x="1127" 
 />
    <glyph glyph-name="glyph694" horiz-adv-x="1127" 
 />
    <glyph glyph-name="glyph695" horiz-adv-x="1035" 
 />
    <glyph glyph-name="glyph696" horiz-adv-x="1084" 
 />
    <glyph glyph-name="glyph697" horiz-adv-x="1084" 
 />
    <glyph glyph-name="glyph698" horiz-adv-x="1084" 
 />
    <glyph glyph-name="glyph699" horiz-adv-x="1084" 
 />
    <glyph glyph-name="glyph700" horiz-adv-x="1084" 
 />
    <glyph glyph-name="glyph701" horiz-adv-x="1084" 
 />
    <glyph glyph-name="glyph702" horiz-adv-x="1084" 
 />
    <glyph glyph-name="glyph703" horiz-adv-x="1120" 
 />
    <glyph glyph-name="glyph704" horiz-adv-x="980" 
 />
    <glyph glyph-name="glyph705" horiz-adv-x="980" 
 />
    <glyph glyph-name="glyph706" horiz-adv-x="980" 
 />
    <glyph glyph-name="glyph707" horiz-adv-x="980" 
 />
    <glyph glyph-name="glyph708" horiz-adv-x="470" 
 />
    <glyph glyph-name="glyph709" horiz-adv-x="470" 
 />
    <glyph glyph-name="glyph710" horiz-adv-x="470" 
 />
    <glyph glyph-name="glyph711" horiz-adv-x="470" 
 />
    <glyph glyph-name="glyph712" horiz-adv-x="1221" 
 />
    <glyph glyph-name="glyph713" horiz-adv-x="1167" 
 />
    <glyph glyph-name="glyph714" horiz-adv-x="1167" 
 />
    <glyph glyph-name="glyph715" horiz-adv-x="1167" 
 />
    <glyph glyph-name="glyph716" horiz-adv-x="1167" 
 />
    <glyph glyph-name="glyph717" horiz-adv-x="1167" 
 />
    <glyph glyph-name="glyph718" horiz-adv-x="1134" 
 />
    <glyph glyph-name="glyph719" horiz-adv-x="1134" 
 />
    <glyph glyph-name="glyph720" horiz-adv-x="1134" 
 />
    <glyph glyph-name="glyph721" horiz-adv-x="1134" 
 />
    <glyph glyph-name="glyph722" horiz-adv-x="1037" 
 />
    <glyph glyph-name="glyph723" horiz-adv-x="1084" 
 />
    <glyph glyph-name="glyph724" horiz-adv-x="1084" 
 />
    <glyph glyph-name="glyph725" horiz-adv-x="1084" 
 />
    <glyph glyph-name="glyph726" horiz-adv-x="1120" 
 />
    <glyph glyph-name="glyph727" horiz-adv-x="1120" 
 />
    <glyph glyph-name="glyph728" horiz-adv-x="1120" 
 />
    <glyph glyph-name="glyph729" horiz-adv-x="1120" 
 />
    <glyph glyph-name="glyph730" horiz-adv-x="1127" 
 />
    <glyph glyph-name="glyph731" horiz-adv-x="980" 
 />
    <glyph glyph-name="glyph732" horiz-adv-x="980" 
 />
    <glyph glyph-name="glyph733" horiz-adv-x="980" 
 />
    <glyph glyph-name="glyph734" horiz-adv-x="980" 
 />
    <glyph glyph-name="glyph735" horiz-adv-x="980" 
 />
    <glyph glyph-name="glyph736" horiz-adv-x="1176" 
 />
    <glyph glyph-name="glyph737" horiz-adv-x="1176" 
 />
    <glyph glyph-name="glyph738" horiz-adv-x="1176" 
 />
    <glyph glyph-name="glyph739" horiz-adv-x="1176" 
 />
    <glyph glyph-name="glyph740" horiz-adv-x="1217" 
 />
    <glyph glyph-name="glyph741" horiz-adv-x="470" 
 />
    <glyph glyph-name="glyph742" horiz-adv-x="470" 
 />
    <glyph glyph-name="glyph743" horiz-adv-x="470" 
 />
    <glyph glyph-name="glyph744" horiz-adv-x="470" 
 />
    <glyph glyph-name="glyph745" horiz-adv-x="470" 
 />
    <glyph glyph-name="glyph746" horiz-adv-x="952" 
 />
    <glyph glyph-name="glyph747" horiz-adv-x="1089" 
 />
    <glyph glyph-name="glyph748" horiz-adv-x="912" 
 />
    <glyph glyph-name="glyph749" horiz-adv-x="912" 
 />
    <glyph glyph-name="glyph750" horiz-adv-x="912" 
 />
    <glyph glyph-name="glyph751" horiz-adv-x="912" 
 />
    <glyph glyph-name="glyph752" horiz-adv-x="1221" 
 />
    <glyph glyph-name="glyph753" horiz-adv-x="1221" 
 />
    <glyph glyph-name="glyph754" horiz-adv-x="1221" 
 />
    <glyph glyph-name="glyph755" horiz-adv-x="1167" 
 />
    <glyph glyph-name="glyph756" horiz-adv-x="1167" 
 />
    <glyph glyph-name="glyph757" horiz-adv-x="1167" 
 />
    <glyph glyph-name="glyph758" horiz-adv-x="1098" 
 />
    <glyph glyph-name="glyph759" horiz-adv-x="1098" 
 />
    <glyph glyph-name="glyph760" horiz-adv-x="1098" 
 />
    <glyph glyph-name="glyph761" horiz-adv-x="1027" 
 />
    <glyph glyph-name="glyph762" horiz-adv-x="1027" 
 />
    <glyph glyph-name="glyph763" horiz-adv-x="1027" 
 />
    <glyph glyph-name="glyph764" horiz-adv-x="1027" 
 />
    <glyph glyph-name="glyph765" horiz-adv-x="1035" 
 />
    <glyph glyph-name="glyph766" horiz-adv-x="1035" 
 />
    <glyph glyph-name="glyph767" horiz-adv-x="1134" 
 />
    <glyph glyph-name="glyph768" horiz-adv-x="1134" 
 />
    <glyph glyph-name="glyph769" horiz-adv-x="1134" 
 />
    <glyph glyph-name="glyph770" horiz-adv-x="1134" 
 />
    <glyph glyph-name="glyph771" horiz-adv-x="1134" 
 />
    <glyph glyph-name="glyph772" horiz-adv-x="1134" 
 />
    <glyph glyph-name="glyph773" horiz-adv-x="1538" 
 />
    <glyph glyph-name="glyph774" horiz-adv-x="1037" 
 />
    <glyph glyph-name="glyph775" horiz-adv-x="1037" 
 />
    <glyph glyph-name="glyph776" horiz-adv-x="1034" 
 />
    <glyph glyph-name="glyph777" horiz-adv-x="1034" 
 />
    <glyph glyph-name="glyph778" horiz-adv-x="1034" 
 />
    <glyph glyph-name="glyph779" horiz-adv-x="2054" 
 />
  </font>
</defs>
</svg>
